<?xml version="1.0" encoding="utf-8"?>
<!-- Generator: Adobe Illustrator 23.1.0, SVG Export Plug-In . SVG Version: 6.00 Build 0)  -->
<svg version="1.1" id="Layer_1" xmlns="http://www.w3.org/2000/svg" xmlns:xlink="http://www.w3.org/1999/xlink" x="0px" y="0px"
	 viewBox="0 0 233.1 233.1" style="enable-background:new 0 0 233.1 233.1;" xml:space="preserve">
<style type="text/css">
	.st0{fill:#CCCCCC;}
	.st1{fill:none;stroke:#333333;stroke-width:5;stroke-linecap:round;stroke-linejoin:round;stroke-miterlimit:10;}
	.st2{fill:none;stroke:#333333;stroke-width:10;stroke-linecap:round;stroke-linejoin:round;stroke-miterlimit:10;}
</style>
<g>
	<circle class="st0" cx="116.6" cy="116.6" r="116.6"/>
	<g>
		<polyline class="st1" points="167.4,180.9 170.5,189.3 157.5,190.3 149.5,203 131.6,199.2 115.6,208.2 99.6,199.2 81.7,203 
			73.7,190.3 60.7,189.3 63.8,180.9 		"/>
		<g>
			<path class="st2" d="M181.1,76.7c7.7,0,14-6.2,14-14v0c0-7.7-6.2-14-14-14H160v-1.6h-0.3c1.4-7.6-3.6-14.8-11.2-16.2L117,25.1
				c-3.5-0.6-6.9,0.1-9.7,1.7l-13.1,5.4c0,0,0,0,0,0C77.9,37.7,67.1,42.5,60,46.3c-4.1,1.7-7.8,4.2-11,7.2c-1.5,1.3-1.9,2-1.9,2l0,0
				c-5.6,6.3-9,14.6-9,23.6c0,0.8,0,1.6,0.1,2.4H38v54.2h0.1c1.4,18.3,16.7,32.7,35.4,32.7c0.1,0,0.3,0,0.4,0v0h74.6H160h7.6
				c7.7,0,14-6.2,14-14v0c0-7.7-6.2-14-14-14H160v-2.4h15.5c7.7,0,14-6.2,14-14v0c0-7.7-6.2-14-14-14H160V107h21.1
				c7.7,0,14-6.2,14-14v0c0-7.7-6.2-14-14-14H160v-2.4H181.1z"/>
			<line class="st2" x1="160.8" y1="48.7" x2="126.5" y2="48.7"/>
		</g>
	</g>
</g>
</svg>
