<?xml version="1.0" encoding="utf-8"?>
<!-- Generator: Adobe Illustrator 23.1.0, SVG Export Plug-In . SVG Version: 6.00 Build 0)  -->
<svg version="1.1" id="Layer_1" xmlns="http://www.w3.org/2000/svg" xmlns:xlink="http://www.w3.org/1999/xlink" x="0px" y="0px"
	 viewBox="0 0 233.1 233.1" style="enable-background:new 0 0 233.1 233.1;" xml:space="preserve">
<style type="text/css">
	.st0{fill:#A12B2B;}
	.st1{fill:none;stroke:#CCCCCC;stroke-width:5;stroke-linecap:round;stroke-linejoin:round;stroke-miterlimit:10;}
	.st2{fill:none;stroke:#CCCCCC;stroke-width:10;stroke-linecap:round;stroke-linejoin:round;stroke-miterlimit:10;}
</style>
<g>
	<circle class="st0" cx="116.6" cy="116.5" r="113.5"/>
	<path d="M116.6,6c29.5,0,57.3,11.5,78.2,32.4c20.9,20.9,32.4,48.6,32.4,78.2s-11.5,57.3-32.4,78.2c-20.9,20.9-48.6,32.4-78.2,32.4
		s-57.3-11.5-78.2-32.4S6,146.1,6,116.6s11.5-57.3,32.4-78.2S87,6,116.6,6 M116.6,0C52.2,0,0,52.2,0,116.6s52.2,116.6,116.5,116.6
		s116.5-52.2,116.5-116.6S180.9,0,116.6,0L116.6,0z"/>
</g>
<g>
	<g>
		<path class="st1" d="M174.5,68.6L174.5,68.6c-1.3-5.8-7.1-9.5-12.9-8.2l-53.9,11.9l-0.3-1.2l-0.2,0.1c-0.2-6-5.2-10.6-11.2-10.4
			l-24.8,0.8c-2.7,0.1-5.2,1.2-7,2.9l-9,6.2c0,0,0,0,0,0C43.7,77.5,36.3,82.9,31.5,87c-2.8,2-5.3,4.5-7.1,7.3
			c-0.9,1.2-1.1,1.8-1.1,1.8l0,0c-3.2,5.7-4.4,12.5-2.9,19.4c0.1,0.6,0.3,1.2,0.5,1.8l-0.1,0l9.1,41.1l0.1,0
			c2,6.5,6.2,11.8,11.6,15.2"/>
	</g>
	<g>
		<path class="st2" d="M186.1,99.4c5.8-1.3,9.5-7.1,8.2-12.9l0,0c-1.3-5.8-7.1-9.5-12.9-8.2l-53.9,11.9l-0.3-1.2L127,89
			c-0.2-6-5.2-10.6-11.2-10.4L91,79.4c-2.7,0.1-5.2,1.2-7,2.9l-9,6.2c0,0,0,0,0,0c-11.5,6.9-18.9,12.3-23.6,16.4
			c-2.8,2-5.3,4.5-7.1,7.3c-0.9,1.2-1.1,1.8-1.1,1.8l0,0c-3.2,5.7-4.4,12.5-2.9,19.4c0.1,0.6,0.3,1.2,0.5,1.8l-0.1,0l9.1,41.1l0.1,0
			c4.1,13.6,18.1,22,32.3,18.9c0.1,0,0.2-0.1,0.3-0.1l0,0l56.5-12.5l8.8-1.9l43.3-9.5c5.8-1.3,9.5-7.1,8.2-12.9v0
			c-1.3-5.8-7.1-9.5-12.9-8.2l-43.3,9.5l-0.4-1.8l62.5-13.8c5.8-1.3,9.5-7.1,8.2-12.9v0c-1.3-5.8-7.1-9.5-12.9-8.2l-62.5,13.8
			l-0.5-2.4l66.7-14.7c5.8-1.3,9.5-7.1,8.2-12.9v0c-1.3-5.8-7.1-9.5-12.9-8.2l-66.7,14.7l-0.4-1.8L186.1,99.4z"/>
		<line class="st2" x1="128.1" y1="89.9" x2="102.1" y2="95.6"/>
	</g>
	<polyline class="st1" points="134.4,47.3 141.8,38.2 155.4,42.8 168.6,37.3 180.2,45.8 194.5,44.5 199.5,55.1 	"/>
</g>
</svg>
