<?xml version="1.0" encoding="utf-8"?>
<!-- Generator: Adobe Illustrator 23.1.0, SVG Export Plug-In . SVG Version: 6.00 Build 0)  -->
<svg version="1.1" id="Layer_1" xmlns="http://www.w3.org/2000/svg" xmlns:xlink="http://www.w3.org/1999/xlink" x="0px" y="0px"
	 viewBox="0 0 231.6 165.6" style="enable-background:new 0 0 231.6 165.6;" xml:space="preserve">
<style type="text/css">
	.st0{fill:#B9BEC6;}
	.st1{fill:url(#SVGID_1_);}
	.st2{fill:#768093;}
	.st3{fill:#AF5C5C;}
	.st4{fill:#5E677A;}
	.st5{fill:#9D1C20;}
	.st6{fill:url(#SVGID_2_);}
	.st7{fill:url(#SVGID_3_);}
	.st8{fill:url(#SVGID_4_);}
	.st9{fill:#AB2D2D;}
	.st10{fill:#B98671;}
	.st11{fill:#C2A386;}
</style>
<g>
	<path class="st0" d="M37.8,132.6c0,0,6.1-2.2,8.8-11.7c0,0,5.6-0.9,7.2-10.6S39,107,39,107"/>
	<path class="st0" d="M108.9,132.6c0,0-6.1-2.2-8.8-11.7c0,0-5.6-0.9-7.2-10.6c-1.6-9.8,14.9-3.3,14.9-3.3"/>
	
		<linearGradient id="SVGID_1_" gradientUnits="userSpaceOnUse" x1="73.2894" y1="41.4389" x2="73.2894" y2="105.5464" gradientTransform="matrix(1 0 0 -1 -4.510834e-02 166.1779)">
		<stop  offset="0" style="stop-color:#97A0AA"/>
		<stop  offset="1" style="stop-color:#5E677A"/>
	</linearGradient>
	<path class="st1" d="M97.7,51.3c-12.1-14.8-9.6-27.7-9.6-35C88.1,7.3,82,0,73.3,0S58.6,7.3,58.6,16.3c0,5.5,4,15.9-10.5,33.7
		C32.4,69.2,36.7,90.3,36.7,90.3c0.5,9.2,3.8,17.5,11,23.2c0,0,7,7.1,7.8,11.7c0.8,4.5,9,3.8,9.2,0c0.1-1.6,0.7-1,1.3-1.9
		c1.7,0.2,5.6,0.8,7.4,0.8c1.7,0,3.4-0.6,5.1-0.8c0.7,0.8,1.3,0.3,1.3,1.9c0.1,3.8,8.4,4.5,9.2,0c0.8-4.5,8.7-11.7,8.7-11.7
		c7.2-5.7,11.8-14,12.3-23.2C110,90.3,113.4,70.5,97.7,51.3z"/>
	<path class="st2" d="M67,15.8c2.3,0,4.2-1.9,4.2-4.2c0-2.3-1.9-4.2-4.2-4.2s-4.2,1.9-4.2,4.2C62.8,14,64.7,15.8,67,15.8z"/>
	<path class="st3" d="M61.7,136.2l-0.1,0v-8.9c0-0.4-0.1-0.7-0.4-0.9c-0.3-0.3-0.6-0.4-0.9-0.4c-0.4,0-0.7,0.1-0.9,0.4
		c-0.3,0.3-0.4,0.6-0.4,0.9v9.1c-7.6,1.7-10,5.8-10.1,6c-0.2,0.3-0.2,0.7-0.1,1c0.1,0.3,0.3,0.6,0.6,0.8c0.2,0.1,0.4,0.2,0.7,0.2
		c0.2,0,0.5-0.1,0.7-0.2c0.2-0.1,0.4-0.3,0.5-0.5c0.7-1,1.5-1.8,2.5-2.4c-1.1,1.7-1.8,3.5-2.2,5.4c0,0.2,0,0.3,0,0.5
		c0,0.2,0.1,0.3,0.2,0.5c0.1,0.1,0.2,0.3,0.4,0.4c0.1,0.1,0.3,0.2,0.5,0.2c0.1,0,0.2,0,0.3,0c0.3,0,0.6-0.1,0.8-0.3
		c0.2-0.2,0.4-0.5,0.5-0.8c0.8-4,2.9-6.2,4.5-7.4c-0.1,1.5,0,3,0.4,4.4c0.1,0.3,0.2,0.5,0.5,0.7c0.2,0.2,0.5,0.3,0.8,0.3
		c0.1,0,0.2,0,0.3,0c0.3-0.1,0.6-0.3,0.8-0.6c0.2-0.3,0.2-0.7,0.1-1c-0.3-1.3-0.6-3.6,0-4.5c0.1-0.1,0.1-0.2,0.2-0.2
		c0.1-0.1,0.2-0.1,0.3-0.1c0.3-0.1,0.7-0.2,0.9-0.5c0.2-0.3,0.3-0.6,0.2-1c0-0.3-0.2-0.7-0.5-0.9C62.4,136.2,62,136.1,61.7,136.2
		L61.7,136.2z"/>
	<path class="st3" d="M90.2,143.6c-0.2-0.5-1.9-4.9-4.8-6.3c-0.4-0.2-0.8-0.3-1.2-0.4l1-9.5c0-0.2,0-0.4,0-0.5
		c-0.1-0.2-0.1-0.3-0.2-0.5c-0.1-0.1-0.2-0.3-0.4-0.3c-0.2-0.1-0.3-0.1-0.5-0.2c-0.2,0-0.4,0-0.5,0c-0.2,0.1-0.3,0.1-0.5,0.2
		c-0.1,0.1-0.3,0.2-0.3,0.4c-0.1,0.2-0.1,0.3-0.2,0.5l-1.1,10.4c-1.7,0.9-5.4,3.6-6.4,11c0,0.2,0,0.4,0,0.5c0,0.2,0.1,0.3,0.2,0.5
		c0.1,0.1,0.2,0.3,0.4,0.3c0.2,0.1,0.3,0.1,0.5,0.2c0.1,0,0.1,0,0.2,0c0.3,0,0.6-0.1,0.9-0.3c0.2-0.2,0.4-0.5,0.4-0.8
		c0.6-4.5,2.2-6.8,3.5-8l-0.4,7.7c0,0.4,0.1,0.7,0.3,1c0.2,0.3,0.6,0.4,0.9,0.4h0.1c0.3,0,0.7-0.1,0.9-0.4c0.2-0.2,0.4-0.6,0.4-0.9
		l0.4-9.1c0.1,0,0.2,0.1,0.3,0.1c1.6,0.7,3,3.7,3.4,4.7c0,0.2,0.1,0.3,0.2,0.5c0.1,0.1,0.3,0.3,0.4,0.4c0.2,0.1,0.3,0.1,0.5,0.2
		c0.2,0,0.4,0,0.5-0.1c0.2-0.1,0.3-0.2,0.5-0.3c0.1-0.1,0.2-0.3,0.3-0.5c0.1-0.2,0.1-0.4,0.1-0.5C90.4,143.9,90.3,143.7,90.2,143.6
		L90.2,143.6z"/>
	<path class="st4" d="M96.3,49.6c0,0,22.5,22.5,20.3,56.3c0,0-0.7,12.8-7.7,26.8c0,0,0-10.7-3.4-13.3c-3.4-2.6-17.1-24.9-13.9-51.2
		C91.7,68.1,93.5,55.2,96.3,49.6z"/>
	<path class="st2" d="M70.7,17c0,0-1,0.9,2,3c0,0,3.6-1.9,3.1-3C75.9,17,73.1,14.6,70.7,17z"/>
	<path class="st5" d="M67,15.1c1.9,0,3.5-1.6,3.5-3.5c0-1.9-1.6-3.5-3.5-3.5c-1.9,0-3.5,1.6-3.5,3.5C63.5,13.6,65,15.1,67,15.1z"/>
	<path class="st3" d="M67,13.4c1,0,1.8-0.8,1.8-1.8S68,9.9,67,9.9c-1,0-1.8,0.8-1.8,1.8S66,13.4,67,13.4z"/>
	<path d="M67,13.1c0.8,0,1.4-0.6,1.4-1.4c0-0.8-0.6-1.4-1.4-1.4c-0.8,0-1.4,0.6-1.4,1.4C65.5,12.4,66.2,13.1,67,13.1z"/>
	<path class="st0" d="M70.6,17.5c0,0,0.8-0.4,1.2-0.1c0.4,0.3,0.6,0.6,1.3,0.3c0.7-0.2,2.4,0.2,2.7-0.1c0.3-0.3,0.9-1.7-2.6-1.8
		C69.8,15.8,70.6,17.5,70.6,17.5z"/>
	<path class="st2" d="M79.7,15.8c2.3,0,4.2-1.9,4.2-4.2c0-2.3-1.9-4.2-4.2-4.2s-4.2,1.9-4.2,4.2C75.6,14,77.4,15.8,79.7,15.8z"/>
	<path class="st5" d="M79.7,15.1c1.9,0,3.5-1.6,3.5-3.5c0-1.9-1.6-3.5-3.5-3.5c-1.9,0-3.5,1.6-3.5,3.5
		C76.2,13.6,77.8,15.1,79.7,15.1z"/>
	<path class="st3" d="M79.7,13.4c1,0,1.8-0.8,1.8-1.8s-0.8-1.8-1.8-1.8S78,10.7,78,11.7S78.8,13.4,79.7,13.4z"/>
	<path class="st4" d="M51.3,45.8c0,0-23.1,21.4-21.2,60c0,0,0.7,12.8,7.7,26.8c0,0,0-10.7,3.4-13.3c3.4-2.6,17.1-24.9,13.9-51.2
		C55,68.1,50.6,51.3,51.3,45.8z"/>
	<path d="M79.7,13.1c0.8,0,1.4-0.6,1.4-1.4c0-0.8-0.6-1.4-1.4-1.4c-0.8,0-1.4,0.6-1.4,1.4C78.3,12.4,79,13.1,79.7,13.1z"/>
	<path class="st2" d="M41.8,118.7c1-1.1,1.9-2.3,2.7-3.6c-1.7-1.2-3-2.9-3.8-4.9c-0.4-1-1.1-1.9-2.1-2.4c-0.9-0.5-2.1-0.7-3.1-0.4
		c-1.8,0.4-3.6,0.3-5.4-0.2c0.1,1.1,0.3,2.7,0.7,4.7c1.9,0.3,3.8,0.3,5.6-0.2C37.6,114.6,39.4,117,41.8,118.7z"/>
	<path class="st2" d="M43.3,99.3c-0.4-1-1.1-1.9-2-2.4s-2-0.7-3.1-0.4c-1.3,0.3-2.7,0.3-4.1,0.1c-1.4-0.3-2.6-0.8-3.8-1.5
		c-0.1,1.6-0.2,3.3-0.2,4.9c1.9,0.8,3.9,1.2,5.9,1.2c1.1,0,2.2-0.1,3.2-0.4c0.7,2,1.9,3.7,3.3,5.2s3.2,2.7,5.2,3.4
		c0.6-1.3,1.2-2.6,1.9-4.1c-1.4-0.5-2.7-1.3-3.8-2.4C44.6,102,43.8,100.7,43.3,99.3z"/>
	<path class="st2" d="M104.9,118.7c-1-1.1-1.9-2.3-2.7-3.6c1.7-1.2,3-2.9,3.8-4.9c0.4-1,1.1-1.9,2-2.4c0.9-0.5,2-0.7,3.1-0.4
		c1.8,0.4,3.6,0.3,5.4-0.2c-0.1,1.1-0.3,2.7-0.7,4.7c-1.9,0.3-3.8,0.3-5.6-0.2C109.1,114.6,107.3,117,104.9,118.7z"/>
	<path class="st2" d="M103.4,99.3c0.4-1,1.1-1.9,2-2.4c0.9-0.5,2.1-0.7,3.1-0.4c1.3,0.3,2.7,0.3,4.1,0.1c1.4-0.3,2.7-0.8,3.8-1.5
		c0.1,1.6,0.2,3.3,0.2,4.9c-2.9,1.2-6,1.5-9.1,0.9c-0.7,2-1.9,3.7-3.3,5.2c-1.5,1.5-3.2,2.7-5.2,3.4c-0.6-1.3-1.2-2.6-1.9-4.1
		c1.4-0.5,2.7-1.3,3.8-2.4C102.1,102,102.9,100.7,103.4,99.3z"/>
</g>
<g>
	<path class="st0" d="M124.8,146c0,0,7.3-2.4,8.7-6.8c1.4-4.4-11-6.2-11-6.2L124.8,146z"/>
	<path class="st0" d="M173.4,146c0,0-10.1-0.7-6.9-5c3.3-4.3,9.1-5.5,9.1-5.5L173.4,146z"/>
	
		<linearGradient id="SVGID_2_" gradientUnits="userSpaceOnUse" x1="153.2534" y1="21.3009" x2="153.2534" y2="72.1174" gradientTransform="matrix(1 0 0 -1 -4.510834e-02 166.1779)">
		<stop  offset="0" style="stop-color:#97A0AA"/>
		<stop  offset="1" style="stop-color:#5E677A"/>
	</linearGradient>
	<path class="st6" d="M187,124.3c-0.3-7-2.5-18.6-11.8-30c-11.4-14-9-26-9-32.9c0-8.5-5.7-15.3-13.8-15.3c-8.1,0-13.8,6.9-13.8,15.3
		c0,5.1,3.8,15-9.8,31.6c-3,3.7-5.5,7.8-7.4,12.2c0,0-7.8,25,8.8,36.6c13.9,9.7,22.9,5,36.6,3.2C166.6,145,185.7,141.7,187,124.3z"
		/>
	
		<linearGradient id="SVGID_3_" gradientUnits="userSpaceOnUse" x1="126.1653" y1="21.8459" x2="126.1653" y2="51.4349" gradientTransform="matrix(1 0 0 -1 -4.510834e-02 166.1779)">
		<stop  offset="0" style="stop-color:#97A0AA"/>
		<stop  offset="0.24" style="stop-color:#929AA5"/>
		<stop  offset="0.55" style="stop-color:#828B98"/>
		<stop  offset="0.89" style="stop-color:#687182"/>
		<stop  offset="1" style="stop-color:#5E677A"/>
	</linearGradient>
	<path class="st7" d="M133.2,86.8c0,0-32.2,30.2-8.4,59.2c0,0-1.1-9,2.8-13.2c3.8-4.1,11.2-25,7.7-37.4"/>
	<path class="st4" d="M121.3,131.1c-0.2-0.5-0.6-0.9-1.2-1.1c-1.4-0.6-2.7-1.4-3.8-2.3c0.3,2,0.7,3.9,1.4,5.8l0.2,0.1
		c0.8,1.6,3.1,5,6.9,6.9c0.1-1.5,0.4-2.9,0.9-4.3C123.8,134.8,122.3,133.1,121.3,131.1z"/>
	
		<linearGradient id="SVGID_4_" gradientUnits="userSpaceOnUse" x1="174.6636" y1="21.8879" x2="174.6636" y2="52.2109" gradientTransform="matrix(1 0 0 -1 -4.510834e-02 166.1779)">
		<stop  offset="0" style="stop-color:#97A0AA"/>
		<stop  offset="1" style="stop-color:#5E677A"/>
	</linearGradient>
	<path class="st8" d="M163.6,96.8c0,0-4.6,24.5,3.7,33.7c8.3,9.2,6.1,15.4,6.1,15.4s17.5-5.5,12.7-29c-4.8-23.6-16.7-31.7-16.7-31.7
		"/>
	<path class="st4" d="M177.6,130.7c-0.5-0.2-1-0.3-1.5-0.1c-0.5,0.2-0.9,0.5-1.2,1c-0.9,1.6-2.4,2.7-4.2,3.4
		c0.8,1.2,1.4,2.4,1.9,3.8c1.9-0.8,3.6-2,4.9-3.6c2.3,0.7,4.6,1,7,0.9c0.7-1.4,1.2-2.9,1.6-4.4C183.2,132.1,180.3,131.8,177.6,130.7
		z"/>
	<path class="st4" d="M130.9,127.1c-1.2,0.1-2.4-0.1-3.6-0.5c-4-1.5-6-5.9-6-5.9c-0.2-0.5-0.6-0.9-1.2-1.1c-1.4-0.6-2.6-1.3-3.8-2.2
		c-0.2,1.6-0.4,3.2-0.4,4.8c0.6,0.4,1.2,0.7,1.9,1c0.9,1.7,3.4,5.6,7.9,7.3c1,0.4,2,0.6,3,0.8C129.6,129.9,130.3,128.5,130.9,127.1z
		"/>
	<path class="st4" d="M186.6,119.8c-2.1,1.3-4.5,2.2-7,2.4s-5-0.2-7.3-1.1c-0.5-0.2-1-0.3-1.6-0.1c-0.5,0.2-0.9,0.5-1.2,1
		c-1,1.9-3,3-5.1,3.7c0.5,1.3,1.2,2.6,2,3.8c2.3-0.7,4.3-2.1,5.8-3.9c4.9,1.5,10.1,1.1,14.7-1.1
		C186.9,122.9,186.8,121.4,186.6,119.8z"/>
	<path class="st2" d="M146.3,60.9c2.2,0,3.9-1.8,3.9-3.9c0-2.2-1.8-3.9-3.9-3.9c-2.2,0-3.9,1.8-3.9,3.9
		C142.4,59.1,144.2,60.9,146.3,60.9z"/>
	<path class="st2" d="M149.9,62c0,0-0.9,0.8,1.9,2.8c0,0,3.4-1.8,2.9-2.8C154.7,62,152.1,59.8,149.9,62z"/>
	<path class="st9" d="M146.3,60.2c1.8,0,3.3-1.5,3.3-3.3c0-1.8-1.5-3.3-3.3-3.3c-1.8,0-3.3,1.5-3.3,3.3
		C143,58.8,144.5,60.2,146.3,60.2z"/>
	<path class="st3" d="M146.3,58.6c0.9,0,1.7-0.7,1.7-1.7c0-0.9-0.7-1.7-1.7-1.7c-0.9,0-1.7,0.7-1.7,1.7
		C144.7,57.9,145.4,58.6,146.3,58.6z"/>
	<path d="M146.3,58.3c0.7,0,1.3-0.6,1.3-1.3c0-0.7-0.6-1.3-1.3-1.3c-0.7,0-1.3,0.6-1.3,1.3C145,57.7,145.6,58.3,146.3,58.3z"/>
	<path class="st0" d="M149.7,62.4c0,0,0.7-0.4,1.1-0.1c0.4,0.3,0.6,0.5,1.2,0.3c0.7-0.2,2.2,0.2,2.5-0.1c0.3-0.3,0.8-1.6-2.4-1.6
		C149,60.8,149.7,62.4,149.7,62.4z"/>
	<path class="st2" d="M158.3,60.9c2.2,0,3.9-1.8,3.9-3.9c0-2.2-1.8-3.9-3.9-3.9s-3.9,1.8-3.9,3.9C154.4,59.1,156.2,60.9,158.3,60.9z
		"/>
	<path class="st9" d="M158.3,60.2c1.8,0,3.3-1.5,3.3-3.3c0-1.8-1.5-3.3-3.3-3.3S155,55.1,155,57C155,58.8,156.5,60.2,158.3,60.2z"/>
	<path class="st3" d="M158.3,58.6c0.9,0,1.7-0.7,1.7-1.7c0-0.9-0.7-1.7-1.7-1.7s-1.7,0.7-1.7,1.7C156.7,57.9,157.4,58.6,158.3,58.6z
		"/>
	<path d="M158.3,58.3c0.7,0,1.3-0.6,1.3-1.3c0-0.7-0.6-1.3-1.3-1.3c-0.7,0-1.3,0.6-1.3,1.3C157,57.7,157.6,58.3,158.3,58.3z"/>
</g>
<g>
	<path class="st10" d="M226.9,129.5l-8.1-0.7c1.1-0.5,2-1.4,2.5-2.5c0.5-1.1,0.6-2.4,0.2-3.5c-0.4-1.2-1.1-2.2-2.2-2.8
		c-1-0.6-2.3-0.9-3.5-0.6l-0.4,0.1c0.9-0.6,1.6-1.5,2-2.5s0.4-2.2,0-3.2c-0.3-1-1-1.9-1.9-2.6c-0.9-0.6-2-0.9-3.1-0.9l-14.1,0.9
		l12.8-6.7c1.2-0.6,2.1-1.7,2.4-2.9c0.4-1.3,0.3-2.6-0.4-3.8c-0.6-1.2-1.7-2.1-2.9-2.4c-1.3-0.4-2.6-0.3-3.8,0.4l-24.8,13
		c-1-0.4-2-0.4-3-0.2l-20.7,5.2l-65.6,4.1l-38.6-3.4L8.6,93.5c-1.2-0.6-2.6-0.6-3.8-0.2c-1.2,0.5-2.3,1.4-2.8,2.6
		c-0.6,1.2-0.6,2.6-0.2,3.8c0.5,1.2,1.4,2.3,2.6,2.8l25.5,11.8l-7.8-0.6c-0.7-0.1-1.3,0-1.9,0.2c-0.6,0.2-1.2,0.5-1.7,1
		c-0.5,0.4-0.9,0.9-1.2,1.5c-0.3,0.6-0.5,1.2-0.5,1.9l-9.3-5.5c-1.1-0.6-2.5-0.8-3.8-0.5c-1.3,0.3-2.4,1.2-3,2.3
		c-0.7,1.1-0.9,2.5-0.6,3.7c0.3,1.3,1.1,2.4,2.2,3.1l1.4,0.8c-0.8,0.6-1.3,1.5-1.6,2.4c-0.3,1-0.3,2,0,2.9c0.3,1,0.9,1.8,1.6,2.4
		c0.8,0.6,1.7,1,2.7,1.1l13.3,1c-0.5,0.5-0.9,1-1.1,1.6c-0.3,0.6-0.4,1.3-0.4,1.9c0,0.7,0.1,1.3,0.3,1.9c0.2,0.6,0.6,1.2,1.1,1.7
		l-12.7,1.9c-1.3,0.2-2.4,0.8-3.2,1.8c-0.8,1-1.2,2.2-1.1,3.5c0.1,1.3,0.7,2.4,1.6,3.3c0.9,0.9,2.1,1.3,3.4,1.3c0.2,0,0.5,0,0.7,0
		l2.7-0.4l-0.8,0.2c-1.2,0.3-2.3,1-3,2c-0.7,1-1,2.3-0.9,3.5c0.2,1.2,0.8,2.4,1.7,3.2c0.9,0.8,2.1,1.2,3.4,1.2
		c0.4,0,0.8-0.1,1.2-0.2l15.5-3.9c0.9,0.9,2,1.4,3.2,1.5l74.8,5.1h0.3c0.7,0,1.3-0.1,1.9-0.3c0.6-0.2,1.2-0.6,1.7-1
		c0.5-0.4,0.9-1,1.1-1.6c0.3-0.6,0.4-1.2,0.4-1.9c0-0.7-0.1-1.3-0.3-1.9c-0.2-0.6-0.6-1.2-1-1.7c-0.4-0.5-1-0.9-1.6-1.1
		s-1.2-0.4-1.9-0.4l-8.7-0.6l8.6-0.4l58,13.2c0.4,0.1,0.7,0.1,1.1,0.1c1.2,0,2.4-0.4,3.3-1.3c0.9-0.8,1.5-2,1.6-3.2
		c0.1-1.2-0.2-2.5-0.9-3.5c-0.7-1-1.8-1.7-3-2l-23-5.2l8.8-0.4l9.7,0.7h0.4c1.2,0,2.3-0.5,3.1-1.2l45.5,8.5c0.3,0.1,0.6,0.1,0.9,0.1
		c1.3,0,2.5-0.5,3.4-1.3s1.5-2,1.6-3.2c0.1-1.2-0.2-2.5-1-3.5c-0.8-1-1.9-1.7-3.1-1.9l-4.6-0.9l12.5-0.6c1.3-0.1,2.6-0.7,3.5-1.6
		c0.9-1,1.4-2.3,1.3-3.6c0-0.7-0.2-1.5-0.6-2.1h0.3h0.4c1.3,0.1,2.6-0.4,3.6-1.3c1-0.9,1.6-2.1,1.6-3.5c0.1-1.3-0.4-2.6-1.3-3.6
		C229.4,130.1,228.2,129.5,226.9,129.5L226.9,129.5z M210,120.4l-27.8,5.2l-9.8-0.9l4.3-2.3L210,120.4z"/>
	<path class="st11" d="M176.7,114.8c-0.1-0.6-0.4-1.3-0.8-1.8c-0.4-0.5-0.8-1-1.4-1.4c-0.6-0.4-1.2-0.6-1.8-0.7
		c-0.6-0.1-1.3-0.1-2,0l-96.9,20.9l-34.3-8.1c-0.6-0.2-1.3-0.2-2-0.1c-0.7,0.1-1.3,0.3-1.9,0.7c-0.6,0.3-1.1,0.8-1.5,1.3
		s-0.7,1.1-0.8,1.8c-0.2,0.6-0.2,1.3-0.1,2c0.1,0.7,0.3,1.3,0.7,1.8c0.4,0.6,0.8,1,1.4,1.4c0.5,0.4,1.2,0.6,1.8,0.8L52,137
		c-0.7,0.5-1.3,1.2-1.7,2c-0.4,0.8-0.5,1.7-0.4,2.6l-5.2,0.1l-36.2-7.2c-0.6-0.1-1.3-0.1-2,0c-0.6,0.1-1.3,0.4-1.8,0.7
		c-0.5,0.4-1,0.8-1.4,1.4c-0.4,0.5-0.6,1.2-0.8,1.8c-0.1,0.6-0.1,1.3,0,2c0.1,0.6,0.4,1.3,0.7,1.8c0.4,0.5,0.8,1,1.4,1.4
		c0.5,0.4,1.2,0.6,1.8,0.8l13.2,2.6c0,0.1,0,0.3,0,0.4c0,1.3,0.6,2.5,1.5,3.5c0.9,0.9,2.2,1.4,3.5,1.4h0.1l19-0.5l41.3,8.2
		c0.3,0.1,0.7,0.1,1,0.1c1.1,0,2.2-0.4,3.1-1.1c0.9-0.7,1.5-1.7,1.7-2.8c0.3-1.1,0.1-2.2-0.3-3.2c-0.5-1-1.3-1.8-2.3-2.4l19.1-0.5
		l35.1,8.3c0.4,0.1,0.8,0.1,1.2,0.1c1.2,0,2.4-0.4,3.3-1.3c0.9-0.8,1.5-1.9,1.6-3.2c0.1-1.2-0.2-2.4-0.9-3.5c-0.7-1-1.8-1.7-3-2
		l-8.5-2c0.4-0.8,0.5-1.6,0.5-2.5c-0.1-0.9-0.3-1.7-0.8-2.4c-0.5-0.7-1.1-1.3-1.9-1.7c-0.8-0.4-1.6-0.6-2.5-0.6l-23.3,0.6l-12-2.8
		l76.3-16.5c1.3-0.3,2.4-1.1,3.1-2.2C176.7,117.5,176.9,116.1,176.7,114.8z"/>
</g>
</svg>
