<?xml version="1.0" encoding="utf-8"?>
<!-- Generator: Adobe Illustrator 23.1.0, SVG Export Plug-In . SVG Version: 6.00 Build 0)  -->
<svg version="1.1" id="Layer_1" xmlns="http://www.w3.org/2000/svg" xmlns:xlink="http://www.w3.org/1999/xlink" x="0px" y="0px"
	 viewBox="0 0 231.6 165.6" style="enable-background:new 0 0 231.6 165.6;" xml:space="preserve">
<style type="text/css">
	.st0{fill:#B9BEC6;}
	.st1{fill:url(#SVGID_1_);}
	.st2{fill:#768093;}
	.st3{fill:#AF5C5C;}
	.st4{fill:#5E677A;}
	.st5{fill:#9D1C20;}
</style>
<g>
	<path class="st0" d="M37.8,132.6c0,0,6.1-2.2,8.8-11.7c0,0,5.6-0.9,7.2-10.6S39,107,39,107"/>
	<path class="st0" d="M108.9,132.6c0,0-6.1-2.2-8.8-11.7c0,0-5.6-0.9-7.2-10.6c-1.6-9.8,14.9-3.3,14.9-3.3"/>
	
		<linearGradient id="SVGID_1_" gradientUnits="userSpaceOnUse" x1="73.2894" y1="41.4389" x2="73.2894" y2="105.5464" gradientTransform="matrix(1 0 0 -1 -4.510834e-02 166.1779)">
		<stop  offset="0" style="stop-color:#97A0AA"/>
		<stop  offset="1" style="stop-color:#5E677A"/>
	</linearGradient>
	<path class="st1" d="M97.7,51.3c-12.1-14.8-9.6-27.7-9.6-35C88.1,7.3,82,0,73.3,0S58.6,7.3,58.6,16.3c0,5.5,4,15.9-10.5,33.7
		C32.4,69.2,36.7,90.3,36.7,90.3c0.5,9.2,3.8,17.5,11,23.2c0,0,7,7.1,7.8,11.7c0.8,4.5,9,3.8,9.2,0c0.1-1.6,0.7-1,1.3-1.9
		c1.7,0.2,5.6,0.8,7.4,0.8c1.7,0,3.4-0.6,5.1-0.8c0.7,0.8,1.3,0.3,1.3,1.9c0.1,3.8,8.4,4.5,9.2,0c0.8-4.5,8.7-11.7,8.7-11.7
		c7.2-5.7,11.8-14,12.3-23.2C110,90.3,113.4,70.5,97.7,51.3z"/>
	<path class="st2" d="M67,15.8c2.3,0,4.2-1.9,4.2-4.2c0-2.3-1.9-4.2-4.2-4.2s-4.2,1.9-4.2,4.2C62.8,14,64.7,15.8,67,15.8z"/>
	<path class="st3" d="M61.7,136.2l-0.1,0v-8.9c0-0.4-0.1-0.7-0.4-0.9c-0.3-0.3-0.6-0.4-0.9-0.4c-0.4,0-0.7,0.1-0.9,0.4
		c-0.3,0.3-0.4,0.6-0.4,0.9v9.1c-7.6,1.7-10,5.8-10.1,6c-0.2,0.3-0.2,0.7-0.1,1c0.1,0.3,0.3,0.6,0.6,0.8c0.2,0.1,0.4,0.2,0.7,0.2
		c0.2,0,0.5-0.1,0.7-0.2c0.2-0.1,0.4-0.3,0.5-0.5c0.7-1,1.5-1.8,2.5-2.4c-1.1,1.7-1.8,3.5-2.2,5.4c0,0.2,0,0.3,0,0.5
		c0,0.2,0.1,0.3,0.2,0.5c0.1,0.1,0.2,0.3,0.4,0.4c0.1,0.1,0.3,0.2,0.5,0.2c0.1,0,0.2,0,0.3,0c0.3,0,0.6-0.1,0.8-0.3
		c0.2-0.2,0.4-0.5,0.5-0.8c0.8-4,2.9-6.2,4.5-7.4c-0.1,1.5,0,3,0.4,4.4c0.1,0.3,0.2,0.5,0.5,0.7c0.2,0.2,0.5,0.3,0.8,0.3
		c0.1,0,0.2,0,0.3,0c0.3-0.1,0.6-0.3,0.8-0.6c0.2-0.3,0.2-0.7,0.1-1c-0.3-1.3-0.6-3.6,0-4.5c0.1-0.1,0.1-0.2,0.2-0.2
		c0.1-0.1,0.2-0.1,0.3-0.1c0.3-0.1,0.7-0.2,0.9-0.5c0.2-0.3,0.3-0.6,0.2-1c0-0.3-0.2-0.7-0.5-0.9C62.4,136.2,62,136.1,61.7,136.2
		L61.7,136.2z"/>
	<path class="st3" d="M90.2,143.6c-0.2-0.5-1.9-4.9-4.8-6.3c-0.4-0.2-0.8-0.3-1.2-0.4l1-9.5c0-0.2,0-0.4,0-0.5
		c-0.1-0.2-0.1-0.3-0.2-0.5c-0.1-0.1-0.2-0.3-0.4-0.3c-0.2-0.1-0.3-0.1-0.5-0.2c-0.2,0-0.4,0-0.5,0c-0.2,0.1-0.3,0.1-0.5,0.2
		c-0.1,0.1-0.3,0.2-0.3,0.4c-0.1,0.2-0.1,0.3-0.2,0.5l-1.1,10.4c-1.7,0.9-5.4,3.6-6.4,11c0,0.2,0,0.4,0,0.5c0,0.2,0.1,0.3,0.2,0.5
		c0.1,0.1,0.2,0.3,0.4,0.3c0.2,0.1,0.3,0.1,0.5,0.2c0.1,0,0.1,0,0.2,0c0.3,0,0.6-0.1,0.9-0.3c0.2-0.2,0.4-0.5,0.4-0.8
		c0.6-4.5,2.2-6.8,3.5-8l-0.4,7.7c0,0.4,0.1,0.7,0.3,1c0.2,0.3,0.6,0.4,0.9,0.4h0.1c0.3,0,0.7-0.1,0.9-0.4c0.2-0.2,0.4-0.6,0.4-0.9
		l0.4-9.1c0.1,0,0.2,0.1,0.3,0.1c1.6,0.7,3,3.7,3.4,4.7c0,0.2,0.1,0.3,0.2,0.5c0.1,0.1,0.3,0.3,0.4,0.4c0.2,0.1,0.3,0.1,0.5,0.2
		c0.2,0,0.4,0,0.5-0.1c0.2-0.1,0.3-0.2,0.5-0.3c0.1-0.1,0.2-0.3,0.3-0.5c0.1-0.2,0.1-0.4,0.1-0.5C90.4,143.9,90.3,143.7,90.2,143.6
		L90.2,143.6z"/>
	<path class="st4" d="M96.3,49.6c0,0,22.5,22.5,20.3,56.3c0,0-0.7,12.8-7.7,26.8c0,0,0-10.7-3.4-13.3c-3.4-2.6-17.1-24.9-13.9-51.2
		C91.7,68.1,93.5,55.2,96.3,49.6z"/>
	<path class="st2" d="M70.7,17c0,0-1,0.9,2,3c0,0,3.6-1.9,3.1-3C75.9,17,73.1,14.6,70.7,17z"/>
	<path class="st5" d="M67,15.1c1.9,0,3.5-1.6,3.5-3.5c0-1.9-1.6-3.5-3.5-3.5c-1.9,0-3.5,1.6-3.5,3.5C63.5,13.6,65,15.1,67,15.1z"/>
	<path class="st3" d="M67,13.4c1,0,1.8-0.8,1.8-1.8S68,9.9,67,9.9c-1,0-1.8,0.8-1.8,1.8S66,13.4,67,13.4z"/>
	<path d="M67,13.1c0.8,0,1.4-0.6,1.4-1.4c0-0.8-0.6-1.4-1.4-1.4c-0.8,0-1.4,0.6-1.4,1.4C65.5,12.4,66.2,13.1,67,13.1z"/>
	<path class="st0" d="M70.6,17.5c0,0,0.8-0.4,1.2-0.1c0.4,0.3,0.6,0.6,1.3,0.3c0.7-0.2,2.4,0.2,2.7-0.1c0.3-0.3,0.9-1.7-2.6-1.8
		C69.8,15.8,70.6,17.5,70.6,17.5z"/>
	<path class="st2" d="M79.7,15.8c2.3,0,4.2-1.9,4.2-4.2c0-2.3-1.9-4.2-4.2-4.2s-4.2,1.9-4.2,4.2C75.6,14,77.4,15.8,79.7,15.8z"/>
	<path class="st5" d="M79.7,15.1c1.9,0,3.5-1.6,3.5-3.5c0-1.9-1.6-3.5-3.5-3.5c-1.9,0-3.5,1.6-3.5,3.5
		C76.2,13.6,77.8,15.1,79.7,15.1z"/>
	<path class="st3" d="M79.7,13.4c1,0,1.8-0.8,1.8-1.8s-0.8-1.8-1.8-1.8S78,10.7,78,11.7S78.8,13.4,79.7,13.4z"/>
	<path class="st4" d="M51.3,45.8c0,0-23.1,21.4-21.2,60c0,0,0.7,12.8,7.7,26.8c0,0,0-10.7,3.4-13.3c3.4-2.6,17.1-24.9,13.9-51.2
		C55,68.1,50.6,51.3,51.3,45.8z"/>
	<path d="M79.7,13.1c0.8,0,1.4-0.6,1.4-1.4c0-0.8-0.6-1.4-1.4-1.4c-0.8,0-1.4,0.6-1.4,1.4C78.3,12.4,79,13.1,79.7,13.1z"/>
	<path class="st2" d="M41.8,118.7c1-1.1,1.9-2.3,2.7-3.6c-1.7-1.2-3-2.9-3.8-4.9c-0.4-1-1.1-1.9-2.1-2.4c-0.9-0.5-2.1-0.7-3.1-0.4
		c-1.8,0.4-3.6,0.3-5.4-0.2c0.1,1.1,0.3,2.7,0.7,4.7c1.9,0.3,3.8,0.3,5.6-0.2C37.6,114.6,39.4,117,41.8,118.7z"/>
	<path class="st2" d="M43.3,99.3c-0.4-1-1.1-1.9-2-2.4s-2-0.7-3.1-0.4c-1.3,0.3-2.7,0.3-4.1,0.1c-1.4-0.3-2.6-0.8-3.8-1.5
		c-0.1,1.6-0.2,3.3-0.2,4.9c1.9,0.8,3.9,1.2,5.9,1.2c1.1,0,2.2-0.1,3.2-0.4c0.7,2,1.9,3.7,3.3,5.2s3.2,2.7,5.2,3.4
		c0.6-1.3,1.2-2.6,1.9-4.1c-1.4-0.5-2.7-1.3-3.8-2.4C44.6,102,43.8,100.7,43.3,99.3z"/>
	<path class="st2" d="M104.9,118.7c-1-1.1-1.9-2.3-2.7-3.6c1.7-1.2,3-2.9,3.8-4.9c0.4-1,1.1-1.9,2-2.4c0.9-0.5,2-0.7,3.1-0.4
		c1.8,0.4,3.6,0.3,5.4-0.2c-0.1,1.1-0.3,2.7-0.7,4.7c-1.9,0.3-3.8,0.3-5.6-0.2C109.1,114.6,107.3,117,104.9,118.7z"/>
	<path class="st2" d="M103.4,99.3c0.4-1,1.1-1.9,2-2.4c0.9-0.5,2.1-0.7,3.1-0.4c1.3,0.3,2.7,0.3,4.1,0.1c1.4-0.3,2.7-0.8,3.8-1.5
		c0.1,1.6,0.2,3.3,0.2,4.9c-2.9,1.2-6,1.5-9.1,0.9c-0.7,2-1.9,3.7-3.3,5.2c-1.5,1.5-3.2,2.7-5.2,3.4c-0.6-1.3-1.2-2.6-1.9-4.1
		c1.4-0.5,2.7-1.3,3.8-2.4C102.1,102,102.9,100.7,103.4,99.3z"/>
</g>
</svg>
