<?xml version="1.0" encoding="utf-8"?>
<!-- Generator: Adobe Illustrator 23.1.0, SVG Export Plug-In . SVG Version: 6.00 Build 0)  -->
<svg version="1.1" id="Layer_1" xmlns="http://www.w3.org/2000/svg" xmlns:xlink="http://www.w3.org/1999/xlink" x="0px" y="0px"
	 viewBox="0 0 136.4 136.4" style="enable-background:new 0 0 136.4 136.4;" xml:space="preserve">
<style type="text/css">
	.st0{fill:#869AB4;}
</style>
<polygon class="st0" points="318.8,68.2 268.7,102.3 218.6,136.4 218.6,68.2 218.6,0 268.7,34.1 "/>
<path class="st0" d="M31.8,126.1c-1.3,0-2.6-0.3-3.9-1c-2.7-1.4-4.4-4.2-4.4-7.3V18.6c0-3.1,1.7-5.9,4.4-7.3c1.2-0.6,2.5-1,3.9-1
	c1.6,0,3.2,0.5,4.6,1.4l72.9,49.6c2.3,1.5,3.6,4.1,3.6,6.8c0,2.7-1.3,5.3-3.6,6.8l-72.9,49.6C35,125.6,33.4,126.1,31.8,126.1z"/>
</svg>
