<?xml version="1.0" encoding="utf-8"?>
<!-- Generator: Adobe Illustrator 23.1.0, SVG Export Plug-In . SVG Version: 6.00 Build 0)  -->
<svg version="1.1" id="Layer_1" xmlns="http://www.w3.org/2000/svg" xmlns:xlink="http://www.w3.org/1999/xlink" x="0px" y="0px"
	 viewBox="0 0 62 62" style="enable-background:new 0 0 62 62;" xml:space="preserve">
<style type="text/css">
	.st0{fill:#879AB4;}
	.st1{fill:#EEF5F5;}
</style>
<path class="st0" d="M12.4,62C5.7,62,0.2,56.5,0.2,49.8V12.4c0-6.7,5.5-12.2,12.2-12.2h37.4C56.5,0.2,62,5.7,62,12.4v37.4
	C62,56.5,56.5,62,49.8,62H12.4z"/>
<path class="st1" d="M12.4,3.1h37.4c5.2,0,9.3,4.2,9.3,9.3v37.4c0,5.2-4.2,9.3-9.3,9.3H12.4c-5.2,0-9.3-4.2-9.3-9.3V12.4
	C3.1,7.3,7.3,3.1,12.4,3.1z"/>
<path class="st0" d="M44.5,24.7c-2.6-2.5-6-3.9-9.7-3.9h-2.9l4.2-4.1c1-1,1-2.5,0.1-3.5c-1-1-2.5-1-3.5-0.1L22.1,23.4l10.5,10.2
	c0.5,0.5,1.1,0.7,1.7,0.7c0.7,0,1.3-0.3,1.8-0.8c1-1,0.9-2.6-0.1-3.5l-4.2-4.1h2.9c2.3,0,4.6,0.9,6.2,2.5c1.6,1.6,2.5,3.6,2.5,5.8
	c0,2.2-0.9,4.3-2.5,5.8c-1.6,1.6-3.9,2.5-6.2,2.5H16c-1.4,0-2.5,1.1-2.5,2.5s1.1,2.5,2.5,2.5h18.8c3.6,0,7.1-1.4,9.7-3.9
	c2.6-2.5,4-5.9,4-9.4C48.5,30.7,47,27.2,44.5,24.7z"/>
</svg>
