<?xml version="1.0" encoding="utf-8"?>
<!-- Generator: Adobe Illustrator 23.1.0, SVG Export Plug-In . SVG Version: 6.00 Build 0)  -->
<svg version="1.1" id="Layer_1" xmlns="http://www.w3.org/2000/svg" xmlns:xlink="http://www.w3.org/1999/xlink" x="0px" y="0px"
	 viewBox="0 0 136.4 136.4" style="enable-background:new 0 0 136.4 136.4;" xml:space="preserve">
<style type="text/css">
	.st0{fill:#869AB4;}
</style>
<polygon class="st0" points="318.8,68.2 268.7,102.3 218.6,136.4 218.6,68.2 218.6,0 268.7,34.1 "/>
<path class="st0" d="M10.4,31.8c0-1.3,0.3-2.6,1-3.9c1.4-2.7,4.2-4.4,7.3-4.4h99.2c3.1,0,5.9,1.7,7.3,4.4c0.6,1.2,1,2.5,1,3.9
	c0,1.6-0.5,3.2-1.4,4.6L75,109.3c-1.5,2.3-4.1,3.6-6.8,3.6s-5.3-1.3-6.8-3.6L11.8,36.4C10.8,35,10.4,33.4,10.4,31.8z"/>
</svg>
