<?xml version="1.0" encoding="utf-8"?>
<!-- Generator: Adobe Illustrator 23.1.0, SVG Export Plug-In . SVG Version: 6.00 Build 0)  -->
<svg version="1.1" id="Layer_1" xmlns="http://www.w3.org/2000/svg" xmlns:xlink="http://www.w3.org/1999/xlink" x="0px" y="0px"
	 viewBox="0 0 774 926" style="enable-background:new 0 0 774 926;" xml:space="preserve">
<style type="text/css">
	.st0{fill:#758387;}
	.st1{fill:#8C959C;}
	.st2{fill:#9BA2AA;}
	.st3{fill:#BBBFC3;}
</style>
<path class="st0" d="M554.8,204.5c-2.3,0-4.5,0.4-6.5,1c-0.7-21.5-18.4-38.7-40-38.7c-1.3,0-2.6,0.1-3.9,0.2c0.8-2.9,1.2-5.9,1.2-9
	c0-19.2-15.5-34.7-34.7-34.7c-6,0-11.6,1.5-16.5,4.2c-9.8-18.7-29.4-31.5-52-31.5c-32.4,0-58.6,26.3-58.6,58.7
	c0,4.1,0.4,8.1,1.2,11.9c-5,1.5-9.2,4.8-11.9,9.1c-6.9-5.5-15.6-8.8-25.1-8.8c-22.1,0-40,17.9-40,40.1s17.9,40.1,40,40.1h246.8
	c11.7,0,21.2-9.5,21.2-21.2C576,214,566.5,204.5,554.8,204.5z"/>
<path class="st1" d="M581.2,215.4c-2.1,0-4.2,0.3-6.1,0.9c0.3-2.2,0.5-4.5,0.5-6.8c0-26.2-21.3-47.5-47.6-47.5
	c-20.9,0-38.6,13.4-45,32.1c-1.8-0.3-3.5-0.5-5.3-0.5c-17.5,0-31.7,14.2-31.7,31.7s14.2,31.7,31.7,31.7h103.5
	c11.5,0,20.8-9.3,20.8-20.8C602,224.7,592.7,215.4,581.2,215.4z"/>
<path class="st2" d="M466.7,467.4c-1.9,0-3.7,0.1-5.6,0.2c-3.3-50.1-45-89.7-96-89.7c-18.1,0-35.1,5-49.5,13.7
	c-11.5-43-50.7-74.6-97.2-74.6c-44.8,0-82.8,29.3-95.8,69.7c-24.7,1.4-45.2,18.1-52.4,40.7C30,436.6,0,472.6,0,515.6
	C0,565.5,40.5,606,90.5,606h376.2c38.3,0,69.3-31,69.3-69.3C536,498.5,505,467.4,466.7,467.4z"/>
<path class="st3" d="M738.5,623.8c-3.8,0-7.5,0.6-11,1.7c-1.2-36-30.8-64.9-67-64.9c-2.2,0-4.4,0.1-6.5,0.3c1.3-4.8,2-9.8,2-15
	c0-32.1-26-58.2-58.1-58.2c-10,0-19.4,2.5-27.7,7c-16.4-31.3-49.2-52.7-87-52.7c-54.2,0-98.2,44-98.2,98.3c0,6.8,0.7,13.6,2.1,20
	c-8.3,2.5-15.4,8-19.9,15.2c-11.5-9.3-26.1-14.8-42-14.8c-37,0-67.1,30-67.1,67.2c0,37.1,30.1,67.2,67.1,67.2h413.4
	c19.6,0,35.5-15.9,35.5-35.6C774,639.8,758.1,623.8,738.5,623.8z"/>
</svg>
