<?xml version="1.0" encoding="utf-8"?>
<!-- Generator: Adobe Illustrator 23.1.0, SVG Export Plug-In . SVG Version: 6.00 Build 0)  -->
<svg version="1.1" id="Layer_1" xmlns="http://www.w3.org/2000/svg" xmlns:xlink="http://www.w3.org/1999/xlink" x="0px" y="0px"
	 viewBox="0 0 273.8 133.2" style="enable-background:new 0 0 273.8 133.2;" xml:space="preserve">
<style type="text/css">
	.st0{fill:#EEF5F5;}
	.st1{fill:url(#SVGID_1_);}
</style>
<g>
	<path class="st0" d="M245.6,133.2c-6.4,0-12.1-1.3-17-4c-1.3-0.7-2.6-1.5-3.7-2.4c-2,3.4-5.6,5.7-9.9,5.7H201
		c-3.6,0-6.9-1.7-9.1-4.5c-2.1,2.7-5.4,4.5-9.1,4.5h-9.7c-1.3,0-2.6-0.2-3.7-0.6c-1.2,0.4-2.4,0.6-3.7,0.6h-22.2c-4,0-7.5-2-9.5-5.2
		c-0.9,0.5-1.7,1-2.7,1.4c-5.2,2.5-11.2,3.7-18,3.7H99.5c-1.9,0-3.8-0.5-5.4-1.4c-1.6,0.9-3.4,1.4-5.4,1.4H74.7
		c-3.6,0-6.9-1.7-9.1-4.5c-2.1,2.7-5.4,4.5-9.1,4.5h-9.7c-1.6,0-3.1-0.3-4.4-0.9c-1.4,0.6-2.8,0.9-4.4,0.9H11.3
		c-6.3,0-11.3-5.1-11.3-11.3V75.5c0-6.3,5.1-11.3,11.3-11.3H38c1.6,0,3.1,0.3,4.4,0.9c1.4-0.6,2.8-0.9,4.4-0.9h14
		c3.6,0,6.9,1.7,9.1,4.5c0.2-0.3,0.4-0.5,0.6-0.8c-4.4-1.5-7.6-5.8-7.6-10.7V11.5c0-6.3,5.1-11.3,11.3-11.3h15
		c5.4,0,9.8,0.6,13.7,1.7c5,1.5,9,4.1,11.8,7.6c0.4,0.5,0.7,0.9,1,1.4l1.1-3.2c1.6-4.6,5.9-7.7,10.7-7.7h14c4.7,0,8.9,2.9,10.6,7.3
		c1.7-4.2,5.8-7.1,10.5-7.1h15c6.6,0,12.4,1.3,17.4,3.7c5.5,2.7,9.9,6.8,12.8,12c2.9,5,4.3,10.9,4.3,17.7c0,7.1-1.5,13.4-4.4,18.6
		c-3.1,5.6-7.7,9.8-13.5,12.6c-0.6,0.3-1.1,0.5-1.7,0.8c1.4,0.8,2.6,1.8,3.6,3.1c2.1-2.7,5.4-4.5,9.1-4.5h9.8
		c4.5,0,8.3,2.6,10.2,6.3c1.3-1,2.7-1.9,4.2-2.7c5.3-2.8,11.5-4.2,18.5-4.2c3.4,0,6.7,0.3,9.9,1c3.3,0.7,6.3,1.6,8.9,2.8
		c5.5,2.5,8.1,9,5.8,14.6l-2,5c2.1,2.1,3.4,4.9,3.4,8.1v24.1c0,4.9-3.1,9.2-7.7,10.7c-2.9,1-6.1,1.8-9.4,2.4c0,0-0.1,0-0.1,0
		C253.2,132.9,249.5,133.2,245.6,133.2z M129.7,66.9c0.8,0.3,1.5,0.6,2.3,1c0.7,0.4,1.4,0.7,2.1,1.1c0.9-1.4,2.2-2.5,3.6-3.3
		c-1.4-1.3-2.6-2.9-3.2-4.8C133.7,63.5,131.9,65.6,129.7,66.9z"/>
	
		<linearGradient id="SVGID_1_" gradientUnits="userSpaceOnUse" x1="136.9697" y1="146.539" x2="136.9697" y2="-4.961" gradientTransform="matrix(1 0 0 -1 -4.510834e-02 133.7651)">
		<stop  offset="0" style="stop-color:#8E191B"/>
		<stop  offset="1" style="stop-color:#C9B896"/>
	</linearGradient>
	<path class="st1" d="M89.2,11.5c4.2,0,7.7,0.4,10.4,1.2c2.7,0.8,4.8,2.1,6.1,3.8c1.3,1.7,2,3.8,2,6.5c0,1.8-0.3,3.5-1,4.9
		c-0.6,1.4-1.5,2.5-2.6,3.4c-1.1,0.9-2.3,1.4-3.6,1.7v0.3c1.4,0.3,2.7,0.8,3.9,1.6c1.2,0.7,2.2,1.8,3,3.3c0.8,1.5,1.2,3.4,1.2,5.8
		c0,2.8-0.7,5.2-2.1,7.2c-1.4,2-3.3,3.5-5.9,4.6c-2.6,1-5.6,1.5-9.1,1.5H74.2V11.5H89.2z M89.9,29.4c2.4,0,4.1-0.4,5.1-1.3
		c1-0.9,1.5-2.1,1.5-3.6c0-1.5-0.6-2.6-1.7-3.3c-1.1-0.7-2.9-1.1-5.3-1.1h-4.4v9.3H89.9z M85.1,37.7v10.8h5.4c2.6,0,4.3-0.5,5.3-1.5
		c1-1,1.5-2.4,1.5-4c0-1-0.2-1.9-0.6-2.7c-0.4-0.8-1.2-1.4-2.2-1.9c-1-0.5-2.4-0.7-4.2-0.7H85.1z M145.3,57.2l-2.8-9.8h-15.8
		l-2.8,9.8h-11.9l15.6-45.9h14l15.7,45.9H145.3z M137.3,29.2c-0.2-0.8-0.5-1.8-0.9-3.1c-0.3-1.3-0.7-2.7-1.1-4
		c-0.3-1.4-0.6-2.5-0.8-3.5c-0.2,0.9-0.4,2.1-0.8,3.5c-0.3,1.4-0.7,2.7-1,4c-0.3,1.3-0.6,2.3-0.8,3l-2.7,9.2H140L137.3,29.2z
		 M200.8,33.7c0,5.2-1,9.6-2.9,13.1c-2,3.5-4.8,6.1-8.4,7.9c-3.7,1.7-8,2.6-13.1,2.6h-13.8V11.5h15c4.8,0,9,0.9,12.4,2.6
		c3.5,1.7,6.2,4.2,8,7.5C199.9,24.8,200.8,28.9,200.8,33.7z M189.6,34.1c0-3.1-0.4-5.7-1.3-7.7c-0.9-2-2.2-3.5-3.9-4.5
		c-1.7-1-3.8-1.5-6.4-1.5h-4.5v27.8h3.5c4.3,0,7.5-1.2,9.5-3.5C188.5,42.4,189.6,38.8,189.6,34.1z M38,121.2H11.3V75.5H38v8.8H22.2
		v8.8h14.7v8.8H22.2v10.3H38V121.2z M88.8,121.2H74.7L56.2,87.8H56c0,0.9,0.1,1.9,0.1,2.9c0.1,1,0.1,2.1,0.2,3.2
		c0,1.1,0.1,2.1,0.1,3.2c0,1,0.1,2,0.1,3v21.1h-9.7V75.5h14l18.4,33.1h0.2c0-0.9-0.1-1.8-0.1-2.8c0-1-0.1-2-0.1-3.1
		c0-1.1-0.1-2.1-0.1-3.1c0-1,0-2-0.1-2.9V75.5h9.8V121.2z M137.8,97.7c0,5.2-1,9.6-2.9,13.1c-2,3.5-4.8,6.1-8.4,7.9
		c-3.7,1.7-8,2.6-13.1,2.6H99.5V75.5h15c4.8,0,9,0.9,12.4,2.6c3.5,1.7,6.2,4.2,8,7.5C136.9,88.8,137.8,92.9,137.8,97.7z M126.5,98.1
		c0-3.1-0.4-5.7-1.3-7.7c-0.9-2-2.2-3.5-3.9-4.5c-1.7-1-3.8-1.5-6.4-1.5h-4.5v27.8h3.5c4.3,0,7.5-1.2,9.5-3.5
		C125.5,106.4,126.5,102.8,126.5,98.1z M165.7,121.2h-22.2V115l5.6-2.4V84.1l-5.6-2.4v-6.2h22.2v6.2l-5.6,2.4v28.5l5.6,2.4V121.2z
		 M215.1,121.2H201l-18.4-33.5h-0.3c0,0.9,0.1,1.9,0.1,2.9c0.1,1,0.2,2.1,0.2,3.2c0,1.1,0.1,2.1,0.1,3.2c0,1,0.1,2,0.1,3v21.1h-9.7
		V75.5h14l18.4,33.1h0.2c0-0.9-0.1-1.8-0.1-2.8c0-1-0.1-2-0.1-3.1c0-1.1-0.1-2.1-0.1-3.1c0-1,0-2-0.1-2.9V75.5h9.8V121.2z
		 M243.6,95.1h18.9v24.1c-2.4,0.8-5,1.5-7.8,2c-2.8,0.5-5.8,0.7-9.1,0.7c-4.5,0-8.3-0.9-11.6-2.6c-3.2-1.7-5.7-4.4-7.5-7.9
		c-1.7-3.5-2.6-7.9-2.6-13.1c0-4.8,0.9-8.9,2.8-12.4c1.8-3.5,4.5-6.2,8.1-8.1c3.6-1.9,8-2.9,13.1-2.9c2.6,0,5.1,0.3,7.6,0.8
		c2.5,0.5,4.6,1.2,6.5,2l-3.5,8.6c-1.5-0.8-3.1-1.4-4.9-1.8c-1.8-0.4-3.7-0.6-5.6-0.6c-2.8,0-5.1,0.6-7,1.9c-1.9,1.2-3.3,3-4.2,5.2
		c-0.9,2.2-1.4,4.7-1.4,7.5c0,2.9,0.4,5.5,1.2,7.6c0.8,2.1,2,3.8,3.6,5c1.7,1.2,3.8,1.7,6.3,1.7c0.7,0,1.4,0,2.1-0.1
		c0.7-0.1,1.3-0.2,1.9-0.3c0.6-0.1,1.1-0.2,1.6-0.3v-8.4h-8.4V95.1z"/>
</g>
</svg>
