<?xml version="1.0" encoding="utf-8"?>
<!-- Generator: Adobe Illustrator 23.1.0, SVG Export Plug-In . SVG Version: 6.00 Build 0)  -->
<svg version="1.1" id="Layer_1" xmlns="http://www.w3.org/2000/svg" xmlns:xlink="http://www.w3.org/1999/xlink" x="0px" y="0px"
	 viewBox="0 0 273.8 133.2" style="enable-background:new 0 0 273.8 133.2;" xml:space="preserve">
<style type="text/css">
	.st0{fill:#EEF5F5;}
	.st1{fill:url(#SVGID_1_);}
</style>
<path class="st0" d="M245.6,133.2c-6.4,0-12.1-1.3-17-4c-1.3-0.7-2.6-1.5-3.7-2.4c-2,3.4-5.6,5.7-9.9,5.7H201
	c-3.6,0-6.9-1.7-9.1-4.5c-2.1,2.7-5.4,4.5-9.1,4.5h-9.7c-1.3,0-2.6-0.2-3.7-0.6c-1.2,0.4-2.4,0.6-3.7,0.6h-22.2c-4,0-7.5-2-9.5-5.2
	c-0.9,0.5-1.7,1-2.7,1.4c-5.2,2.5-11.2,3.7-18,3.7H99.5c-1.9,0-3.8-0.5-5.4-1.4c-1.6,0.9-3.4,1.4-5.4,1.4H74.7
	c-3.6,0-6.9-1.7-9.1-4.5c-2.1,2.7-5.4,4.5-9.1,4.5h-9.7c-1.6,0-3.1-0.3-4.4-0.9c-1.4,0.6-2.8,0.9-4.4,0.9H11.3
	c-6.3,0-11.3-5.1-11.3-11.3V75.5c0-6.3,5.1-11.3,11.3-11.3h13.8c-1.5-1.9-2.4-4.3-2.4-7V11.5c0-6.3,5.1-11.3,11.3-11.3H45
	c3.2,0,6.1,1.3,8.2,3.5c2.1-2.2,5-3.5,8.2-3.5h10.9c4.7,0,8.7,2.8,10.4,6.8c1.7-4.2,5.9-7,10.5-7h14c4.7,0,8.9,2.9,10.6,7.3
	c1.7-4.2,5.8-7.1,10.5-7.1h15.2c6.6,0,12.2,1.3,16.6,3.9c2.1-2.4,5.1-3.9,8.5-3.9h15.2c4.9,0,9.3,0.7,13.1,2.2
	c1.9-1.4,4.3-2.2,6.7-2.2h11.8c3.4,0,6.6,1.5,8.7,4.1c2.1-2.6,5.3-4.1,8.7-4.1h11.8c4,0,7.7,2.1,9.7,5.5c2,3.4,2.1,7.7,0.2,11.2
	l-13.7,25.4v14.9c0,2.8-1,5.4-2.7,7.4c3.1-0.7,6.3-1,9.8-1c3.4,0,6.7,0.3,9.9,1c3.3,0.7,6.3,1.6,8.9,2.8c5.5,2.5,8.1,9,5.8,14.6
	l-2,5c2.1,2.1,3.4,4.9,3.4,8.1v24.1c0,4.9-3.1,9.2-7.7,10.7c-2.9,1-6.1,1.8-9.4,2.4c0,0-0.1,0-0.1,0
	C253.2,132.9,249.5,133.2,245.6,133.2z M224,68.6c0.5,0.6,0.9,1.2,1.2,1.9c0.9-0.7,1.8-1.3,2.8-1.9H224z M133.2,68.6
	c0.3,0.2,0.6,0.3,0.9,0.5c0.1-0.2,0.2-0.3,0.4-0.5H133.2z M69.9,68.7c0,0,0.1-0.1,0.1-0.1h-0.2C69.8,68.6,69.9,68.7,69.9,68.7z
	 M188.3,64.3c3.1,0.3,6,1.9,7.9,4.5c2.1-2.7,5.4-4.5,9.1-4.5h4.4c-1.5-1.9-2.4-4.3-2.4-7V42.6l-0.2-0.3c-0.6,0.8-1.2,1.5-1.9,2.3
	c-2.5,2.7-5.8,4.8-9.6,6.2c-1.5,0.6-3.1,1-4.8,1.3v5.1C190.8,59.9,189.9,62.3,188.3,64.3z M100.2,60.9c-0.4,1.2-1,2.3-1.8,3.3
	c0.4,0,0.7-0.1,1.1-0.1h2.5C101.3,63.2,100.7,62.1,100.2,60.9z M159.6,64.2c-1.5-1.9-2.4-4.3-2.4-7V50c-0.6,0.3-1.3,0.6-2,0.8
	c-1.5,0.6-3.1,1-4.8,1.3v5.1c0,2.6-0.9,5-2.4,7H159.6z"/>
<linearGradient id="SVGID_1_" gradientUnits="userSpaceOnUse" x1="136.9697" y1="146.539" x2="136.9697" y2="-4.961" gradientTransform="matrix(1 0 0 -1 -4.510834e-02 133.7651)">
	<stop  offset="0" style="stop-color:#8E191B"/>
	<stop  offset="1" style="stop-color:#C9B896"/>
</linearGradient>
<path class="st1" d="M72.3,57.2H61.4V38H45v19.2H34.1V11.5H45V29h16.4V11.5h10.9V57.2z M111,57.2l-2.8-9.8H92.3l-2.8,9.8H77.6
	l15.6-45.9h14l15.7,45.9H111z M103,29.2c-0.2-0.8-0.5-1.8-0.9-3.1c-0.3-1.3-0.7-2.7-1.1-4c-0.3-1.4-0.6-2.5-0.8-3.5
	c-0.2,0.9-0.4,2.1-0.8,3.5c-0.3,1.4-0.7,2.7-1,4c-0.3,1.3-0.6,2.3-0.8,3l-2.7,9.2h10.9L103,29.2z M143.4,11.5
	c5.8,0,10.2,1.3,12.9,3.8c2.8,2.5,4.2,6,4.2,10.6c0,2-0.3,4-0.9,5.9c-0.6,1.8-1.6,3.5-3,4.9c-1.4,1.5-3.2,2.6-5.4,3.5
	c-2.2,0.9-5,1.3-8.3,1.3h-3.8v15.7h-10.9V11.5H143.4z M143,20.4h-3.9v12.2h2.9c1.5,0,2.8-0.2,3.9-0.6c1.2-0.4,2-1.1,2.7-2
	c0.6-0.9,1-2.2,1-3.6c0-1.9-0.5-3.3-1.6-4.3C146.9,20.9,145.2,20.4,143,20.4z M183.7,11.5c5.8,0,10.2,1.3,12.9,3.8
	c2.8,2.5,4.2,6,4.2,10.6c0,2-0.3,4-0.9,5.9c-0.6,1.8-1.6,3.5-3,4.9c-1.4,1.5-3.2,2.6-5.4,3.5c-2.2,0.9-5,1.3-8.3,1.3h-3.8v15.7
	h-10.9V11.5H183.7z M183.3,20.4h-3.9v12.2h2.9c1.5,0,2.8-0.2,3.9-0.6c1.2-0.4,2-1.1,2.7-2c0.6-0.9,1-2.2,1-3.6
	c0-1.9-0.5-3.3-1.6-4.3C187.2,20.9,185.6,20.4,183.3,20.4z M224,29.5l8.8-18h11.8l-15.1,27.9v17.8h-10.9V39.8l-15.1-28.2h11.8
	L224,29.5z M38,121.2H11.3V75.5H38v8.8H22.2v8.8h14.7v8.8H22.2v10.3H38V121.2z M88.8,121.2H74.7L56.2,87.8H56c0,0.9,0.1,1.9,0.1,2.9
	c0.1,1,0.1,2.1,0.2,3.2c0,1.1,0.1,2.1,0.1,3.2c0,1,0.1,2,0.1,3v21.1h-9.7V75.5h14l18.4,33.1h0.2c0-0.9-0.1-1.8-0.1-2.8
	c0-1-0.1-2-0.1-3.1c0-1.1-0.1-2.1-0.1-3.1c0-1,0-2-0.1-2.9V75.5h9.8V121.2z M137.8,97.7c0,5.2-1,9.6-2.9,13.1
	c-2,3.5-4.8,6.1-8.4,7.9c-3.7,1.7-8,2.6-13.1,2.6H99.5V75.5h15c4.8,0,9,0.9,12.4,2.6c3.5,1.7,6.2,4.2,8,7.5
	C136.9,88.8,137.8,92.9,137.8,97.7z M126.5,98.1c0-3.1-0.4-5.7-1.3-7.7c-0.9-2-2.2-3.5-3.9-4.5c-1.7-1-3.8-1.5-6.4-1.5h-4.5v27.8
	h3.5c4.3,0,7.5-1.2,9.5-3.5C125.5,106.4,126.5,102.8,126.5,98.1z M165.7,121.2h-22.2V115l5.6-2.4V84.1l-5.6-2.4v-6.2h22.2v6.2
	l-5.6,2.4v28.5l5.6,2.4V121.2z M215.1,121.2H201l-18.4-33.5h-0.3c0,0.9,0.1,1.9,0.1,2.9c0.1,1,0.2,2.1,0.2,3.2
	c0,1.1,0.1,2.1,0.1,3.2c0,1,0.1,2,0.1,3v21.1h-9.7V75.5h14l18.4,33.1h0.2c0-0.9-0.1-1.8-0.1-2.8c0-1-0.1-2-0.1-3.1
	c0-1.1-0.1-2.1-0.1-3.1c0-1,0-2-0.1-2.9V75.5h9.8V121.2z M243.6,95.1h18.9v24.1c-2.4,0.8-5,1.5-7.8,2c-2.8,0.5-5.8,0.7-9.1,0.7
	c-4.5,0-8.3-0.9-11.6-2.6c-3.2-1.7-5.7-4.4-7.5-7.9c-1.7-3.5-2.6-7.9-2.6-13.1c0-4.8,0.9-8.9,2.8-12.4c1.8-3.5,4.5-6.2,8.1-8.1
	c3.6-1.9,8-2.9,13.1-2.9c2.6,0,5.1,0.3,7.6,0.8c2.5,0.5,4.6,1.2,6.5,2l-3.5,8.6c-1.5-0.8-3.1-1.4-4.9-1.8c-1.8-0.4-3.7-0.6-5.6-0.6
	c-2.8,0-5.1,0.6-7,1.9c-1.9,1.2-3.3,3-4.2,5.2c-0.9,2.2-1.4,4.7-1.4,7.5c0,2.9,0.4,5.5,1.2,7.6c0.8,2.1,2,3.8,3.6,5
	c1.7,1.2,3.8,1.7,6.3,1.7c0.7,0,1.4,0,2.1-0.1c0.7-0.1,1.3-0.2,1.9-0.3c0.6-0.1,1.1-0.2,1.6-0.3v-8.4h-8.4V95.1z"/>
</svg>
