<?xml version="1.0" encoding="utf-8"?>
<!-- Generator: Adobe Illustrator 23.1.0, SVG Export Plug-In . SVG Version: 6.00 Build 0)  -->
<svg version="1.1" id="Layer_1" xmlns="http://www.w3.org/2000/svg" xmlns:xlink="http://www.w3.org/1999/xlink" x="0px" y="0px"
	 viewBox="0 0 62 62" style="enable-background:new 0 0 62 62;" xml:space="preserve">
<style type="text/css">
	.st0{fill:#9B8C8A;}
	.st1{fill:none;stroke:#EDE7E4;stroke-linecap:round;stroke-linejoin:round;stroke-miterlimit:10;}
	.st2{fill:#EDE7E4;stroke:#EDE7E4;stroke-linecap:round;stroke-linejoin:round;stroke-miterlimit:10;}
	.st3{fill:#EDE7E4;stroke:#EDE7E4;stroke-miterlimit:10;}
</style>
<rect class="st0" width="62" height="62"/>
<path class="st1" d="M29.8,33.4c-6.7-2.4-14.2-0.9-19.9,1l3.3-9l3.3-9c3.2,5.1,7.9,11.1,14.6,13.5L29.8,33.4z"/>
<path class="st2" d="M17.5,17.5l-6.1,16.7c-0.2,0.6-0.8,0.9-1.3,0.7c-0.5-0.2-0.8-0.8-0.6-1.4l6.1-16.7c0.2-0.6,0.8-0.9,1.3-0.7
	C17.5,16.2,17.7,16.9,17.5,17.5z"/>
<path class="st1" d="M48.7,37.5l-0.5,1.3C48.2,39,48,39.1,47.8,39l-16.9-5.5l1.1-3.1l16.5,6.6C48.7,37.1,48.8,37.3,48.7,37.5z"/>
<path class="st2" d="M47.9,38.7l0.5-1.3c0.1-0.2,0.1-0.3,0.2-0.3l1.6,0.1c0.3,0,0.5,0.3,0.4,0.6l-0.7,2c-0.1,0.3-0.4,0.4-0.7,0.2
	l-1.3-0.9C47.8,39,47.9,38.9,47.9,38.7z"/>
<path class="st2" d="M32.2,30.4L31,33.6c-0.1,0.4-0.5,0.5-0.8,0.4l-0.5-0.2c-0.3-0.1-0.5-0.5-0.3-0.8l1.2-3.3
	c0.1-0.4,0.5-0.5,0.8-0.4l0.5,0.2C32.2,29.7,32.3,30,32.2,30.4z"/>
</svg>
