<?xml version="1.0" encoding="utf-8"?>
<!-- Generator: Adobe Illustrator 23.1.0, SVG Export Plug-In . SVG Version: 6.00 Build 0)  -->
<svg version="1.1" id="Layer_1" xmlns="http://www.w3.org/2000/svg" xmlns:xlink="http://www.w3.org/1999/xlink" x="0px" y="0px"
	 viewBox="0 0 62 62" style="enable-background:new 0 0 62 62;" xml:space="preserve">
<style type="text/css">
	.st0{fill:#9B8C8A;}
	.st1{fill:#EDE7E4;stroke:#EDE7E4;stroke-miterlimit:10;}
	.st2{fill:#9B8C8A;stroke:#EDE7E4;stroke-miterlimit:10;}
	.st3{fill:#EDE7E4;}
	.st4{fill:none;stroke:#EDE7E4;stroke-linecap:round;stroke-linejoin:round;stroke-miterlimit:10;}
</style>
<rect y="0" class="st0" width="62" height="62"/>
<g>
	<path class="st1" d="M46.2,51l-20.7-2.5c-1,0-1.8-0.7-1.8-1.6V12.6c0-0.9,0.8-1.6,1.8-1.6l20.7,2.5c1,0,1.8,0.7,1.8,1.6v34.2
		C48,50.3,47.2,51,46.2,51z"/>
	<path class="st2" d="M46.2,51H21.8c-1,0-1.8-0.7-1.8-1.6V15.1c0-0.9,0.8-1.6,1.8-1.6h24.4c1,0,1.8,0.7,1.8,1.6v34.2
		C48,50.3,47.2,51,46.2,51z"/>
	<path class="st3" d="M24.6,34.5c1.2,0,2.2-0.9,2.2-2s-1-2-2.2-2s-2.2,0.9-2.2,2S23.4,34.5,24.6,34.5z"/>
	<path class="st2" d="M29.8,33.3h-4.4c-0.4,0-0.7-0.3-0.7-0.7v-0.3c0-0.4,0.3-0.7,0.7-0.7h4.4c0.4,0,0.7,0.3,0.7,0.7v0.3
		C30.6,33,30.3,33.3,29.8,33.3z"/>
	<path class="st4" d="M17.7,39.3l-0.6,1.8l-1.5-4.6l-4.2,2.9l1.7-4.6L8,35l4.4-2.7L8,29.5l5.3,0.1L11.6,25l4.2,2.9l1.5-4.6l0.6,1.8"
		/>
</g>
</svg>
