<?xml version="1.0" encoding="utf-8"?>
<!-- Generator: Adobe Illustrator 23.1.0, SVG Export Plug-In . SVG Version: 6.00 Build 0)  -->
<svg version="1.1" id="Layer_1" xmlns="http://www.w3.org/2000/svg" xmlns:xlink="http://www.w3.org/1999/xlink" x="0px" y="0px"
	 viewBox="0 0 62 62" style="enable-background:new 0 0 62 62;" xml:space="preserve">
<style type="text/css">
	.st0{fill:#9B8C8A;}
	.st1{fill:none;stroke:#EDE7E4;stroke-linecap:round;stroke-linejoin:round;stroke-miterlimit:10;}
	.st2{fill:#EDE7E4;stroke:#EDE7E4;stroke-linecap:round;stroke-linejoin:round;stroke-miterlimit:10;}
	.st3{fill:#EDE7E4;stroke:#EDE7E4;stroke-miterlimit:10;}
</style>
<rect class="st0" width="62" height="62"/>
<g>
	<path class="st1" d="M38,17.9l-6.5,6.5"/>
	<path class="st1" d="M40.6,21.4l-8.9,9"/>
	<path class="st2" d="M20.1,30.4c-1.1-3.1-3.3-5.9-6.1-7.2c2.8-1.3,5-4.1,6.1-7.2c1.1,3.1,3.3,5.9,6.1,7.2
		C23.3,24.5,21.1,27.3,20.1,30.4z"/>
	<path class="st2" d="M16.6,18.3c-0.4-1-1.1-1.9-2-2.3c0.9-0.4,1.6-1.3,2-2.3c0.4,1,1.1,1.9,2,2.3C17.6,16.4,16.9,17.3,16.6,18.3z"
		/>
	<path class="st1" d="M45.3,27.6C45.3,19,39.2,12,31.6,12c-3.6,0-6.8,1.6-9.2,4.1c0.5,1.1,1.1,2.1,1.8,2.9c1.9-2.3,4.5-3.7,7.4-3.7
		c5.7,0,10.4,5.5,10.4,12.3C42,34.5,37.4,40,31.7,40c-4.5,0-8.4-3.5-9.8-8.3c-0.4,0.6-1.1,0.9-1.8,0.9c-0.6,0-1.1-0.2-1.5-0.6
		c1.4,5.6,5.5,9.9,10.6,11l-0.6,5.6c-0.2,1.8,1.2,3.4,3,3.4c1.8,0,3.3-1.6,3-3.4L34,43C40.4,41.7,45.3,35.3,45.3,27.6z M31.6,50
		c-0.6,0-1.1-0.5-1.1-1.1c0-0.6,0.5-1.1,1.1-1.1c0.6,0,1.1,0.5,1.1,1.1C32.7,49.5,32.2,50,31.6,50z"/>
</g>
</svg>
