<?xml version="1.0" encoding="utf-8"?>
<!-- Generator: Adobe Illustrator 23.1.0, SVG Export Plug-In . SVG Version: 6.00 Build 0)  -->
<svg version="1.1" id="Layer_1" xmlns="http://www.w3.org/2000/svg" xmlns:xlink="http://www.w3.org/1999/xlink" x="0px" y="0px"
	 viewBox="0 0 62 62" style="enable-background:new 0 0 62 62;" xml:space="preserve">
<style type="text/css">
	.st0{fill:#EDE7E4;}
	.st1{fill:none;stroke:#9B8C8A;stroke-linecap:round;stroke-linejoin:round;stroke-miterlimit:10;}
	.st2{fill:#9B8C8A;stroke:#9B8C8A;stroke-linecap:round;stroke-linejoin:round;stroke-miterlimit:10;}
</style>
<rect y="0.5" class="st0" width="62" height="61.5"/>
<g>
	<path class="st1" d="M51,46c0,0-5.3-26.1-9.2-27.6L45,16H29.2c0,0-8.2-0.5-9.6,5.3c0,0-7.1,2.6-6.9,6.3v2.5l1.6-2.5l8.8,1.1
		c0,0,0.6-2.3-0.4-4.7"/>
	<path class="st1" d="M19.1,28.3c0,0-1.2,4.5-2,9.6"/>
	<path class="st2" d="M20.5,19.3H34c0,0-4,4.5-11.3,4.8c0,0-0.5-1.7-3.1-2.8C19.6,21.4,19.8,19.3,20.5,19.3z"/>
	<path class="st1" d="M11,46c0,0,4.6-13.6,23-13.6"/>
</g>
</svg>
