<?xml version="1.0" encoding="utf-8"?>
<!-- Generator: Adobe Illustrator 23.1.0, SVG Export Plug-In . SVG Version: 6.00 Build 0)  -->
<svg version="1.1" id="Layer_1" xmlns="http://www.w3.org/2000/svg" xmlns:xlink="http://www.w3.org/1999/xlink" x="0px" y="0px"
	 viewBox="0 0 250 250" style="enable-background:new 0 0 250 250;" xml:space="preserve">
<style type="text/css">
	.st0{fill:url(#SVGID_1_);}
	.st1{fill:url(#SVGID_2_);}
	.st2{fill:url(#SVGID_3_);}
	.st3{fill:url(#SVGID_4_);}
	.st4{fill:#2B0606;}
	.st5{fill:none;stroke:#110000;stroke-miterlimit:10;}
	.st6{fill:#110000;}
	.st7{fill:#FFEDD4;}
</style>
<g>
	<g>
		<g>
			<g>
				
					<radialGradient id="SVGID_1_" cx="-832.7444" cy="668.1819" r="0.9993" gradientTransform="matrix(8.235750e-15 134.5 134.5 -8.235750e-15 -89744.9922 112118.8984)" gradientUnits="userSpaceOnUse">
					<stop  offset="0" style="stop-color:#E4D9C2"/>
					<stop  offset="0.2006" style="stop-color:#E1D6BF"/>
					<stop  offset="0.3675" style="stop-color:#D6CCB7"/>
					<stop  offset="0.5224" style="stop-color:#C5BAA8"/>
					<stop  offset="0.67" style="stop-color:#ADA294"/>
					<stop  offset="0.8124" style="stop-color:#8D837A"/>
					<stop  offset="0.9492" style="stop-color:#675D5A"/>
					<stop  offset="1" style="stop-color:#574D4D"/>
				</radialGradient>
				<path class="st0" d="M125,249.3c3.5,0,6.9,0.2,10.3-0.1c3.5-0.3,7,0,10.3-0.6c3.4-0.6,6.9-0.8,10.3-1.6c3.4-0.8,6.4-2.8,9.6-3.9
					c3.3-1.1,6.7-1.7,9.9-3.1c3.2-1.4,5.7-4,8.7-5.7c3-1.6,5.8-3.6,8.7-5.5c2.9-1.9,6.8-2.3,9.5-4.4c2.7-2.1,5.3-4.5,7.9-6.8
					c2.5-2.3,5.1-4.8,7.4-7.3c2.3-2.5,4.4-5.4,6.5-8.1c2.1-2.7,3.1-6.3,4.9-9.2c1.9-2.9,4.7-5.2,6.4-8.2c1.6-3,3-6.2,4.4-9.4
					c1.4-3.1,2.2-6.5,3.4-9.8c1.1-3.2,1.4-6.7,2.2-10.1c0.8-3.3,1.8-6.6,2.3-10c0.6-3.4,1.2-6.7,1.5-10.2c0.3-3.4,0.9-6.8,0.9-10.3
					c0-3.5-0.3-6.9-0.6-10.3c-0.3-3.5-0.5-6.9-1.1-10.3c-0.6-3.4-1.1-6.9-1.9-10.2c-0.8-3.4-1.4-6.8-2.5-10.1
					c-1.1-3.3-3.5-6.1-4.9-9.2c-1.4-3.2-1.9-6.8-3.5-9.8c-1.6-3-3.3-6.1-5.2-9c-1.9-2.9-4.2-5.6-6.3-8.3c-2.1-2.7-5.5-4.4-7.8-6.9
					c-2.3-2.5-4.6-5.1-7.1-7.4c-2.5-2.3-5.2-4.4-7.9-6.6c-2.7-2.1-5.4-4.2-8.2-6.1c-2.9-1.9-5.5-4.2-8.5-5.8c-3-1.6-5.8-3.8-9-5.2
					c-3.1-1.4-6.6-2.1-9.9-3.2c-3.2-1.1-6.7-1.5-10.1-2.4c-3.3-0.8-6.5-2.6-9.9-3.2c-3.4-0.6-6.8-1.1-10.3-1.4
					c-3.4-0.3-6.9-0.4-10.4-0.4c-3.5,0-6.9,1.5-10.3,1.8c-3.5,0.3-7-0.4-10.4,0.1c-3.4,0.6-6.6,2.3-9.9,3.1C91,5,87.5,5.1,84.2,6.3
					c-3.3,1.1-6.3,2.9-9.4,4.3c-3.2,1.4-6.7,2.1-9.7,3.7c-3,1.6-5.5,4.3-8.4,6.2c-2.9,1.9-5.4,4.3-8.1,6.4c-2.7,2.1-5,4.6-7.6,6.9
					c-2.5,2.3-6,3.7-8.4,6.2c-2.3,2.5-3.7,5.9-5.8,8.6c-2.1,2.7-5.3,4.7-7.2,7.6c-1.9,2.9-3.3,6.1-4.9,9.1c-1.6,3-2.8,6.3-4.2,9.5
					c-1.4,3.1-2.1,6.5-3.2,9.8c-1.1,3.2-3.4,6.1-4.3,9.5c-0.8,3.3-0.6,6.9-1.2,10.3c-0.6,3.4-0.6,6.8-0.9,10.3
					c-0.3,3.4-0.1,6.8-0.1,10.3c0,3.5-0.1,6.9,0.1,10.3c0.3,3.5,0.3,6.9,0.8,10.3c0.6,3.4,2.1,6.6,2.9,9.9c0.8,3.4,0,7.2,1.1,10.5
					c1.1,3.3,3.7,6,5.1,9.1c1.4,3.2,2.1,6.6,3.8,9.6c1.6,3,4,5.6,5.9,8.5c1.9,2.9,3.5,6,5.6,8.7c2.1,2.7,4.2,5.5,6.5,8
					c2.3,2.5,5,4.8,7.5,7.1c2.5,2.3,5.2,4.5,7.9,6.6c2.7,2.1,5.4,4.3,8.3,6.2c2.9,1.9,5.8,3.7,8.9,5.3c3,1.6,6.4,2.5,9.6,3.9
					c3.1,1.4,6.4,2.5,9.6,3.6c3.2,1.1,6.2,3.2,9.6,4c3.3,0.8,6.8,1.1,10.2,1.7c3.4,0.6,6.9,0.1,10.3,0.3
					C118.2,249,121.5,249.3,125,249.3z"/>
			</g>
		</g>
	</g>
</g>
<g>
	<radialGradient id="SVGID_2_" cx="125" cy="124.9997" r="110.0192" gradientUnits="userSpaceOnUse">
		<stop  offset="0" style="stop-color:#FF000D"/>
		<stop  offset="0.3814" style="stop-color:#FD000D"/>
		<stop  offset="0.5189" style="stop-color:#F6000D"/>
		<stop  offset="0.6169" style="stop-color:#EA000D"/>
		<stop  offset="0.6961" style="stop-color:#DA000D"/>
		<stop  offset="0.7639" style="stop-color:#C4000E"/>
		<stop  offset="0.824" style="stop-color:#A8000E"/>
		<stop  offset="0.8784" style="stop-color:#88000E"/>
		<stop  offset="0.9284" style="stop-color:#62000E"/>
		<stop  offset="0.9728" style="stop-color:#39000F"/>
		<stop  offset="1" style="stop-color:#1C000F"/>
	</radialGradient>
	<circle class="st1" cx="125" cy="125" r="110"/>
</g>
<g>
	<radialGradient id="SVGID_3_" cx="124.9261" cy="125.1029" r="86.5743" gradientUnits="userSpaceOnUse">
		<stop  offset="0" style="stop-color:#1C000F"/>
		<stop  offset="0.3293" style="stop-color:#1E000F"/>
		<stop  offset="0.4701" style="stop-color:#25000F"/>
		<stop  offset="0.575" style="stop-color:#32000F"/>
		<stop  offset="0.6621" style="stop-color:#43000F"/>
		<stop  offset="0.738" style="stop-color:#5B000E"/>
		<stop  offset="0.8063" style="stop-color:#77000E"/>
		<stop  offset="0.8688" style="stop-color:#99000E"/>
		<stop  offset="0.9269" style="stop-color:#C1000E"/>
		<stop  offset="0.9792" style="stop-color:#EC000D"/>
		<stop  offset="1" style="stop-color:#FF000D"/>
	</radialGradient>
	<path class="st2" d="M209.2,125c0,0.4,0.3,0.8,0.3,1.2c0,0.4,1.3,0.8,1.3,1.2c0,0.4-1.9,0.7-1.9,1.1c0,0.4,1.1,0.9,1,1.3
		c0,0.4,1.5,0.9,1.4,1.3c0,0.4,0.2,0.8,0.1,1.3c0,0.4-0.4,0.8-0.5,1.2c0,0.4-1.4,0.7-1.5,1.1c0,0.4,1.3,1,1.2,1.4
		c-0.1,0.4-1.6,0.6-1.6,1c-0.1,0.4,0.9,1,0.8,1.4c-0.1,0.4-0.4,0.8-0.5,1.2c-0.1,0.4-1.1,0.6-1.2,1c-0.1,0.4,0.6,0.9,0.5,1.3
		c-0.1,0.4-0.4,0.8-0.5,1.1c-0.1,0.4-1.5,0.5-1.5,0.9c-0.1,0.4,1.5,1.2,1.4,1.6c-0.1,0.4-0.3,0.8-0.4,1.2c-0.1,0.4-1.3,0.5-1.4,0.9
		c-0.1,0.4-0.8,0.6-0.9,1c-0.1,0.4,0.4,1,0.3,1.4c-0.1,0.4,1.8,1.4,1.7,1.8c-0.1,0.4-2.3,0.1-2.5,0.5c-0.1,0.4,0.2,0.9,0.1,1.3
		c-0.1,0.4,0.7,1.1,0.5,1.5c-0.1,0.4-1.9,0.2-2,0.5c-0.1,0.4,2,1.7,1.8,2c-0.2,0.4-1.7,0.2-1.8,0.6c-0.2,0.4-0.6,0.6-0.7,1
		c-0.2,0.4-1,0.4-1.2,0.8c-0.2,0.4-0.8,0.5-1,0.9c-0.2,0.4-0.2,0.8-0.3,1.2c-0.2,0.4,0.1,0.9-0.1,1.3c-0.2,0.4-0.6,0.6-0.8,0.9
		c-0.2,0.4-0.2,0.8-0.4,1.2c-0.2,0.4,0.2,1,0,1.4c-0.2,0.4-0.8,0.5-1,0.8c-0.2,0.4,1.1,1.6,0.9,1.9c-0.2,0.3-0.8,0.5-1,0.8
		c-0.2,0.3,0,1-0.2,1.3c-0.2,0.3-0.7,0.5-0.9,0.9c-0.2,0.3-0.2,0.9-0.4,1.2c-0.2,0.3-2.5-0.8-2.8-0.4c-0.2,0.3,0.8,1.6,0.6,1.9
		c-0.2,0.3-1,0.3-1.2,0.6c-0.2,0.3-0.4,0.7-0.7,1c-0.2,0.3-1.2,0.1-1.4,0.4c-0.3,0.3-0.3,0.8-0.6,1.1c-0.3,0.3,0.5,1.4,0.2,1.7
		c-0.3,0.3-0.7,0.5-0.9,0.8c-0.3,0.3-1.7-0.5-2-0.2c-0.3,0.3,0.9,1.9,0.6,2.2c-0.3,0.3-1.7-0.5-2-0.2c-0.3,0.3,0.4,1.5,0.2,1.8
		c-0.3,0.3-0.1,1.1-0.4,1.4c-0.3,0.3-1.1,0-1.4,0.3c-0.3,0.3-0.2,1-0.5,1.3c-0.3,0.3-1.6-0.5-1.9-0.3c-0.3,0.3-0.1,1.1-0.4,1.3
		c-0.3,0.3-0.1,1.1-0.4,1.4c-0.3,0.3-1.7-0.7-2-0.4c-0.3,0.3-1.1-0.1-1.4,0.1c-0.3,0.3,0.7,2.2,0.4,2.4c-0.3,0.3-1.8-0.9-2.1-0.7
		c-0.3,0.2,0.3,1.7,0,1.9c-0.3,0.2-0.4,0.8-0.7,1.1c-0.3,0.2-1.5-0.7-1.8-0.5c-0.3,0.2,0.1,1.5-0.2,1.8c-0.3,0.2-0.3,1-0.6,1.3
		c-0.3,0.2-1.3-0.5-1.6-0.3c-0.3,0.2-1.5-0.8-1.8-0.6c-0.3,0.2-0.8,0.2-1.2,0.4c-0.3,0.2,0.4,2.3,0.1,2.5c-0.3,0.2-0.4,0.9-0.8,1.1
		c-0.4,0.2-2-2-2.4-1.8c-0.4,0.2,0,1.7-0.4,1.9c-0.4,0.2-1.2-0.5-1.5-0.3c-0.4,0.2-0.3,1.3-0.6,1.5c-0.4,0.2-1-0.2-1.4,0
		c-0.4,0.2,0,1.9-0.4,2c-0.4,0.2-0.6,0.7-1,0.8c-0.4,0.2-1.6-1.7-2-1.5c-0.4,0.2-0.9-0.2-1.3,0c-0.4,0.2,0.3,2.9-0.1,3.1
		c-0.4,0.1-1.9-2.6-2.3-2.5c-0.4,0.1,0.3,3.2-0.1,3.3c-0.4,0.1-1.7-2.5-2.1-2.3c-0.4,0.1-0.2,2-0.6,2.1c-0.4,0.1-0.7,0.4-1.1,0.5
		c-0.4,0.1-1-0.4-1.4-0.3c-0.4,0.1-1-0.5-1.4-0.4c-0.4,0.1-0.5,1.1-0.9,1.2c-0.4,0.1-0.7,0.4-1.1,0.5c-0.4,0.1-0.9-0.2-1.3-0.1
		c-0.4,0.1-0.6,1.2-1,1.3c-0.4,0.1-1.3-2.2-1.7-2.1c-0.4,0.1-0.8,0.1-1.2,0.2c-0.4,0.1-0.3,3-0.7,3.1c-0.4,0.1-1-1.1-1.4-1.1
		c-0.4,0.1-0.6,1.4-1,1.5c-0.4,0.1-1.2-2.5-1.6-2.4c-0.4,0.1-0.6,1.4-1,1.5c-0.4,0-0.9-0.9-1.3-0.9c-0.4,0-0.7,1.1-1.1,1.1
		c-0.4,0-0.9-0.6-1.3-0.5c-0.4,0-0.7,1.4-1.1,1.5c-0.4,0-0.9-0.7-1.3-0.6c-0.4,0-0.8-0.4-1.2-0.4c-0.4,0-0.8-0.5-1.2-0.5
		s-0.8,0.9-1.2,0.9c-0.4,0-0.8,1.4-1.2,1.4c-0.4,0-0.8-2.1-1.2-2.1c-0.4,0-0.8,0.6-1.2,0.6c-0.4,0-0.8-1.1-1.2-1.1
		c-0.4,0-0.9,0.9-1.3,0.9c-0.4,0-0.9,0.9-1.3,0.8c-0.4,0-0.8,0-1.2-0.1c-0.4,0-0.7-1.3-1.1-1.3c-0.4,0-0.8-0.4-1.2-0.4
		c-0.4-0.1-0.8-0.1-1.2-0.2c-0.4-0.1-1.1,1.8-1.5,1.7c-0.4-0.1-0.6-1.7-1-1.7c-0.4-0.1-0.8-0.1-1.2-0.2c-0.4-0.1-0.8-0.3-1.2-0.3
		c-0.4-0.1-1.1,1.2-1.5,1.1c-0.4-0.1-0.9,0-1.3-0.1c-0.4-0.1-0.9,0.2-1.3,0.1c-0.4-0.1-0.1-2.8-0.5-2.9c-0.4-0.1-1.4,2-1.8,1.9
		c-0.4-0.1-0.1-2.7-0.5-2.8c-0.4-0.1-1.6,2.3-1.9,2.2c-0.4-0.1-0.8-0.2-1.2-0.3c-0.4-0.1-0.3-1.6-0.7-1.7c-0.4-0.1-0.6-0.6-1-0.7
		c-0.4-0.1-0.7-0.3-1.1-0.5c-0.4-0.1-0.9,0-1.2-0.2c-0.4-0.1-0.2-1.7-0.6-1.8c-0.4-0.2-1.8,2.3-2.2,2.1c-0.4-0.2-0.1-1.7-0.5-1.9
		c-0.4-0.2-1.1,0.4-1.5,0.3c-0.4-0.2-0.2-1.5-0.6-1.7c-0.4-0.2-1.4,1-1.8,0.9c-0.4-0.2-0.2-1.4-0.6-1.5c-0.4-0.2-0.1-1.6-0.4-1.7
		c-0.4-0.2-2.2,2.4-2.6,2.2c-0.4-0.2-0.4-1-0.7-1.2c-0.4-0.2,0.5-2.5,0.2-2.7c-0.4-0.2-0.6-0.6-0.9-0.8c-0.3-0.2-1.4,0.8-1.8,0.6
		c-0.3-0.2-1.7,1.2-2,0.9c-0.3-0.2,1-3,0.7-3.2c-0.3-0.2-0.9-0.1-1.3-0.3c-0.3-0.2-1.2,0.4-1.6,0.1c-0.3-0.2-1.6,0.9-2,0.6
		c-0.3-0.2,0.6-2.2,0.3-2.4c-0.3-0.2-0.6-0.6-0.9-0.8c-0.3-0.2-1.5,0.6-1.8,0.3c-0.3-0.3,0.4-1.8,0.1-2c-0.3-0.3-0.8-0.3-1.1-0.5
		c-0.3-0.3-1.3,0.2-1.6,0c-0.3-0.3-1.3,0.2-1.6,0c-0.3-0.3-0.3-0.9-0.6-1.1c-0.3-0.3,0.6-1.8,0.3-2.1c-0.3-0.3-1.9,0.8-2.2,0.5
		c-0.3-0.3-0.1-1.1-0.4-1.4c-0.3-0.3,0-1.1-0.3-1.4c-0.3-0.3-0.4-0.7-0.7-1c-0.3-0.3-1.6,0.4-1.9,0.1c-0.3-0.3-0.3-0.9-0.5-1.2
		c-0.3-0.3-0.1-1-0.4-1.3c-0.3-0.3-0.2-0.9-0.4-1.2c-0.3-0.3-1.5,0.2-1.7-0.1c-0.3-0.3,1.5-2.2,1.2-2.5c-0.3-0.3-2.7,1.1-3,0.8
		c-0.2-0.3,0.6-1.5,0.3-1.8c-0.2-0.3-1.6,0.2-1.9-0.1c-0.2-0.3,0.6-1.5,0.4-1.8c-0.2-0.3-0.2-0.8-0.5-1.1c-0.2-0.3-1.2-0.2-1.4-0.5
		c-0.2-0.3-1.1-0.3-1.3-0.6c-0.2-0.3,1.7-2,1.5-2.4c-0.2-0.3-3,0.9-3.2,0.6c-0.2-0.3,2-2.1,1.8-2.5c-0.2-0.3-1.3-0.2-1.5-0.6
		c-0.2-0.4,0.6-1.2,0.4-1.6c-0.2-0.4-2.6,0.5-2.8,0.1c-0.2-0.4,2-2,1.8-2.3c-0.2-0.4-1.1-0.3-1.3-0.7c-0.2-0.4,0.6-1.2,0.4-1.5
		c-0.2-0.4-3.1,0.6-3.3,0.2c-0.2-0.4,2.2-1.9,2-2.3c-0.2-0.4-0.3-0.8-0.4-1.1c-0.2-0.4-2-0.1-2.1-0.4c-0.2-0.4,0.8-1.2,0.6-1.6
		c-0.1-0.4-0.4-0.7-0.5-1.1c-0.1-0.4-2.1-0.1-2.2-0.5c-0.1-0.4,2.3-1.6,2.1-2c-0.1-0.4-0.2-0.8-0.4-1.1c-0.1-0.4-0.2-0.8-0.3-1.1
		c-0.1-0.4-2.9,0-3-0.4c-0.1-0.4,0.9-1.1,0.8-1.5c-0.1-0.4-0.8-0.6-0.9-1c-0.1-0.4-0.3-0.8-0.3-1.2c-0.1-0.4,1.7-1.2,1.6-1.6
		c-0.1-0.4,0.3-0.9,0.2-1.3c-0.1-0.4-2.5-0.3-2.6-0.7c-0.1-0.4-0.4-0.8-0.5-1.2c-0.1-0.4,1.8-1.1,1.7-1.5c-0.1-0.4-1-0.7-1-1.1
		c-0.1-0.4,1-1,0.9-1.4c-0.1-0.4-1.5-0.6-1.5-1c-0.1-0.4,0-0.8,0-1.2c0-0.4-1.3-0.7-1.3-1.1c0-0.4,2.2-1,2.1-1.4
		c0-0.4-1.8-0.7-1.9-1.1c0-0.4-0.6-0.8-0.7-1.2c0-0.4-0.2-0.8-0.2-1.2c0-0.4,0.9-0.9,0.9-1.3c0-0.4,0.9-0.8,0.9-1.2
		c0-0.4-0.8-0.8-0.8-1.2c0-0.4,0.5-0.8,0.5-1.2c0-0.4-0.6-0.8-0.6-1.2c0-0.4-0.7-0.9-0.7-1.3c0-0.4-0.2-0.8-0.2-1.2
		c0-0.4,0.5-0.8,0.6-1.2c0-0.4,0.4-0.8,0.5-1.2c0-0.4,1.5-0.7,1.5-1.1c0-0.4-0.1-0.8-0.1-1.2c0-0.4-0.4-0.9-0.3-1.3
		c0.1-0.4,0.4-0.8,0.4-1.2c0.1-0.4-1.3-1-1.2-1.4c0.1-0.4,2.8-0.4,2.9-0.8c0.1-0.4-2-1.2-1.9-1.6c0.1-0.4,0.1-0.8,0.2-1.2
		c0.1-0.4-0.3-0.9-0.2-1.3c0.1-0.4,0.1-0.8,0.2-1.2c0.1-0.4,2.2-0.3,2.3-0.7c0.1-0.4-2.3-1.4-2.2-1.8c0.1-0.4,0.7-0.7,0.8-1.1
		c0.1-0.4,1.4-0.4,1.5-0.8c0.1-0.4,0.7-0.6,0.8-1c0.1-0.4,0.1-0.8,0.2-1.2c0.1-0.4,0.7-0.6,0.8-1c0.1-0.4-0.7-1.1-0.5-1.5
		c0.1-0.4-1-1.2-0.8-1.6c0.1-0.4,0.5-0.7,0.7-1.1c0.1-0.4,2.4,0.1,2.6-0.3c0.2-0.4,0.7-0.6,0.9-0.9c0.2-0.4-1.4-1.5-1.2-1.8
		c0.2-0.4-0.6-1.2-0.4-1.5c0.2-0.4,0.4-0.7,0.6-1.1c0.2-0.4,1.4-0.2,1.5-0.6c0.2-0.4-0.4-1.1-0.2-1.5c0.2-0.4,1.1-0.4,1.3-0.7
		c0.2-0.4,0.7-0.5,0.9-0.9c0.2-0.4,1.2-0.3,1.4-0.6c0.2-0.4-1.7-1.9-1.5-2.3c0.2-0.4,2.6,0.6,2.8,0.3c0.2-0.3-0.2-1.1,0-1.4
		c0.2-0.3-0.6-1.3-0.4-1.7c0.2-0.3,1.3-0.1,1.5-0.5c0.2-0.3-0.3-1.2,0-1.5c0.2-0.3,2.2,0.6,2.4,0.2c0.2-0.3-1.8-2.3-1.6-2.6
		c0.2-0.3,2,0.5,2.3,0.1c0.2-0.3,0.8-0.4,1.1-0.7c0.2-0.3-0.2-1.2,0-1.5c0.3-0.3,0.3-0.8,0.6-1.1c0.3-0.3,1.2-0.1,1.4-0.4
		c0.3-0.3,0.4-0.7,0.7-1c0.3-0.3-0.9-1.8-0.6-2.2c0.3-0.3,2,0.7,2.3,0.4c0.3-0.3-0.2-1.2,0.1-1.5c0.3-0.3-0.4-1.6-0.2-1.9
		c0.3-0.3,1.4,0.3,1.7,0c0.3-0.3,1.2,0,1.5-0.3c0.3-0.3,0.7-0.5,0.9-0.8c0.3-0.3,0.5-0.7,0.8-0.9c0.3-0.3,1.3,0.2,1.6,0
		c0.3-0.3-1.3-2.7-1-3c0.3-0.3,2.3,1.4,2.6,1.1c0.3-0.3-0.8-2.2-0.5-2.5c0.3-0.3,0.7-0.4,1.1-0.7c0.3-0.3,1.3,0.3,1.6,0.1
		c0.3-0.2,0.2-1.1,0.5-1.4c0.3-0.2,1.9,1.2,2.2,0.9c0.3-0.2-0.8-2.6-0.5-2.8c0.3-0.2,1.5,0.8,1.9,0.5c0.3-0.2,0-1.5,0.3-1.7
		c0.3-0.2,1.1,0.2,1.4-0.1c0.3-0.2,1,0,1.3-0.2c0.3-0.2,0.3-1.1,0.6-1.3c0.3-0.2,0.9-0.2,1.2-0.4c0.3-0.2,0.5-0.7,0.9-0.9
		c0.4-0.2,0.9-0.1,1.2-0.3c0.4-0.2,0.1-1.5,0.5-1.7c0.4-0.2,1.4,0.9,1.8,0.7c0.4-0.2,1.3,0.8,1.6,0.6c0.4-0.2,0.3-1.3,0.6-1.5
		c0.4-0.2,0.8-0.1,1.2-0.3c0.4-0.2,1.2,0.8,1.6,0.6c0.4-0.2,0.7-0.5,1-0.6c0.4-0.2-0.2-2.5,0.2-2.7c0.4-0.2,1.4,1.3,1.8,1.1
		c0.4-0.1,0.5-1,0.9-1.1c0.4-0.1,0.2-1.8,0.6-2c0.4-0.1,1.2,1.1,1.6,0.9c0.4-0.1,0.5-1.2,0.9-1.3c0.4-0.1,1.3,1.3,1.6,1.1
		c0.4-0.1,0.3-1.8,0.7-2c0.4-0.1,1.1,1,1.5,0.9c0.4-0.1,0.8-0.1,1.2-0.2c0.4-0.1,0.7-0.6,1.1-0.7c0.4-0.1,0.5-1.5,0.9-1.5
		c0.4-0.1,1.2,1.5,1.6,1.4c0.4-0.1,0.9,0.5,1.3,0.4c0.4-0.1,0.8,0,1.2,0c0.4-0.1,0.7-0.8,1.1-0.9c0.4-0.1,0.6-1.1,1-1.1
		c0.4-0.1,1.1,1.7,1.5,1.7c0.4-0.1,0.8-0.1,1.2-0.1c0.4-0.1,0.8,0.2,1.2,0.1c0.4,0,0.7-1,1.1-1.1c0.4,0,0.9,0.8,1.3,0.8
		c0.4,0,0.6-2.3,1-2.3c0.4,0,0.8,0.1,1.2,0.1c0.4,0,0.8,0.2,1.2,0.1c0.4,0,0.8,0.5,1.2,0.5c0.4,0,0.8-1.3,1.2-1.4
		c0.4,0,0.8,1.5,1.2,1.5c0.4,0,0.8-0.1,1.2,0c0.4,0,0.8-0.9,1.2-0.9c0.4,0,0.8,1.1,1.2,1.1c0.4,0,0.9-1.8,1.3-1.8
		c0.4,0,0.8,1.2,1.2,1.2c0.4,0,0.8,0,1.2,0c0.4,0,0.9-0.9,1.3-0.8c0.4,0,0.6,2.2,1,2.2c0.4,0,1-1.4,1.4-1.3c0.4,0.1,0.9-0.4,1.3-0.4
		c0.4,0.1,0.5,2.1,0.9,2.2c0.4,0.1,1-1.3,1.4-1.3c0.4,0.1,0.8,0.3,1.2,0.4c0.4,0.1,0.4,2.2,0.8,2.3c0.4,0.1,1.5-3.1,1.9-3
		c0.4,0.1,0.4,2.1,0.8,2.2c0.4,0.1,1-0.8,1.4-0.7c0.4,0.1,0.7,0.6,1.1,0.7c0.4,0.1,0.3,2.1,0.7,2.2c0.4,0.1,1.4-2.1,1.8-1.9
		c0.4,0.1,0.6,1,0.9,1.1c0.4,0.1,0.5,1.1,0.9,1.3c0.4,0.1,1.4-1.7,1.8-1.6c0.4,0.1,0.2,2,0.5,2.1c0.4,0.1,1-0.4,1.4-0.2
		c0.4,0.1,1.2-0.9,1.6-0.8c0.4,0.1,0.4,1.2,0.8,1.4c0.4,0.2,0.2,1.5,0.6,1.7c0.4,0.2,1.1-0.4,1.4-0.3c0.4,0.2,0.2,1.5,0.6,1.6
		c0.4,0.2,0.9-0.2,1.3,0c0.4,0.2,1.2-0.6,1.5-0.4c0.4,0.2,0.8,0.2,1.2,0.4c0.4,0.2,1-0.2,1.4,0c0.4,0.2-0.3,2.3,0,2.5
		c0.4,0.2,1.9-1.8,2.3-1.6c0.4,0.2,0.2,1.2,0.6,1.4c0.4,0.2-0.2,2,0.1,2.2c0.3,0.2,2.3-2.2,2.7-2c0.3,0.2,0,1.6,0.3,1.8
		c0.3,0.2,0.3,1,0.7,1.2c0.3,0.2,0.8,0.3,1.1,0.6c0.3,0.2,0.3,1,0.6,1.2c0.3,0.2,1.4-0.6,1.8-0.4c0.3,0.2,1.5-0.6,1.8-0.4
		c0.3,0.2,0.1,1.2,0.5,1.4c0.3,0.2-0.5,2-0.2,2.2c0.3,0.3,0.9,0.2,1.2,0.4c0.3,0.3,0.5,0.7,0.8,1c0.3,0.3,1.1,0,1.4,0.2
		c0.3,0.3-0.2,1.5,0.1,1.7c0.3,0.3,2.3-1.3,2.6-1c0.3,0.3-0.8,2-0.5,2.3c0.3,0.3,0.7,0.4,1,0.7c0.3,0.3,0.8,0.3,1.1,0.6
		c0.3,0.3,2-0.8,2.3-0.5c0.3,0.3-1.5,2.6-1.3,2.9c0.3,0.3,0.6,0.5,0.9,0.8c0.3,0.3,2.4-1,2.6-0.7c0.3,0.3-1.1,2.1-0.9,2.4
		c0.3,0.3,1.8-0.5,2.1-0.2c0.3,0.3-0.7,1.6-0.4,1.9c0.3,0.3,0.5,0.6,0.7,0.9c0.3,0.3,0.2,0.9,0.4,1.2c0.2,0.3,0.3,0.8,0.5,1.1
		c0.2,0.3,0.7,0.4,1,0.8c0.2,0.3,0.5,0.6,0.7,0.9c0.2,0.3,1,0.3,1.2,0.6c0.2,0.3,0.4,0.7,0.6,1c0.2,0.3-0.4,1.2-0.2,1.5
		c0.2,0.3,1.8-0.2,2,0.1c0.2,0.3,0.4,0.7,0.6,1c0.2,0.3,1,0.4,1.2,0.7c0.2,0.3,0.4,0.7,0.6,1.1c0.2,0.4-0.2,1.1,0,1.4
		c0.2,0.4,1.2,0.3,1.4,0.6c0.2,0.4-0.9,1.4-0.7,1.7c0.2,0.4,0.3,0.7,0.5,1.1c0.2,0.4,0.8,0.5,1,0.9c0.2,0.4,0.9,0.5,1.1,0.8
		c0.2,0.4-0.1,0.9,0.1,1.3c0.2,0.4,1.7,0.2,1.8,0.6c0.2,0.4-1.8,1.6-1.7,2c0.2,0.4,2.2,0,2.3,0.4c0.1,0.4-1.9,1.6-1.8,2
		c0.1,0.4,2,0.1,2.1,0.5c0.1,0.4,1.2,0.5,1.3,0.8c0.1,0.4-0.3,1-0.2,1.4c0.1,0.4-1.2,1.2-1,1.6c0.1,0.4-0.1,0.9,0,1.3
		c0.1,0.4,0.8,0.6,0.9,1c0.1,0.4-0.7,1-0.6,1.4c0.1,0.4,0.9,0.6,1,1c0.1,0.4-0.8,1-0.7,1.4c0.1,0.4,3.2,0.1,3.3,0.5
		c0.1,0.4-0.9,1-0.8,1.4c0.1,0.4,0.3,0.8,0.3,1.2c0.1,0.4-0.4,0.9-0.3,1.3c0.1,0.4-0.2,0.9-0.1,1.3c0.1,0.4-0.4,0.9-0.3,1.3
		c0.1,0.4,1.7,0.6,1.8,1c0.1,0.4,0.1,0.8,0.2,1.2c0,0.4,0.7,0.8,0.8,1.2c0,0.4-0.6,0.9-0.5,1.3c0,0.4,0,0.8,0,1.2
		c0,0.4-1.9,0.9-1.9,1.3c0,0.4,1.1,0.7,1.1,1.2c0,0.4,1.3,0.8,1.4,1.2c0,0.4-0.1,0.8-0.1,1.2C211.4,124.1,209.2,124.6,209.2,125z"/>
</g>
<g>
	<radialGradient id="SVGID_4_" cx="124.6881" cy="124.6268" r="83.1838" gradientUnits="userSpaceOnUse">
		<stop  offset="0" style="stop-color:#FFD691"/>
		<stop  offset="0.386" style="stop-color:#FFD490"/>
		<stop  offset="0.525" style="stop-color:#FFCD8C"/>
		<stop  offset="0.6242" style="stop-color:#FFC184"/>
		<stop  offset="0.7043" style="stop-color:#FFB17A"/>
		<stop  offset="0.773" style="stop-color:#FF9B6C"/>
		<stop  offset="0.8338" style="stop-color:#FF7F5C"/>
		<stop  offset="0.8888" style="stop-color:#FF5F48"/>
		<stop  offset="0.9393" style="stop-color:#FF3930"/>
		<stop  offset="0.9843" style="stop-color:#FF1017"/>
		<stop  offset="1" style="stop-color:#FF000D"/>
	</radialGradient>
	<polygon class="st3" points="125,204 126.5,206.9 127.8,200.2 129.4,203.6 130.8,202.4 132.7,207.7 133.5,200.5 135.4,204.1 
		136.5,201 137.8,200.1 139.2,199.8 141.8,205.5 142.7,202.6 144.1,202.1 146.6,205.8 145.7,197 148,199.5 148.8,197.2 149.9,196.1 
		152.7,199.6 154.6,200.3 154.4,195.9 157.2,198.9 158.9,198.9 160.2,198.2 159.8,194 163.5,197.9 162.1,192.1 165.3,194.8 
		166.7,194.2 168.1,193.7 170.6,194.7 167.7,187.7 171.2,190.1 173.5,190.8 170.8,184.8 172,184 174.8,185.2 178.3,186.9 179,185.4 
		178.8,183 177.5,179.5 180.2,180.3 178.9,177 183.4,179.2 183.6,177.4 188.1,179.3 187.7,176.9 186.6,174.2 185.4,171.4 185.9,170 
		192.6,172.9 190.1,169.4 189.6,167.3 190.3,166 191.8,165.3 193.1,164.3 193.4,162.8 196.8,163 191.2,158.4 195,158.8 192.5,156 
		193.8,155 198.7,155.5 197.3,153.4 198.2,152.2 200.8,151.5 200.5,149.8 203,149.1 196.3,145.6 204.7,146.4 201.5,144 197.2,141.5 
		199.5,140.6 201.9,139.6 205.5,138.7 205.1,137.1 208,135.9 200.8,133.6 200.8,132.1 206.2,131.1 202.5,129.4 199.1,127.8 
		207,126.5 206,125 203,123.5 200.2,122.2 201.9,120.7 204.8,119 199.2,118 203,116.2 208,114.1 198.1,114 200,112.2 199,111 
		197.8,109.8 204.1,106.9 197.5,107 197.8,105.5 197.7,104 196.8,102.8 196.1,101.6 198.5,99.2 201.4,96.6 195,97.5 199.4,94.2 
		196,94 192.3,94.1 200.4,88.7 198.2,88 197.9,86.4 197.6,84.8 197.6,83 189.9,85.9 188.8,84.9 194.1,79.7 187.8,82.2 188,80.2 
		191.2,76.1 184.7,79.2 184.3,77.7 188.1,72.7 186.2,72.3 186.7,69.8 186.1,68.2 184.8,67.4 177.5,72.4 176.6,71.4 176.8,69.1 
		180,63.5 178.8,62.5 176.5,62.7 177.2,59.5 175.5,59.2 174.3,58.2 168,64.3 169.9,59.1 166.9,60.9 166.3,59.2 163.9,60.4 
		163.1,58.9 163.7,54.9 161,56.8 162.4,50.9 158.8,54.8 158.6,51.6 155.2,55.8 156.6,48.6 154.4,50.1 153.9,47.1 151.8,48.2 
		149,52.1 148.5,48.8 147.2,47.8 144.5,52.3 144.5,46.4 142.5,48.1 141.7,44.9 140,45.8 137.5,51.6 136.3,49.7 135.3,46.7 
		133.7,47.6 132.8,41.6 131.2,41.8 129.6,43.8 127.9,46.2 126.5,44.8 125,47 123.6,48.4 121.9,43.4 120.4,43.7 119.4,49.8 
		118.1,51.1 115.9,43.9 115.3,51.4 113.3,47.3 112.1,48.8 109.9,45.3 108.3,44.8 107.3,47.4 105.1,44.7 103.9,46.3 102.1,45.7 
		101.7,49.5 101.7,54.2 98.5,49.3 97.2,49.9 95.3,49.3 94.9,52.4 93.7,53.2 93.2,55.6 91.3,54.9 90.7,57 88.2,55.4 88.4,58.8 
		85.7,57 82.5,54.5 81,55 81.8,59 83.3,63.8 80,61.6 75.7,58.2 76.2,61.4 77.3,65.1 73.5,62.9 70.7,61.9 70.3,63.8 74.4,70.4 
		73.1,71 68.4,68.4 65.4,67.6 68.6,72.6 62.6,69.2 66.1,74.3 62.4,73.1 66.9,78.7 58.6,74 64.7,80.5 64.6,82.1 58.8,79.8 58.6,81.5 
		59.1,83.6 57.4,84.2 54.5,84.3 54.2,85.9 51.2,86 53.9,89.1 51.2,89.4 54,92.4 54.1,94 53.6,95.4 55,97.5 48.3,96.5 52.5,99.6 
		47.4,99.5 45.3,100.4 52.7,104.1 52.2,105.5 48.2,105.9 49.4,107.7 48.8,109.1 45.5,109.9 46.6,111.7 50.9,113.8 42.8,114.2 
		44.2,115.9 46.8,117.7 45.6,119 42.8,120.4 45.4,122 45.8,123.5 41.4,125 45.3,126.5 49.6,127.8 46.5,129.4 44.3,131.1 50.4,132 
		44.3,134.1 44.3,135.6 50.7,136.2 45.7,138.5 44.3,140.3 47,141.3 44.7,143.3 52,143.1 49.2,145.3 49.8,146.7 50.2,148.1 
		45.7,151.1 52.1,150.5 54.4,151.2 47.4,155.5 55.6,153.8 48.4,158.5 53.3,157.9 58.4,157.1 56.2,159.7 55.1,162 57.5,162.3 
		53.3,166.4 57.3,165.8 61,165.2 63.1,165.6 60.5,169 63.7,168.5 57.9,174.5 62.6,172.9 59.8,177 67.8,172.5 62.8,178.5 66.3,177.5 
		67.9,178 66.6,181.3 67.2,182.8 71.2,180.9 70.7,183.5 72.2,184.1 76.3,181.7 77.5,182.4 74.1,188.9 76.1,188.8 75.2,192.5 
		80.2,188.2 79.5,191.7 81.1,192.1 83.2,191.5 83.9,193.3 83.5,196.9 85.1,197.2 85.8,199.2 90.3,193.9 92.6,192.3 92.7,195.4 
		95.2,193.5 94.8,198 96.4,198 97,200.5 98.7,200.3 100.1,200.6 101.6,200.9 102.8,202 105.1,199.5 105.4,204 107.6,201.4 
		108.5,204.3 110.7,200.7 111.7,203.4 113.8,199.4 114.6,203.9 115.7,207.5 117.8,201.7 118.8,207.5 120.5,205.9 122.1,201.4 
		123.5,204.7 	"/>
</g>
<path class="st4" d="M185.6,125c0,0.3,0.2,0.6,0.2,0.9c0,0.3,1,0.6,1,0.9c0,0.3-1.4,0.5-1.4,0.8c0,0.3,0.8,0.6,0.8,0.9
	c0,0.3,1,0.7,1,0.9c0,0.3,0.1,0.6,0.1,0.9c0,0.3-0.3,0.6-0.3,0.9c0,0.3-1,0.5-1.1,0.8c0,0.3,0.9,0.7,0.9,1c0,0.3-1.1,0.4-1.2,0.7
	c0,0.3,0.6,0.7,0.6,1c0,0.3-0.3,0.5-0.4,0.8c0,0.3-0.8,0.5-0.8,0.7c-0.1,0.3,0.4,0.7,0.4,1c-0.1,0.3-0.3,0.5-0.3,0.8
	c-0.1,0.3-1,0.4-1.1,0.6c-0.1,0.3,1.1,0.9,1,1.1c-0.1,0.3-0.2,0.6-0.3,0.8c-0.1,0.3-0.9,0.4-1,0.6c-0.1,0.3-0.6,0.4-0.6,0.7
	c-0.1,0.3,0.3,0.7,0.2,1c-0.1,0.3,1.3,1,1.2,1.3c-0.1,0.3-1.7,0.1-1.8,0.3c-0.1,0.3,0.2,0.7,0.1,0.9c-0.1,0.3,0.5,0.8,0.4,1.1
	c-0.1,0.3-1.3,0.1-1.5,0.4c-0.1,0.3,1.4,1.2,1.3,1.5c-0.1,0.3-1.2,0.1-1.3,0.4c-0.1,0.3-0.4,0.5-0.5,0.7c-0.1,0.3-0.7,0.3-0.8,0.6
	c-0.1,0.3-0.6,0.4-0.7,0.6c-0.1,0.3-0.1,0.6-0.2,0.8c-0.1,0.3,0.1,0.7-0.1,0.9c-0.1,0.3-0.5,0.4-0.6,0.7c-0.1,0.3-0.1,0.6-0.3,0.8
	c-0.1,0.3,0.1,0.7,0,1c-0.1,0.3-0.6,0.3-0.7,0.6c-0.1,0.3,0.8,1.2,0.6,1.4c-0.2,0.3-0.6,0.4-0.7,0.6c-0.2,0.2,0,0.7-0.2,0.9
	c-0.2,0.2-0.5,0.4-0.6,0.6c-0.2,0.2-0.1,0.6-0.3,0.9c-0.2,0.2-1.8-0.6-2-0.3c-0.2,0.2,0.6,1.2,0.4,1.4c-0.2,0.2-0.7,0.2-0.9,0.4
	c-0.2,0.2-0.3,0.5-0.5,0.7c-0.2,0.2-0.9,0.1-1,0.3c-0.2,0.2-0.2,0.5-0.4,0.8c-0.2,0.2,0.3,1,0.1,1.3c-0.2,0.2-0.5,0.4-0.7,0.6
	c-0.2,0.2-1.3-0.3-1.5-0.1c-0.2,0.2,0.7,1.4,0.5,1.6c-0.2,0.2-1.2-0.3-1.4-0.1c-0.2,0.2,0.3,1.1,0.1,1.3c-0.2,0.2-0.1,0.8-0.3,1
	c-0.2,0.2-0.8,0-1,0.2c-0.2,0.2-0.1,0.7-0.3,0.9c-0.2,0.2-1.2-0.4-1.4-0.2c-0.2,0.2-0.1,0.8-0.3,1c-0.2,0.2-0.1,0.8-0.3,1
	c-0.2,0.2-1.2-0.5-1.4-0.3c-0.2,0.2-0.8-0.1-1,0.1c-0.2,0.2,0.5,1.6,0.3,1.8c-0.2,0.2-1.3-0.7-1.5-0.5c-0.2,0.2,0.2,1.2,0,1.4
	c-0.2,0.2-0.3,0.6-0.5,0.8c-0.2,0.2-1.1-0.5-1.3-0.3c-0.2,0.2,0.1,1.1-0.2,1.3c-0.2,0.2-0.2,0.7-0.5,0.9c-0.2,0.2-0.9-0.3-1.2-0.2
	c-0.2,0.2-1.1-0.6-1.3-0.5c-0.2,0.2-0.6,0.1-0.8,0.3c-0.2,0.2,0.3,1.6,0.1,1.8c-0.3,0.1-0.3,0.7-0.6,0.8c-0.3,0.1-1.5-1.4-1.7-1.3
	c-0.3,0.1,0,1.2-0.3,1.4c-0.3,0.1-0.8-0.4-1.1-0.2c-0.3,0.1-0.2,0.9-0.4,1.1c-0.3,0.1-0.7-0.2-1,0c-0.3,0.1,0,1.3-0.3,1.5
	c-0.3,0.1-0.4,0.5-0.7,0.6c-0.3,0.1-1.2-1.2-1.4-1.1c-0.3,0.1-0.7-0.1-0.9,0c-0.3,0.1,0.2,2.1-0.1,2.2c-0.3,0.1-1.3-1.9-1.6-1.8
	c-0.3,0.1,0.2,2.3-0.1,2.4c-0.3,0.1-1.2-1.8-1.5-1.7c-0.3,0.1-0.1,1.4-0.4,1.5c-0.3,0.1-0.5,0.3-0.8,0.4c-0.3,0.1-0.7-0.3-1-0.2
	c-0.3,0.1-0.7-0.4-1-0.3c-0.3,0.1-0.4,0.8-0.7,0.9c-0.3,0.1-0.5,0.3-0.8,0.3c-0.3,0.1-0.6-0.1-0.9,0c-0.3,0.1-0.4,0.9-0.7,1
	c-0.3,0.1-0.9-1.6-1.2-1.5c-0.3,0.1-0.6,0.1-0.8,0.1c-0.3,0.1-0.2,2.2-0.5,2.2c-0.3,0-0.7-0.8-1-0.8c-0.3,0-0.4,1-0.7,1
	c-0.3,0-0.8-1.8-1.1-1.8c-0.3,0-0.5,1-0.7,1.1c-0.3,0-0.7-0.7-0.9-0.6c-0.3,0-0.5,0.8-0.8,0.8c-0.3,0-0.6-0.4-0.9-0.4
	c-0.3,0-0.5,1-0.8,1.1c-0.3,0-0.6-0.5-0.9-0.5c-0.3,0-0.6-0.3-0.9-0.3c-0.3,0-0.6-0.4-0.9-0.3s-0.6,0.6-0.9,0.6c-0.3,0-0.6,1-0.9,1
	c-0.3,0-0.6-1.5-0.8-1.5c-0.3,0-0.6,0.4-0.9,0.4c-0.3,0-0.5-0.8-0.8-0.8c-0.3,0-0.6,0.6-0.9,0.6c-0.3,0-0.6,0.6-0.9,0.6
	c-0.3,0-0.6,0-0.9,0c-0.3,0-0.5-0.9-0.8-0.9c-0.3,0-0.6-0.3-0.8-0.3c-0.3,0-0.6-0.1-0.9-0.1c-0.3,0-0.8,1.3-1.1,1.2
	c-0.3,0-0.4-1.2-0.7-1.3c-0.3,0-0.6-0.1-0.9-0.1c-0.3-0.1-0.6-0.2-0.8-0.2c-0.3-0.1-0.8,0.9-1.1,0.8c-0.3-0.1-0.6,0-0.9,0
	c-0.3-0.1-0.7,0.1-0.9,0.1c-0.3-0.1-0.1-2-0.4-2.1c-0.3-0.1-1,1.5-1.3,1.4c-0.3-0.1-0.1-1.9-0.3-2c-0.3-0.1-1.1,1.7-1.4,1.6
	c-0.3-0.1-0.6-0.1-0.9-0.2c-0.3-0.1-0.2-1.1-0.5-1.2c-0.3-0.1-0.5-0.4-0.7-0.5c-0.3-0.1-0.5-0.2-0.8-0.3c-0.3-0.1-0.6,0-0.9-0.1
	c-0.3-0.1-0.1-1.2-0.4-1.3c-0.3-0.1-1.3,1.7-1.6,1.5c-0.3-0.1-0.1-1.2-0.4-1.4c-0.3-0.1-0.8,0.3-1.1,0.2c-0.3-0.1-0.1-1.1-0.4-1.2
	c-0.3-0.1-1,0.8-1.3,0.6c-0.3-0.1-0.2-1-0.4-1.1c-0.3-0.1-0.1-1.1-0.3-1.3c-0.3-0.1-1.6,1.8-1.9,1.6c-0.3-0.1-0.3-0.7-0.5-0.9
	c-0.3-0.1,0.4-1.8,0.1-2c-0.3-0.1-0.4-0.4-0.7-0.6c-0.3-0.2-1,0.6-1.3,0.4c-0.2-0.2-1.2,0.8-1.5,0.7c-0.2-0.2,0.7-2.2,0.5-2.3
	c-0.2-0.2-0.7,0-0.9-0.2c-0.2-0.2-0.9,0.3-1.1,0.1c-0.2-0.2-1.2,0.6-1.4,0.5c-0.2-0.2,0.4-1.6,0.2-1.7c-0.2-0.2-0.4-0.4-0.6-0.6
	c-0.2-0.2-1.1,0.4-1.3,0.2c-0.2-0.2,0.3-1.3,0.1-1.5c-0.2-0.2-0.6-0.2-0.8-0.4c-0.2-0.2-0.9,0.2-1.1,0c-0.2-0.2-1,0.2-1.2,0
	c-0.2-0.2-0.2-0.6-0.5-0.8c-0.2-0.2,0.4-1.3,0.2-1.5c-0.2-0.2-1.4,0.6-1.6,0.4c-0.2-0.2-0.1-0.8-0.3-1s0-0.8-0.2-1
	c-0.2-0.2-0.3-0.5-0.5-0.7c-0.2-0.2-1.1,0.3-1.3,0c-0.2-0.2-0.2-0.6-0.4-0.8c-0.2-0.2-0.1-0.7-0.3-0.9c-0.2-0.2-0.1-0.7-0.3-0.9
	c-0.2-0.2-1.1,0.1-1.3-0.1c-0.2-0.2,1.1-1.6,0.9-1.8c-0.2-0.2-2,0.8-2.1,0.6c-0.2-0.2,0.4-1.1,0.3-1.3c-0.2-0.2-1.2,0.1-1.3-0.1
	c-0.2-0.2,0.5-1.1,0.3-1.3c-0.2-0.2-0.2-0.6-0.3-0.8c-0.2-0.2-0.8-0.1-1-0.4c-0.2-0.2-0.8-0.2-1-0.4c-0.2-0.2,1.2-1.5,1.1-1.7
	c-0.2-0.2-2.2,0.7-2.3,0.4c-0.2-0.2,1.4-1.5,1.3-1.8c-0.1-0.3-0.9-0.1-1.1-0.4c-0.1-0.3,0.4-0.9,0.3-1.1c-0.1-0.3-1.9,0.3-2,0.1
	c-0.1-0.3,1.4-1.4,1.3-1.7c-0.1-0.3-0.8-0.2-1-0.5c-0.1-0.3,0.4-0.8,0.3-1.1c-0.1-0.3-2.2,0.4-2.4,0.1c-0.1-0.3,1.6-1.4,1.5-1.6
	c-0.1-0.3-0.2-0.5-0.3-0.8c-0.1-0.3-1.4,0-1.5-0.3c-0.1-0.3,0.6-0.8,0.5-1.1c-0.1-0.3-0.3-0.5-0.4-0.8c-0.1-0.3-1.5-0.1-1.6-0.3
	c-0.1-0.3,1.6-1.2,1.5-1.5c-0.1-0.3-0.2-0.5-0.3-0.8c-0.1-0.3-0.2-0.5-0.2-0.8c-0.1-0.3-2.1,0-2.2-0.3c-0.1-0.3,0.6-0.8,0.5-1.1
	c-0.1-0.3-0.6-0.5-0.7-0.7c-0.1-0.3-0.2-0.6-0.3-0.8c-0.1-0.3,1.2-0.9,1.1-1.2c-0.1-0.3,0.2-0.6,0.2-0.9c-0.1-0.3-1.8-0.2-1.9-0.5
	c-0.1-0.3-0.3-0.6-0.3-0.8c-0.1-0.3,1.3-0.8,1.2-1.1c0-0.3-0.7-0.5-0.7-0.8c0-0.3,0.7-0.7,0.7-1c0-0.3-1.1-0.4-1.1-0.7
	c0-0.3,0-0.6,0-0.9c0-0.3-0.9-0.5-0.9-0.8c0-0.3,1.6-0.7,1.5-1c0-0.3-1.3-0.5-1.3-0.8c0-0.3-0.5-0.6-0.5-0.9c0-0.3-0.1-0.6-0.1-0.9
	c0-0.3,0.6-0.6,0.6-0.9c0-0.3,0.7-0.6,0.7-0.9c0-0.3-0.6-0.6-0.6-0.9c0-0.3,0.4-0.6,0.4-0.9c0-0.3-0.4-0.6-0.4-0.9
	c0-0.3-0.5-0.6-0.5-0.9c0-0.3-0.1-0.6-0.1-0.9c0-0.3,0.4-0.6,0.4-0.9c0-0.3,0.3-0.6,0.3-0.9c0-0.3,1.1-0.5,1.1-0.8
	c0-0.3-0.1-0.6,0-0.9c0-0.3-0.3-0.6-0.2-0.9c0-0.3,0.3-0.6,0.3-0.8c0-0.3-0.9-0.7-0.9-1c0-0.3,2-0.3,2.1-0.5c0-0.3-1.5-0.8-1.4-1.1
	c0.1-0.3,0.1-0.6,0.1-0.9c0.1-0.3-0.2-0.7-0.2-0.9c0.1-0.3,0.1-0.6,0.1-0.9c0.1-0.3,1.6-0.2,1.7-0.5c0.1-0.3-1.6-1-1.6-1.3
	c0.1-0.3,0.5-0.5,0.6-0.8c0.1-0.3,1-0.3,1.1-0.6c0.1-0.3,0.5-0.5,0.6-0.7c0.1-0.3,0-0.6,0.1-0.9c0.1-0.3,0.5-0.5,0.6-0.7
	c0.1-0.3-0.5-0.8-0.4-1.1c0.1-0.3-0.7-0.9-0.6-1.2c0.1-0.3,0.4-0.5,0.5-0.8c0.1-0.3,1.8,0.1,1.9-0.2c0.1-0.3,0.5-0.4,0.6-0.7
	c0.1-0.3-1-1.1-0.9-1.3c0.1-0.3-0.4-0.8-0.3-1.1c0.1-0.3,0.3-0.5,0.4-0.8c0.1-0.3,1-0.2,1.1-0.4c0.1-0.3-0.3-0.8-0.2-1.1
	c0.1-0.3,0.8-0.3,0.9-0.5c0.1-0.3,0.5-0.4,0.7-0.6c0.1-0.3,0.8-0.2,1-0.5c0.1-0.3-1.2-1.4-1.1-1.6c0.1-0.3,1.9,0.4,2,0.2
	c0.2-0.3-0.1-0.8,0-1c0.2-0.2-0.4-1-0.3-1.2c0.2-0.2,0.9-0.1,1.1-0.3c0.2-0.2-0.2-0.8,0-1.1c0.2-0.2,1.6,0.4,1.8,0.2
	c0.2-0.2-1.3-1.7-1.1-1.9c0.2-0.2,1.4,0.3,1.6,0.1c0.2-0.2,0.6-0.3,0.8-0.5c0.2-0.2-0.2-0.9,0-1.1c0.2-0.2,0.2-0.6,0.4-0.8
	c0.2-0.2,0.9,0,1-0.3c0.2-0.2,0.3-0.5,0.5-0.7c0.2-0.2-0.6-1.3-0.4-1.5c0.2-0.2,1.5,0.5,1.7,0.3c0.2-0.2-0.1-0.9,0.1-1.1
	c0.2-0.2-0.3-1.1-0.1-1.3c0.2-0.2,1,0.2,1.2,0s0.8,0,1-0.2c0.2-0.2,0.5-0.3,0.7-0.5c0.2-0.2,0.4-0.5,0.6-0.7c0.2-0.2,0.9,0.2,1.1,0
	c0.2-0.2-0.9-2-0.7-2.2c0.2-0.2,1.6,1,1.8,0.8c0.2-0.2-0.6-1.6-0.4-1.8c0.2-0.2,0.5-0.3,0.8-0.5c0.2-0.2,0.9,0.2,1.2,0.1
	c0.2-0.2,0.1-0.8,0.4-1c0.2-0.2,1.3,0.8,1.6,0.7c0.2-0.2-0.6-1.9-0.4-2c0.2-0.2,1.1,0.6,1.3,0.4c0.2-0.2,0-1.1,0.2-1.3
	c0.2-0.2,0.8,0.1,1,0c0.2-0.2,0.7,0,0.9-0.1c0.2-0.2,0.2-0.8,0.5-0.9c0.2-0.2,0.6-0.1,0.9-0.3c0.3-0.1,0.4-0.5,0.6-0.7
	c0.3-0.1,0.6-0.1,0.9-0.2c0.3-0.1,0.1-1.1,0.4-1.2c0.3-0.1,1,0.7,1.3,0.5c0.3-0.1,0.9,0.5,1.2,0.4c0.3-0.1,0.2-0.9,0.5-1.1
	c0.3-0.1,0.6-0.1,0.9-0.2c0.3-0.1,0.9,0.6,1.2,0.5c0.3-0.1,0.5-0.3,0.7-0.4c0.3-0.1-0.1-1.8,0.2-1.9c0.3-0.1,1,0.9,1.3,0.8
	c0.3-0.1,0.3-0.7,0.6-0.8c0.3-0.1,0.2-1.3,0.4-1.4c0.3-0.1,0.9,0.8,1.2,0.7c0.3-0.1,0.3-0.8,0.6-0.9c0.3-0.1,0.9,0.9,1.2,0.8
	c0.3-0.1,0.2-1.3,0.5-1.4c0.3-0.1,0.8,0.7,1.1,0.6c0.3-0.1,0.6,0,0.9-0.1c0.3-0.1,0.5-0.5,0.8-0.5c0.3-0.1,0.4-1,0.6-1.1
	c0.3-0.1,0.9,1.1,1.1,1c0.3-0.1,0.7,0.4,1,0.3c0.3-0.1,0.6,0,0.9,0c0.3-0.1,0.5-0.6,0.8-0.6c0.3,0,0.5-0.8,0.8-0.8
	c0.3,0,0.8,1.3,1.1,1.2c0.3,0,0.6-0.1,0.9-0.1c0.3,0,0.6,0.1,0.9,0.1c0.3,0,0.5-0.7,0.8-0.8c0.3,0,0.6,0.6,0.9,0.6
	c0.3,0,0.5-1.7,0.7-1.7c0.3,0,0.6,0.1,0.9,0.1c0.3,0,0.6,0.1,0.9,0.1c0.3,0,0.6,0.4,0.9,0.4c0.3,0,0.6-1,0.9-1
	c0.3,0,0.6,1.1,0.9,1.1c0.3,0,0.6,0,0.9,0c0.3,0,0.6-0.7,0.9-0.6c0.3,0,0.6,0.8,0.8,0.8c0.3,0,0.7-1.3,0.9-1.3
	c0.3,0,0.5,0.8,0.8,0.9c0.3,0,0.6,0,0.9,0c0.3,0,0.7-0.6,0.9-0.6c0.3,0,0.4,1.6,0.7,1.6c0.3,0,0.7-1,1-1c0.3,0,0.6-0.3,0.9-0.3
	c0.3,0,0.4,1.5,0.7,1.6c0.3,0,0.7-1,1-0.9c0.3,0,0.6,0.2,0.8,0.3c0.3,0.1,0.3,1.6,0.6,1.6c0.3,0.1,1.1-2.2,1.3-2.1
	c0.3,0.1,0.3,1.5,0.6,1.6c0.3,0.1,0.7-0.5,1-0.5c0.3,0.1,0.5,0.4,0.8,0.5c0.3,0.1,0.2,1.5,0.5,1.6c0.3,0.1,1-1.5,1.3-1.4
	c0.3,0.1,0.4,0.7,0.7,0.8c0.3,0.1,0.3,0.8,0.6,0.9c0.3,0.1,1-1.2,1.3-1.1c0.3,0.1,0.1,1.4,0.4,1.5c0.3,0.1,0.7-0.3,1-0.2
	c0.3,0.1,0.9-0.7,1.2-0.6c0.3,0.1,0.3,0.9,0.6,1c0.3,0.1,0.2,1.1,0.4,1.2c0.3,0.1,0.8-0.3,1-0.2c0.3,0.1,0.2,1.1,0.4,1.2
	c0.3,0.1,0.7-0.1,0.9,0c0.3,0.1,0.8-0.4,1.1-0.3c0.3,0.1,0.6,0.2,0.8,0.3c0.3,0.1,0.7-0.1,1,0c0.3,0.1-0.2,1.7,0,1.8
	c0.3,0.1,1.4-1.3,1.6-1.2c0.3,0.1,0.2,0.9,0.4,1c0.3,0.1-0.2,1.4,0.1,1.6c0.3,0.2,1.7-1.6,1.9-1.5c0.2,0.2,0,1.1,0.2,1.3
	c0.2,0.2,0.2,0.7,0.5,0.9c0.2,0.2,0.5,0.2,0.8,0.4c0.2,0.2,0.2,0.7,0.4,0.9c0.2,0.2,1-0.4,1.3-0.3c0.2,0.2,1.1-0.4,1.3-0.3
	c0.2,0.2,0.1,0.9,0.3,1c0.2,0.2-0.4,1.4-0.1,1.6c0.2,0.2,0.6,0.1,0.9,0.3c0.2,0.2,0.3,0.5,0.6,0.7c0.2,0.2,0.8,0,1,0.2
	c0.2,0.2-0.2,1.1,0.1,1.3c0.2,0.2,1.6-1,1.9-0.8c0.2,0.2-0.5,1.4-0.3,1.6c0.2,0.2,0.5,0.3,0.7,0.5c0.2,0.2,0.6,0.2,0.8,0.4
	c0.2,0.2,1.4-0.6,1.6-0.4c0.2,0.2-1.1,1.9-0.9,2.1c0.2,0.2,0.4,0.4,0.6,0.6c0.2,0.2,1.7-0.7,1.9-0.5c0.2,0.2-0.8,1.5-0.6,1.7
	c0.2,0.2,1.3-0.3,1.5-0.1c0.2,0.2-0.5,1.2-0.3,1.4c0.2,0.2,0.4,0.5,0.5,0.7c0.2,0.2,0.1,0.6,0.3,0.9c0.2,0.2,0.2,0.6,0.4,0.8
	c0.2,0.2,0.5,0.3,0.7,0.6c0.2,0.2,0.4,0.4,0.5,0.7c0.2,0.2,0.7,0.2,0.9,0.4c0.2,0.2,0.3,0.5,0.5,0.7c0.2,0.2-0.3,0.9-0.1,1.1
	c0.2,0.2,1.3-0.1,1.5,0.1c0.2,0.2,0.3,0.5,0.5,0.7c0.2,0.2,0.7,0.3,0.9,0.5c0.1,0.3,0.3,0.5,0.4,0.8c0.1,0.3-0.2,0.8,0,1
	c0.1,0.3,0.9,0.2,1,0.5c0.1,0.3-0.7,1-0.5,1.3c0.1,0.3,0.2,0.5,0.4,0.8c0.1,0.3,0.6,0.4,0.7,0.6c0.1,0.3,0.7,0.3,0.8,0.6
	c0.1,0.3,0,0.7,0.1,0.9c0.1,0.3,1.2,0.1,1.3,0.4c0.1,0.3-1.3,1.2-1.2,1.4c0.1,0.3,1.6,0,1.7,0.3c0.1,0.3-1.4,1.2-1.3,1.4
	c0.1,0.3,1.4,0.1,1.5,0.4c0.1,0.3,0.8,0.3,0.9,0.6c0.1,0.3-0.2,0.7-0.1,1c0.1,0.3-0.8,0.9-0.7,1.2c0.1,0.3-0.1,0.6,0,0.9
	c0.1,0.3,0.6,0.4,0.7,0.7c0.1,0.3-0.5,0.7-0.4,1c0.1,0.3,0.7,0.4,0.7,0.7c0.1,0.3-0.6,0.7-0.5,1c0.1,0.3,2.3,0.1,2.4,0.4
	c0.1,0.3-0.6,0.7-0.6,1c0.1,0.3,0.2,0.6,0.2,0.9c0.1,0.3-0.3,0.6-0.2,0.9c0,0.3-0.1,0.6-0.1,0.9c0,0.3-0.3,0.6-0.2,0.9
	c0,0.3,1.2,0.4,1.3,0.7c0,0.3,0.1,0.6,0.1,0.9c0,0.3,0.5,0.5,0.5,0.8c0,0.3-0.4,0.6-0.4,0.9c0,0.3,0,0.6,0,0.9c0,0.3-1.4,0.7-1.4,1
	c0,0.3,0.8,0.5,0.8,0.8c0,0.3,1,0.6,1,0.8c0,0.3-0.1,0.6-0.1,0.9C187.2,124.4,185.6,124.7,185.6,125z"/>
<path class="st5" d="M125,177.7c-0.3,0-0.5,0.2-0.8,0.2c-0.3,0-0.5,0.8-0.8,0.8c-0.3,0-0.5-1.2-0.7-1.2c-0.3,0-0.5,0.7-0.8,0.7
	c-0.3,0-0.6,0.9-0.8,0.9c-0.3,0-0.5,0.1-0.8,0.1c-0.3,0-0.5-0.3-0.7-0.3c-0.3,0-0.4-0.9-0.7-0.9c-0.3,0-0.6,0.8-0.9,0.8
	c-0.3,0-0.4-1-0.6-1c-0.3,0-0.6,0.6-0.8,0.5c-0.3,0-0.5-0.3-0.7-0.3c-0.2,0-0.4-0.7-0.6-0.7c-0.2,0-0.6,0.4-0.8,0.3
	c-0.2-0.1-0.5-0.2-0.7-0.3c-0.2-0.1-0.3-0.9-0.6-1c-0.2-0.1-0.7,0.9-1,0.9c-0.2-0.1-0.5-0.2-0.7-0.3c-0.2-0.1-0.3-0.8-0.6-0.9
	c-0.2-0.1-0.4-0.5-0.6-0.6c-0.2-0.1-0.6,0.3-0.8,0.2c-0.2-0.1-0.9,1.1-1.1,1c-0.2-0.1-0.1-1.5-0.3-1.5c-0.2-0.1-0.6,0.1-0.8,0.1
	c-0.2-0.1-0.7,0.4-0.9,0.3c-0.2-0.1-0.1-1.2-0.3-1.3c-0.2-0.1-1,1.2-1.3,1.1c-0.2-0.1-0.1-1-0.4-1.1c-0.2-0.1-0.4-0.4-0.6-0.5
	c-0.2-0.1-0.3-0.6-0.5-0.7c-0.2-0.1-0.3-0.5-0.5-0.6c-0.2-0.1-0.5-0.1-0.7-0.2c-0.2-0.1-0.6,0.1-0.8,0c-0.2-0.1-0.4-0.4-0.6-0.5
	c-0.2-0.1-0.5-0.1-0.7-0.2c-0.2-0.1-0.6,0.1-0.9,0c-0.2-0.1-0.3-0.5-0.5-0.6c-0.2-0.1-1,0.7-1.2,0.6c-0.2-0.1-0.3-0.5-0.5-0.6
	c-0.2-0.1-0.6,0-0.8-0.2c-0.2-0.1-0.3-0.4-0.6-0.6c-0.2-0.1-0.6-0.1-0.8-0.2c-0.2-0.1,0.5-1.6,0.3-1.7c-0.2-0.1-1,0.5-1.2,0.4
	c-0.2-0.1-0.2-0.6-0.4-0.8c-0.2-0.2-0.4-0.3-0.6-0.4c-0.2-0.2-0.1-0.7-0.3-0.9c-0.2-0.2-0.5-0.2-0.7-0.4c-0.2-0.2-0.9,0.3-1.1,0.1
	c-0.2-0.2-0.3-0.4-0.5-0.6c-0.2-0.2,0.3-1.1,0.1-1.3c-0.2-0.2-1.2,0.6-1.4,0.4c-0.2-0.2,0.3-1,0.1-1.2c-0.2-0.2-1,0.3-1.1,0.1
	c-0.2-0.2-0.7,0-0.9-0.2c-0.2-0.2,0-0.7-0.2-0.9s-0.6-0.1-0.8-0.3c-0.2-0.2,0.3-1,0.2-1.2c-0.2-0.2-0.7-0.1-0.8-0.3
	c-0.2-0.2-0.7-0.1-0.9-0.3c-0.2-0.2,0.4-1,0.3-1.2c-0.2-0.2,0.1-0.7-0.1-0.9c-0.2-0.2-1.4,0.5-1.5,0.3c-0.2-0.2,0.6-1.1,0.4-1.3
	c-0.2-0.2-1.1,0.2-1.2,0c-0.2-0.2-0.5-0.2-0.7-0.4c-0.1-0.2,0.4-0.9,0.3-1.1c-0.1-0.2-1,0.1-1.1-0.2c-0.1-0.2-0.6-0.2-0.8-0.4
	c-0.1-0.2,0.3-0.8,0.2-1c-0.1-0.2,0.5-0.9,0.4-1.1c-0.1-0.2-0.1-0.5-0.2-0.7c-0.1-0.2-1.4,0.3-1.6,0c-0.1-0.2-0.6-0.3-0.7-0.5
	c-0.1-0.2,1.2-1.3,1.1-1.5c-0.1-0.2-1.1,0-1.2-0.2c-0.1-0.2,0.3-0.7,0.2-1c-0.1-0.2-0.8-0.2-0.9-0.4c-0.1-0.2,0.1-0.6,0-0.9
	c-0.1-0.2-1.2,0-1.3-0.3c-0.1-0.2-0.4-0.4-0.5-0.6c-0.1-0.2,1.1-1,1-1.2c-0.1-0.2,0.1-0.6,0-0.8c-0.1-0.2-1.8,0.2-1.9-0.1
	c-0.1-0.2,1.6-1.2,1.6-1.4c-0.1-0.2-2,0.2-2.1-0.1c-0.1-0.2,1.5-1.1,1.5-1.3c-0.1-0.2-1.2-0.1-1.3-0.4c-0.1-0.2-0.2-0.5-0.3-0.7
	c-0.1-0.2,0.3-0.6,0.2-0.9c-0.1-0.2,0.3-0.6,0.3-0.9c-0.1-0.2-0.7-0.3-0.7-0.6c-0.1-0.2-0.2-0.5-0.3-0.7c-0.1-0.2,0.1-0.5,0-0.8
	c-0.1-0.2-0.8-0.3-0.8-0.6c-0.1-0.2,1.4-0.8,1.3-1.1c0-0.2-0.1-0.5-0.1-0.7c0-0.2-1.9-0.2-1.9-0.4c0-0.2,0.7-0.6,0.7-0.9
	c0-0.2-0.9-0.4-0.9-0.6c0-0.3,1.6-0.7,1.5-1c0-0.3-0.9-0.4-0.9-0.6c0-0.3,0.6-0.6,0.5-0.8c0-0.3-0.7-0.4-0.7-0.7
	c0-0.3,0.4-0.5,0.3-0.8c0-0.3-0.9-0.5-0.9-0.7c0-0.3,0.4-0.5,0.4-0.8c0-0.3,0.2-0.5,0.2-0.8c0-0.3,0.3-0.5,0.3-0.8s-0.6-0.5-0.6-0.8
	c0-0.3-0.9-0.5-0.9-0.8c0-0.3,1.3-0.5,1.3-0.7c0-0.3-0.4-0.5-0.4-0.8c0-0.3,0.7-0.5,0.7-0.7c0-0.3-0.6-0.5-0.5-0.8
	c0-0.3-0.5-0.6-0.5-0.8c0-0.3,0-0.5,0-0.8c0-0.3,0.8-0.4,0.8-0.7c0-0.3,0.2-0.5,0.3-0.7c0-0.3,0.1-0.5,0.1-0.7
	c0-0.3-1.1-0.7-1.1-0.9c0-0.3,1-0.3,1.1-0.6c0-0.2,0.1-0.5,0.1-0.8c0-0.2,0.2-0.5,0.2-0.7c0.1-0.2-0.8-0.7-0.7-0.9
	c0.1-0.2,0-0.5,0-0.8c0.1-0.2-0.1-0.6-0.1-0.8c0.1-0.2,1.8-0.1,1.8-0.3c0.1-0.2-1.3-0.9-1.2-1.1c0.1-0.2,1.7-0.1,1.7-0.3
	c0.1-0.2-1.5-1-1.4-1.2c0.1-0.2,0.1-0.5,0.2-0.8c0.1-0.2,1-0.2,1.1-0.5c0.1-0.2,0.4-0.4,0.5-0.6c0.1-0.2,0.2-0.5,0.3-0.7
	c0.1-0.2,0-0.5,0.1-0.8c0.1-0.2,1.1-0.1,1.1-0.4c0.1-0.2-1.4-1.1-1.3-1.4c0.1-0.2,1.1-0.1,1.2-0.3c0.1-0.2-0.3-0.7-0.2-0.9
	c0.1-0.2,0.9-0.1,1-0.4c0.1-0.2-0.7-0.9-0.5-1.1c0.1-0.2,0.8-0.1,1-0.4c0.1-0.2,1-0.1,1.1-0.3c0.1-0.2-1.5-1.4-1.4-1.6
	c0.1-0.2,0.6-0.2,0.8-0.5c0.1-0.2,1.6,0.3,1.7,0.1c0.1-0.2,0.4-0.3,0.5-0.6c0.1-0.2-0.5-0.9-0.4-1.1c0.1-0.2-0.7-1.1-0.6-1.3
	c0.1-0.2,1.9,0.6,2,0.4c0.1-0.2,0-0.6,0.2-0.8c0.1-0.2-0.2-0.8-0.1-1c0.1-0.2-0.6-1-0.4-1.2c0.1-0.2,1.4,0.4,1.5,0.2
	c0.2-0.2,0.4-0.4,0.5-0.6c0.2-0.2-0.4-0.9-0.2-1.1c0.2-0.2,1.1,0.2,1.3,0c0.2-0.2,0.2-0.5,0.3-0.7c0.2-0.2-0.2-0.8,0-1
	c0.2-0.2-0.2-0.8,0-1c0.2-0.2,0.5-0.2,0.7-0.4c0.2-0.2,1.1,0.4,1.3,0.2c0.2-0.2-0.5-1.2-0.3-1.4c0.2-0.2,0.7,0,0.9-0.2
	s0.7,0,0.9-0.2c0.2-0.2,0.4-0.3,0.6-0.4c0.2-0.2-0.2-1,0-1.2c0.2-0.2,0.5-0.2,0.7-0.3c0.2-0.2,0.6-0.1,0.8-0.2
	c0.2-0.2,0.6-0.1,0.8-0.3c0.2-0.2-0.1-0.9,0.1-1.1c0.2-0.2,1.4,0.9,1.6,0.8c0.2-0.2-0.7-1.7-0.5-1.9c0.2-0.2,0.9,0.4,1.1,0.2
	c0.2-0.2-0.1-1,0.1-1.2c0.2-0.1,0.9,0.4,1.1,0.3c0.2-0.1,0.5-0.2,0.7-0.3c0.2-0.1,0.1-0.7,0.3-0.9c0.2-0.1,0.2-0.7,0.4-0.8
	c0.2-0.1,1.3,1.1,1.5,0.9c0.2-0.1-0.6-1.9-0.3-2c0.2-0.1,1.3,1.2,1.5,1.1c0.2-0.1,0.1-0.8,0.3-0.9c0.2-0.1,0.8,0.4,1,0.2
	c0.2-0.1-0.3-1.6-0.1-1.7c0.2-0.1,1.2,1.2,1.4,1.1c0.2-0.1,0.2-0.7,0.4-0.8c0.2-0.1,0.7,0.4,1,0.2c0.2-0.1-0.3-1.9-0.1-2
	c0.2-0.1,1.2,1.4,1.4,1.3c0.2-0.1,0.5-0.2,0.7-0.3c0.2-0.1,0-1.2,0.3-1.3c0.2-0.1,0.7,0.5,1,0.4c0.2-0.1,0.4-0.2,0.7-0.3
	c0.2-0.1,0.1-1.3,0.3-1.4c0.2-0.1,1,1.4,1.3,1.3c0.2-0.1,0.5-0.1,0.7-0.2c0.2-0.1,0.5-0.1,0.7-0.2c0.2-0.1,0-1.8,0.2-1.9
	c0.2-0.1,0.7,0.5,0.9,0.5c0.2-0.1,0.4-0.5,0.6-0.6c0.2-0.1,0.5-0.2,0.7-0.2c0.2-0.1,0.8,1,1,1c0.2-0.1,0.6,0.2,0.8,0.1
	c0.2-0.1,0.2-1.6,0.4-1.6c0.2,0,0.5-0.2,0.7-0.3c0.2,0,0.7,1.1,1,1.1c0.2,0,0.4-0.6,0.7-0.6c0.2,0,0.6,0.6,0.8,0.6
	c0.3,0,0.4-0.9,0.6-1c0.3,0,0.5,0,0.8,0c0.3,0,0.4-0.8,0.7-0.8c0.3,0,0.6,1.3,0.9,1.3c0.3,0,0.4-1.1,0.7-1.2c0.3,0,0.5-0.4,0.7-0.4
	c0.3,0,0.5-0.1,0.8-0.1c0.3,0,0.5,0.6,0.8,0.6c0.3,0,0.5,0.6,0.8,0.6c0.3,0,0.5-0.5,0.8-0.5c0.3,0,0.5,0.3,0.8,0.3
	c0.3,0,0.5-0.4,0.8-0.4c0.3,0,0.5-0.4,0.8-0.4c0.3,0,0.5-0.1,0.8-0.1c0.3,0,0.5,0.3,0.8,0.4c0.3,0,0.5,0.3,0.7,0.3
	c0.3,0,0.4,0.9,0.7,0.9c0.3,0,0.5-0.1,0.8,0c0.3,0,0.5-0.2,0.8-0.2c0.3,0,0.5,0.2,0.7,0.3c0.3,0,0.6-0.8,0.9-0.8
	c0.3,0,0.2,1.8,0.5,1.8c0.2,0,0.7-1.3,1-1.2c0.2,0,0.5,0,0.8,0.1c0.2,0.1,0.6-0.2,0.8-0.1c0.2,0.1,0.5,0.1,0.8,0.1
	c0.2,0.1,0.2,1.4,0.4,1.4c0.2,0.1,0.9-1.4,1.1-1.4c0.2,0.1,0.4,0.5,0.7,0.5c0.2,0.1,0.3,0.9,0.5,1c0.2,0.1,0.4,0.4,0.6,0.5
	c0.2,0.1,0.5,0,0.8,0.1c0.2,0.1,0.4,0.4,0.6,0.5c0.2,0.1,0.7-0.4,0.9-0.3c0.2,0.1,0.8-0.6,1-0.5c0.2,0.1,0.4,0.3,0.7,0.4
	c0.2,0.1-0.1,1.5,0.2,1.6c0.2,0.1,0.4,0.4,0.6,0.5c0.2,0.1,0.9-0.9,1.1-0.8c0.2,0.1,0.7-0.4,1-0.3c0.2,0.1,0.5,0.3,0.7,0.4
	c0.2,0.1,0.2,0.9,0.4,1c0.2,0.1,0.7-0.3,0.9-0.1c0.2,0.1,0.2,0.7,0.4,0.8c0.2,0.1,0.3,0.5,0.6,0.6c0.2,0.1,0.2,0.7,0.4,0.8
	c0.2,0.1,1.2-1.1,1.4-0.9c0.2,0.1-0.4,1.6-0.2,1.8c0.2,0.1,0.7-0.1,0.9,0c0.2,0.1,0.8-0.4,1.1-0.2c0.2,0.1,0.1,0.8,0.3,1
	c0.2,0.1,0.7-0.2,0.9,0c0.2,0.1-0.3,1.4-0.1,1.5c0.2,0.1,1.4-1.1,1.6-1c0.2,0.1-0.3,1.3-0.1,1.4c0.2,0.2,0.2,0.5,0.4,0.7
	c0.2,0.2,0.8-0.2,1,0c0.2,0.2,0.5,0.2,0.7,0.3c0.2,0.2,0,0.7,0.2,0.9c0.2,0.2,0.5,0.2,0.6,0.4c0.2,0.2,1.2-0.5,1.3-0.4
	c0.2,0.2-0.5,1.3-0.3,1.4c0.2,0.2,0.8-0.1,1,0.1c0.2,0.2,1-0.3,1.2-0.1s-0.2,0.9,0,1.1c0.2,0.2,0,0.7,0.2,0.9
	c0.2,0.2,0.3,0.4,0.5,0.6c0.2,0.2,0.4,0.3,0.6,0.5c0.2,0.2-0.1,0.8,0,1c0.2,0.2,1.7-0.8,1.9-0.6c0.2,0.2-0.9,1.4-0.7,1.6
	c0.2,0.2,1.4-0.5,1.6-0.3c0.2,0.2,0.3,0.5,0.4,0.7c0.2,0.2-0.2,0.8-0.1,1c0.2,0.2,0.7,0.1,0.9,0.3c0.2,0.2-0.7,1.2-0.6,1.4
	c0.1,0.2,1.6-0.5,1.8-0.3c0.1,0.2-0.5,1-0.3,1.2c0.1,0.2,0.9,0,1.1,0.2c0.1,0.2-0.1,0.7,0,0.9c0.1,0.2,0,0.6,0.1,0.8
	c0.1,0.2,0.7,0.2,0.8,0.4c0.1,0.2,0.1,0.5,0.2,0.8c0.1,0.2,0.5,0.3,0.6,0.5c0.1,0.2,0.1,0.5,0.2,0.8c0.1,0.2,0.9,0.1,1.1,0.3
	c0.1,0.2-0.6,0.9-0.5,1.1c0.1,0.2-0.5,0.8-0.4,1c0.1,0.2,0.8,0.2,0.9,0.4c0.1,0.2,0.1,0.5,0.2,0.7c0.1,0.2-0.5,0.8-0.4,1
	c0.1,0.2,0.3,0.4,0.4,0.6c0.1,0.2,1.6-0.1,1.7,0.1c0.1,0.2-0.8,0.9-0.7,1.1c0.1,0.2,0.6,0.3,0.7,0.5c0.1,0.2,1.1,0.1,1.2,0.4
	c0.1,0.2-0.7,0.8-0.6,1c0.1,0.2,0.7,0.3,0.8,0.5c0.1,0.2-0.8,0.8-0.7,1c0.1,0.2,1.2,0.2,1.2,0.4c0.1,0.2-0.6,0.7-0.6,1
	c0.1,0.2,0,0.5,0.1,0.8c0.1,0.2,0.4,0.4,0.5,0.7c0.1,0.2,0.9,0.3,1,0.6c0.1,0.2-0.9,0.7-0.9,1c0.1,0.2-0.3,0.6-0.3,0.8
	c0,0.2,0,0.5,0,0.8c0,0.2,0.5,0.4,0.6,0.7c0,0.2,0.7,0.4,0.7,0.7c0,0.2-1.1,0.7-1,0.9c0,0.3,0.1,0.5,0.1,0.7c0,0.3-0.1,0.5-0.1,0.8
	c0,0.3,0.6,0.4,0.7,0.7c0,0.3-0.5,0.5-0.5,0.8c0,0.3,1.4,0.4,1.5,0.6c0,0.3-0.1,0.5-0.1,0.8c0,0.3-0.1,0.5-0.1,0.8
	c0,0.3-0.3,0.5-0.3,0.8c0,0.3,0.8,0.5,0.8,0.7c0,0.3-0.9,0.5-0.9,0.8c0,0.3,0,0.5,0,0.8c0,0.3,0.6,0.5,0.6,0.8
	c0,0.3-0.7,0.5-0.7,0.7c0,0.3,1.1,0.6,1.1,0.8c0,0.3-0.7,0.5-0.7,0.7c0,0.3,0,0.5,0,0.8c0,0.3,0.5,0.6,0.5,0.8
	c0,0.3-1.4,0.4-1.4,0.6c0,0.3,0.9,0.6,0.8,0.9c0,0.3,0.3,0.6,0.2,0.8c0,0.3-1.3,0.3-1.3,0.6c0,0.3,0.8,0.6,0.8,0.9
	c0,0.2-0.2,0.5-0.2,0.7c0,0.2-1.4,0.2-1.4,0.5c-0.1,0.2,1.9,0.9,1.9,1.2c-0.1,0.2-1.3,0.2-1.4,0.5c-0.1,0.2,0.5,0.6,0.4,0.9
	c-0.1,0.2-0.4,0.4-0.4,0.7c-0.1,0.2-1.3,0.2-1.4,0.4c-0.1,0.2,1.3,0.9,1.2,1.1c-0.1,0.2-0.6,0.3-0.7,0.6c-0.1,0.2-0.7,0.3-0.8,0.5
	c-0.1,0.2,1.1,0.9,1,1.1c-0.1,0.2-1.2,0.1-1.3,0.3c-0.1,0.2,0.2,0.6,0.1,0.9c-0.1,0.2,0.6,0.8,0.5,1c-0.1,0.2-0.7,0.3-0.8,0.5
	c-0.1,0.2-0.9,0.2-1,0.4c-0.1,0.2,0.3,0.7,0.2,0.9c-0.1,0.2-0.9,0.1-1,0.4c-0.1,0.2,0.1,0.6,0,0.8c-0.1,0.2,0.4,0.7,0.3,1
	c-0.1,0.2-0.1,0.5-0.3,0.7c-0.1,0.2,0.1,0.6,0,0.9c-0.1,0.2-1.4-0.2-1.6,0c-0.1,0.2,1.1,1.2,1,1.4c-0.1,0.2-0.8,0.2-0.9,0.4
	c-0.1,0.2-1.2-0.1-1.4,0.1c-0.1,0.2,1.4,1.5,1.3,1.7c-0.1,0.2-1,0-1.1,0.2c-0.1,0.2-0.6,0.2-0.8,0.4c-0.1,0.2-0.2,0.5-0.3,0.7
	c-0.1,0.2-0.6,0.2-0.8,0.4c-0.1,0.2,0.4,0.9,0.2,1.1c-0.1,0.2,0.4,0.9,0.2,1.1c-0.2,0.2-0.7,0.1-0.9,0.3c-0.2,0.2-1.2-0.3-1.4-0.1
	c-0.2,0.2-0.1,0.6-0.3,0.7c-0.2,0.2-0.4,0.3-0.6,0.5c-0.2,0.2,0,0.7-0.1,0.9c-0.2,0.2-0.9-0.1-1.1,0c-0.2,0.2,0.8,1.4,0.7,1.6
	c-0.2,0.2-1.2-0.5-1.4-0.3c-0.2,0.2-0.2,0.5-0.4,0.6c-0.2,0.2-0.2,0.5-0.4,0.7c-0.2,0.2,0.5,1.2,0.3,1.4c-0.2,0.2-1.6-1-1.8-0.8
	c-0.2,0.2-0.3,0.4-0.5,0.5c-0.2,0.2,0.6,1.5,0.5,1.6c-0.2,0.2-1.3-0.7-1.5-0.5c-0.2,0.2,0.3,1.1,0.1,1.3c-0.2,0.2-1-0.4-1.2-0.3
	c-0.2,0.2-0.4,0.3-0.6,0.5c-0.2,0.2-0.5,0.1-0.7,0.3c-0.2,0.2-0.5,0.2-0.7,0.3c-0.2,0.2-0.3,0.5-0.5,0.6c-0.2,0.1-0.4,0.3-0.6,0.5
	c-0.2,0.1-0.2,0.6-0.4,0.8c-0.2,0.1-0.4,0.3-0.6,0.4c-0.2,0.1-0.7-0.2-1-0.1c-0.2,0.1,0.1,1.1-0.1,1.3c-0.2,0.1-0.4,0.3-0.6,0.4
	c-0.2,0.1-0.2,0.6-0.4,0.8c-0.2,0.1-0.5,0.2-0.7,0.4c-0.2,0.1-0.7-0.1-0.9,0c-0.2,0.1-0.2,0.8-0.4,0.9c-0.2,0.1-0.9-0.6-1.1-0.4
	c-0.2,0.1-0.5,0.2-0.7,0.3c-0.2,0.1-0.3,0.5-0.6,0.6c-0.2,0.1-0.3,0.6-0.5,0.7c-0.2,0.1-0.6,0-0.8,0.1c-0.2,0.1-0.1,1-0.3,1.1
	c-0.2,0.1-1-1.1-1.3-1c-0.2,0.1,0,1.4-0.2,1.5c-0.2,0.1-1-1.2-1.2-1.1c-0.2,0.1-0.1,1.2-0.3,1.3c-0.2,0.1-0.3,0.7-0.5,0.8
	c-0.2,0.1-0.6-0.2-0.9-0.1c-0.2,0.1-0.8-0.7-1-0.6c-0.2,0.1-0.5-0.1-0.8,0c-0.2,0.1-0.4,0.5-0.6,0.6c-0.2,0.1-0.6-0.4-0.9-0.4
	c-0.2,0.1-0.4,0.6-0.6,0.6c-0.2,0.1-0.6-0.5-0.9-0.4c-0.2,0.1-0.1,2-0.3,2c-0.2,0.1-0.6-0.5-0.9-0.5c-0.2,0-0.5,0.2-0.7,0.2
	c-0.2,0-0.6-0.2-0.8-0.2c-0.2,0-0.5-0.1-0.8-0.1c-0.2,0-0.5-0.2-0.8-0.2c-0.3,0-0.4,1.1-0.6,1.1c-0.3,0-0.5,0.1-0.8,0.1
	c-0.3,0-0.5,0.4-0.7,0.5c-0.3,0-0.6-0.3-0.8-0.3c-0.3,0-0.5,0-0.8,0c-0.3,0-0.6-1.2-0.8-1.2c-0.3,0-0.5,0.7-0.7,0.7
	c-0.3,0-0.5,0.8-0.7,0.8c-0.3,0-0.5-0.1-0.8-0.1C125.5,179.1,125.3,177.7,125,177.7z"/>
<path class="st4" d="M125,15C64.2,15,15,64.2,15,125s49.3,110,110,110s110-49.3,110-110S185.8,15,125,15z M232.9,136.1
	c-0.1,0.5-2.7,0.7-2.8,1.2c-0.1,0.5,1.7,1.2,1.7,1.7c-0.1,0.5,0.5,1.1,0.4,1.6c-0.1,0.5-2.6,0.6-2.7,1.1c-0.1,0.5,1.7,1.3,1.6,1.8
	c-0.1,0.5-0.4,1-0.5,1.5c-0.1,0.5-2.8,0.5-2.9,1c-0.1,0.5,3.8,1.8,3.7,2.3c-0.1,0.5-2.6,0.5-2.7,1c-0.1,0.5,0.9,1.3,0.8,1.8
	c-0.1,0.5-0.7,0.9-0.9,1.4c-0.1,0.5-2.6,0.3-2.7,0.8c-0.1,0.5,2.6,1.8,2.4,2.3c-0.1,0.5-1.2,0.7-1.4,1.2c-0.2,0.5-1.4,0.6-1.6,1.1
	c-0.2,0.5,2.1,1.8,1.9,2.3c-0.2,0.5-2.5,0.2-2.7,0.7c-0.2,0.5,0.4,1.2,0.3,1.7c-0.2,0.5,1.2,1.5,1,2c-0.2,0.5-1.5,0.5-1.7,1
	c-0.2,0.5-1.9,0.3-2.1,0.8c-0.2,0.5,0.6,1.3,0.4,1.8c-0.2,0.5-1.8,0.3-2,0.7c-0.2,0.5,0.2,1.2,0,1.6c-0.2,0.5,0.7,1.5,0.5,1.9
	c-0.2,0.5-0.3,1-0.5,1.5c-0.2,0.5,0.2,1.3,0,1.7c-0.2,0.4-2.9-0.4-3.2,0c-0.2,0.4,2.3,2.4,2,2.9c-0.3,0.4-1.5,0.3-1.8,0.7
	c-0.3,0.4-2.5-0.3-2.7,0.1c-0.3,0.4,2.8,2.9,2.5,3.3c-0.3,0.4-2,0-2.3,0.4c-0.3,0.4-1.2,0.4-1.5,0.8c-0.3,0.4-0.4,0.9-0.7,1.4
	c-0.3,0.4-1.3,0.4-1.5,0.8c-0.3,0.4,0.8,1.8,0.5,2.2c-0.3,0.4,0.8,1.8,0.5,2.3c-0.3,0.4-1.5,0.2-1.8,0.6c-0.3,0.4-2.5-0.7-2.8-0.3
	s-0.2,1.1-0.5,1.5c-0.3,0.4-0.9,0.6-1.2,1c-0.3,0.4,0,1.4-0.3,1.7c-0.3,0.4-1.8-0.3-2.2,0.1c-0.3,0.4,1.7,2.9,1.3,3.2
	c-0.3,0.4-2.5-0.9-2.9-0.6s-0.5,0.9-0.8,1.3s-0.4,1-0.7,1.4s1,2.5,0.6,2.8c-0.4,0.4-3.2-1.9-3.6-1.6c-0.4,0.3-0.7,0.8-1,1.1
	c-0.4,0.3,1.3,3,0.9,3.3c-0.4,0.3-2.6-1.4-3-1.1c-0.4,0.3,0.6,2.2,0.2,2.6c-0.4,0.3-2-0.9-2.4-0.5c-0.4,0.3-0.8,0.6-1.2,0.9
	c-0.4,0.3-1.1,0.2-1.5,0.5c-0.4,0.3-1,0.3-1.4,0.6c-0.4,0.3-0.6,0.9-1,1.2c-0.4,0.3-0.8,0.6-1.2,0.9c-0.4,0.3-0.3,1.3-0.8,1.6
	c-0.4,0.3-0.9,0.5-1.3,0.8c-0.4,0.3-1.5-0.5-1.9-0.2c-0.4,0.3,0.2,2.3-0.2,2.5c-0.4,0.3-0.9,0.5-1.3,0.8c-0.4,0.3-0.4,1.3-0.9,1.5
	c-0.4,0.3-0.9,0.5-1.3,0.7c-0.4,0.2-1.3-0.3-1.8,0c-0.4,0.2-0.3,1.5-0.8,1.8c-0.4,0.2-1.7-1.1-2.2-0.9c-0.5,0.2-0.9,0.4-1.4,0.6
	c-0.5,0.2-0.6,1-1.1,1.2c-0.5,0.2-0.6,1.1-1.1,1.4c-0.5,0.2-1.1-0.1-1.6,0.1c-0.5,0.2-0.2,2.1-0.7,2.3c-0.5,0.2-2-2.3-2.5-2.1
	c-0.5,0.2,0,2.7-0.5,2.9c-0.5,0.2-2-2.4-2.5-2.2c-0.5,0.2-0.2,2.5-0.7,2.6c-0.5,0.2-0.6,1.5-1.1,1.6c-0.5,0.2-1.2-0.4-1.7-0.3
	c-0.5,0.2-1.5-1.4-2-1.3c-0.5,0.1-1.1-0.2-1.6,0c-0.5,0.1-0.8,1-1.3,1.1c-0.5,0.1-1.3-0.9-1.8-0.8c-0.5,0.1-0.7,1.1-1.2,1.3
	c-0.5,0.1-1.3-1-1.8-0.9c-0.5,0.1-0.1,4-0.6,4.1c-0.5,0.1-1.3-1.1-1.8-1c-0.5,0.1-1,0.3-1.5,0.4c-0.5,0.1-1.1-0.5-1.6-0.4
	c-0.5,0.1-1.1-0.2-1.6-0.1c-0.5,0.1-1.1-0.4-1.6-0.4c-0.5,0.1-0.7,2.1-1.2,2.2c-0.5,0.1-1,0.1-1.5,0.2c-0.5,0.1-0.9,0.9-1.5,0.9
	c-0.5,0.1-1.1-0.7-1.6-0.7c-0.5,0-1,0-1.5,0c-0.5,0-1.2-2.4-1.7-2.4c-0.5,0-0.9,1.4-1.4,1.4c-0.5,0-1,1.7-1.5,1.7
	c-0.5,0-1-0.2-1.5-0.2c-0.5,0-1-2.7-1.5-2.7c-0.5,0-1,0.3-1.5,0.3c-0.5,0-1.1,1.7-1.6,1.7c-0.5,0-0.9-2.4-1.4-2.4
	c-0.5,0-1.1,1.3-1.6,1.3c-0.5,0-1.1,1.8-1.7,1.8c-0.5,0-1.1,0.2-1.6,0.2c-0.5,0-1-0.5-1.5-0.6c-0.5-0.1-0.8-1.8-1.3-1.9
	c-0.5-0.1-1.2,1.6-1.7,1.6c-0.5-0.1-0.8-2-1.3-2.1c-0.5-0.1-1.2,1.1-1.7,1c-0.5-0.1-1-0.5-1.5-0.6c-0.5-0.1-0.8-1.4-1.3-1.5
	c-0.5-0.1-1.2,0.7-1.7,0.6c-0.5-0.1-0.9-0.5-1.4-0.6c-0.5-0.1-0.6-1.8-1.1-1.9c-0.5-0.1-1.5,1.9-2,1.8c-0.5-0.1-1-0.4-1.4-0.5
	c-0.5-0.1-0.6-1.6-1.1-1.7c-0.5-0.1-0.8-1-1.2-1.1c-0.5-0.1-1.2,0.6-1.7,0.4c-0.5-0.2-1.8,2.2-2.3,2.1c-0.5-0.2-0.1-2.9-0.6-3.1
	c-0.5-0.2-1.2,0.3-1.6,0.1c-0.5-0.2-1.4,0.8-1.9,0.7c-0.5-0.2-0.2-2.3-0.7-2.5c-0.5-0.2-2.1,2.5-2.5,2.3c-0.5-0.2-0.3-2.1-0.7-2.3
	c-0.5-0.2-0.8-0.7-1.3-0.9c-0.5-0.2-0.5-1.3-1-1.5c-0.5-0.2-0.6-1-1.1-1.2c-0.5-0.2-1-0.2-1.5-0.4c-0.5-0.2-1.2,0.1-1.6-0.1
	c-0.5-0.2-0.7-0.8-1.2-1c-0.4-0.2-1-0.2-1.5-0.5c-0.4-0.2-1.3,0.2-1.7,0c-0.4-0.3-0.6-1-1-1.3c-0.4-0.3-2,1.4-2.4,1.1
	c-0.4-0.3-0.6-1-1-1.2c-0.4-0.3-1.2,0-1.6-0.3c-0.4-0.3-0.7-0.8-1.1-1.1c-0.4-0.3-1.1-0.2-1.5-0.5c-0.4-0.3,1-3.2,0.6-3.5
	c-0.4-0.3-2,1.1-2.4,0.8c-0.4-0.3-0.4-1.2-0.8-1.5c-0.4-0.3-0.9-0.5-1.3-0.9c-0.4-0.3-0.1-1.5-0.5-1.8c-0.4-0.3-1-0.4-1.3-0.7
	c-0.4-0.3-1.8,0.6-2.2,0.2c-0.4-0.3-0.6-0.8-1-1.2s0.6-2.2,0.2-2.5c-0.4-0.3-2.4,1.1-2.8,0.8c-0.4-0.3,0.6-2.1,0.2-2.5
	c-0.4-0.3-1.9,0.6-2.3,0.2c-0.4-0.4-1.4-0.1-1.7-0.5s-0.1-1.4-0.4-1.8c-0.4-0.4-1.3-0.2-1.6-0.6s0.7-2,0.3-2.4
	c-0.3-0.4-1.3-0.2-1.7-0.5s-1.4-0.1-1.7-0.5c-0.3-0.4,0.9-2.1,0.5-2.5c-0.3-0.4,0.1-1.4-0.2-1.8c-0.3-0.4-2.7,0.9-3.1,0.5
	c-0.3-0.4,1.2-2.2,0.9-2.6c-0.3-0.4-2.1,0.4-2.4,0c-0.3-0.4-1.1-0.5-1.4-0.9c-0.3-0.4,0.9-1.9,0.6-2.3c-0.3-0.4-1.9,0.1-2.2-0.3
	c-0.3-0.4-1.3-0.4-1.6-0.8c-0.3-0.4,0.6-1.6,0.3-2c-0.3-0.4,1.1-1.9,0.8-2.3c-0.3-0.4-0.2-1-0.5-1.5c-0.3-0.4-2.9,0.5-3.1,0.1
	c-0.3-0.4-1.2-0.5-1.4-1c-0.2-0.4,2.5-2.5,2.2-3c-0.2-0.4-2.1,0-2.4-0.4c-0.2-0.4,0.7-1.5,0.4-1.9c-0.2-0.5-1.6-0.3-1.8-0.8
	c-0.2-0.5,0.3-1.2,0-1.7c-0.2-0.5-2.3,0-2.5-0.5c-0.2-0.5-0.8-0.8-1-1.2c-0.2-0.5,2.1-2,1.9-2.5c-0.2-0.5,0.2-1.2,0-1.6
	c-0.2-0.5-3.7,0.4-3.9-0.1c-0.2-0.5,3.3-2.3,3.1-2.8c-0.2-0.5-4,0.4-4.1-0.1c-0.2-0.5,3.1-2.1,2.9-2.6c-0.2-0.5-2.5-0.2-2.6-0.7
	c-0.2-0.5-0.5-0.9-0.6-1.4c-0.1-0.5,0.5-1.2,0.4-1.7c-0.1-0.5,0.6-1.2,0.5-1.7c-0.1-0.5-1.4-0.7-1.5-1.2c-0.1-0.5-0.5-0.9-0.6-1.4
	c-0.1-0.5,0.2-1.1,0.1-1.6c-0.1-0.5-1.6-0.7-1.7-1.2c-0.1-0.5,2.8-1.6,2.7-2.1c-0.1-0.5-0.1-1-0.2-1.5c-0.1-0.5-3.8-0.4-3.9-0.9
	c-0.1-0.5,1.4-1.3,1.3-1.8c-0.1-0.5-1.7-0.8-1.8-1.3c-0.1-0.5,3.1-1.4,3-2c-0.1-0.5-1.8-0.8-1.9-1.3c-0.1-0.5,1.1-1.1,1.1-1.6
	c-0.1-0.5-1.4-0.9-1.4-1.4c0-0.5,0.7-1.1,0.7-1.6c0-0.5-1.8-0.9-1.8-1.4c0-0.5,0.8-1.1,0.8-1.6c0-0.5,0.5-1,0.5-1.5
	c0-0.5,0.6-1,0.6-1.5c0-0.5-1.1-1-1.1-1.5c0-0.5-1.8-1-1.8-1.6c0-0.5,2.7-1,2.7-1.5c0-0.5-0.7-1-0.7-1.5c0-0.5,1.4-0.9,1.4-1.4
	c0-0.5-1.1-1.1-1.1-1.6c0-0.5-1.1-1.1-1-1.6c0-0.5,0-1,0.1-1.5c0.1-0.5,1.6-0.9,1.6-1.4c0.1-0.5,0.5-1,0.5-1.5
	c0.1-0.5,0.1-1,0.2-1.5c0.1-0.5-2.2-1.4-2.1-1.9c0.1-0.5,2.1-0.7,2.2-1.2c0.1-0.5,0.1-1,0.2-1.5c0.1-0.5,0.3-1,0.4-1.5
	c0.1-0.5-1.5-1.4-1.4-1.9c0.1-0.5-0.1-1.1,0.1-1.6c0.1-0.5-0.2-1.1-0.1-1.6c0.1-0.5,3.5-0.2,3.6-0.7c0.1-0.5-2.6-1.7-2.4-2.2
	c0.1-0.5,3.3-0.1,3.5-0.6c0.1-0.5-2.9-1.9-2.8-2.4c0.2-0.5,0.2-1,0.4-1.5c0.2-0.5,2-0.4,2.2-0.9c0.2-0.5,0.8-0.8,0.9-1.3
	c0.2-0.5,0.4-0.9,0.6-1.4c0.2-0.5,0-1.1,0.2-1.5c0.2-0.5,2.1-0.2,2.3-0.7c0.2-0.5-2.9-2.3-2.7-2.8c0.2-0.5,2.2-0.2,2.4-0.6
	c0.2-0.5-0.6-1.4-0.3-1.8c0.2-0.5,1.9-0.2,2.1-0.7c0.2-0.5-1.3-1.8-1.1-2.2c0.2-0.5,1.7-0.3,1.9-0.7c0.2-0.5,2-0.1,2.2-0.6
	c0.2-0.4-3-2.8-2.8-3.2c0.2-0.4,1.3-0.5,1.5-0.9c0.3-0.4,3.1,0.6,3.4,0.2c0.3-0.4,0.8-0.7,1-1.1c0.3-0.4-1-1.8-0.7-2.2
	c0.3-0.4-1.4-2.1-1.2-2.6c0.3-0.4,3.8,1.2,4,0.8c0.3-0.4,0.1-1.2,0.4-1.6c0.3-0.4-0.4-1.5-0.1-2c0.3-0.4-1.1-2.1-0.8-2.5
	c0.3-0.4,2.7,0.7,3,0.3c0.3-0.4,0.7-0.7,1-1.1c0.3-0.4-0.7-1.9-0.4-2.3c0.3-0.4,2.2,0.5,2.5,0.1c0.3-0.4,0.3-1,0.7-1.4
	c0.3-0.4-0.3-1.6,0-2s-0.3-1.7,0-2s1.1-0.4,1.4-0.8c0.3-0.4,2.3,0.7,2.6,0.4s-1-2.4-0.6-2.7c0.4-0.4,1.4-0.1,1.7-0.5s1.4,0,1.8-0.4
	s0.9-0.5,1.3-0.9c0.4-0.3-0.4-2-0.1-2.3s1.1-0.3,1.5-0.7c0.4-0.3,1.2-0.1,1.6-0.5c0.4-0.3,1.1-0.2,1.5-0.5c0.4-0.3-0.2-1.9,0.2-2.2
	c0.4-0.3,2.8,1.8,3.2,1.5c0.4-0.3-1.4-3.4-1-3.7c0.4-0.3,1.8,0.7,2.3,0.4c0.4-0.3-0.2-2,0.2-2.3c0.4-0.3,1.8,0.8,2.2,0.5
	c0.4-0.3,1-0.3,1.4-0.6c0.4-0.3,0.2-1.5,0.7-1.7c0.4-0.3,0.3-1.4,0.8-1.7c0.4-0.3,2.6,2.1,3,1.9c0.4-0.3-1.1-3.8-0.7-4.1
	c0.4-0.3,2.6,2.5,3.1,2.2c0.4-0.3,0.3-1.6,0.7-1.8c0.4-0.2,1.5,0.7,2,0.5c0.4-0.2-0.6-3.2-0.1-3.5c0.4-0.2,2.4,2.5,2.9,2.3
	c0.5-0.2,0.4-1.4,0.9-1.7c0.5-0.2,1.4,0.7,1.9,0.5c0.5-0.2-0.7-3.9-0.2-4.1c0.5-0.2,2.4,2.8,2.8,2.6c0.5-0.2,0.9-0.3,1.4-0.5
	c0.5-0.2,0.1-2.5,0.5-2.6c0.5-0.2,1.5,1,1.9,0.8c0.5-0.2,0.9-0.5,1.4-0.6c0.5-0.2,0.1-2.6,0.6-2.8c0.5-0.2,2.1,2.8,2.5,2.7
	c0.5-0.2,0.9-0.3,1.4-0.5c0.5-0.2,1-0.3,1.4-0.4c0.5-0.1,0-3.6,0.5-3.8c0.5-0.1,1.4,1.1,1.9,1c0.5-0.1,0.8-1,1.3-1.1
	c0.5-0.1,1-0.3,1.5-0.4c0.5-0.1,1.5,2.1,2,2c0.5-0.1,1.1,0.4,1.6,0.3c0.5-0.1,0.4-3.1,0.9-3.2c0.5-0.1,1-0.5,1.5-0.6
	c0.5-0.1,1.4,2.2,1.9,2.1c0.5-0.1,0.8-1.2,1.3-1.3c0.5-0.1,1.2,1.2,1.7,1.1c0.5-0.1,0.8-1.9,1.3-1.9c0.5-0.1,1,0.1,1.5,0
	c0.5-0.1,0.9-1.6,1.4-1.6c0.5-0.1,1.3,2.7,1.8,2.7c0.5,0,0.8-2.3,1.3-2.3c0.5,0,1-0.8,1.5-0.8c0.5,0,1-0.2,1.5-0.2
	c0.5,0,1.1,1.1,1.6,1.1c0.5,0,1,1.2,1.6,1.2c0.5,0,1-1,1.5-1c0.5,0,1,0.7,1.5,0.7c0.5,0,1-0.8,1.5-0.7c0.5,0,1.1-0.9,1.6-0.9
	c0.5,0,1.1-0.2,1.6-0.2c0.5,0,1,0.7,1.5,0.7c0.5,0,1,0.5,1.5,0.6c0.5,0,0.9,1.9,1.4,1.9c0.5,0.1,1-0.1,1.5-0.1
	c0.5,0.1,1.1-0.5,1.6-0.4c0.5,0.1,1,0.5,1.5,0.6c0.5,0.1,1.3-1.6,1.8-1.5c0.5,0.1,0.4,3.5,0.9,3.6c0.5,0.1,1.5-2.5,2-2.4
	c0.5,0.1,1,0.1,1.5,0.2c0.5,0.1,1.1-0.4,1.6-0.3c0.5,0.1,1,0.1,1.5,0.2c0.5,0.1,0.4,2.8,0.9,2.9c0.5,0.1,1.8-2.8,2.3-2.7
	c0.5,0.1,0.8,0.9,1.3,1.1c0.5,0.1,0.6,1.8,1,1.9c0.5,0.1,0.8,0.8,1.3,1c0.5,0.2,1,0.1,1.5,0.2c0.5,0.2,0.8,0.8,1.3,1
	c0.5,0.2,1.4-0.8,1.8-0.7c0.5,0.2,1.5-1.2,2-1c0.5,0.2,0.9,0.7,1.3,0.9c0.5,0.2-0.1,3.1,0.3,3.3c0.5,0.2,0.7,0.9,1.2,1.1
	c0.5,0.2,1.8-1.7,2.3-1.5c0.5,0.2,1.5-0.7,1.9-0.5c0.5,0.2,0.9,0.5,1.4,0.7c0.5,0.2,0.3,1.7,0.8,1.9c0.5,0.2,1.4-0.5,1.9-0.3
	c0.5,0.2,0.4,1.4,0.9,1.6c0.4,0.2,0.7,0.9,1.1,1.1c0.4,0.2,0.3,1.4,0.8,1.7c0.4,0.3,2.4-2.1,2.8-1.9c0.4,0.3-0.8,3.3-0.3,3.5
	c0.4,0.3,1.3-0.3,1.8,0c0.4,0.3,1.7-0.8,2.1-0.5c0.4,0.3,0.2,1.6,0.6,1.9c0.4,0.3,1.5-0.3,1.9-0.1c0.4,0.3-0.7,2.8-0.3,3.1
	c0.4,0.3,2.9-2.3,3.3-2c0.4,0.3-0.6,2.5-0.2,2.8c0.4,0.3,0.5,1,0.9,1.3c0.4,0.3,1.5-0.3,1.9,0c0.4,0.3,1,0.4,1.4,0.7
	c0.4,0.3,0.1,1.5,0.5,1.8c0.4,0.3,0.9,0.5,1.3,0.8c0.4,0.3,2.3-1.1,2.7-0.7c0.4,0.3-0.9,2.5-0.6,2.9c0.4,0.3,1.6-0.2,1.9,0.2
	c0.4,0.3,2-0.5,2.3-0.2c0.4,0.4-0.3,1.8,0,2.2c0.4,0.4,0,1.5,0.3,1.8c0.4,0.4,0.6,0.8,1,1.2c0.3,0.4,0.8,0.6,1.2,1
	c0.3,0.4-0.3,1.6,0.1,2c0.3,0.4,3.4-1.6,3.7-1.3c0.3,0.4-1.7,2.8-1.4,3.2s2.8-1,3.1-0.6c0.3,0.4,0.5,0.9,0.8,1.3
	c0.3,0.4-0.4,1.6-0.1,2c0.3,0.4,1.4,0.2,1.7,0.6c0.3,0.4-1.5,2.3-1.2,2.8c0.3,0.4,3.2-1.1,3.5-0.6c0.3,0.4-1,1.9-0.7,2.3
	c0.3,0.4,1.9,0,2.2,0.4c0.3,0.4-0.2,1.4,0.1,1.8c0.3,0.4,0,1.2,0.3,1.6c0.3,0.4,1.3,0.4,1.6,0.8c0.3,0.4,0.2,1.1,0.5,1.5
	c0.3,0.4,0.9,0.7,1.2,1.1c0.2,0.4,0.2,1.1,0.4,1.5c0.2,0.4,1.9,0.2,2.1,0.6c0.2,0.4-1.2,1.8-0.9,2.2c0.2,0.5-1,1.6-0.7,2.1
	c0.2,0.5,1.6,0.3,1.8,0.8c0.2,0.5,0.2,1,0.4,1.5c0.2,0.5-1,1.5-0.8,2c0.2,0.5,0.6,0.8,0.8,1.3c0.2,0.5,3.1-0.2,3.3,0.3
	c0.2,0.5-1.6,1.7-1.4,2.2c0.2,0.5,1.2,0.6,1.4,1.1c0.2,0.5,2.3,0.3,2.5,0.7c0.2,0.5-1.3,1.6-1.2,2c0.2,0.5,1.5,0.6,1.6,1.1
	c0.2,0.5-1.6,1.6-1.4,2.1c0.1,0.5,2.3,0.4,2.5,0.9c0.1,0.5-1.3,1.4-1.1,1.9c0.1,0.5,0.1,1,0.2,1.5c0.1,0.5,0.8,0.8,0.9,1.3
	c0.1,0.5,1.8,0.6,1.9,1.1c0.1,0.5-1.9,1.5-1.8,2c0.1,0.5-0.7,1.2-0.6,1.7c0.1,0.5,0,1,0,1.5c0.1,0.5,1,0.8,1.1,1.3
	c0.1,0.5,1.3,0.8,1.4,1.3c0.1,0.5-2.2,1.3-2.1,1.9c0.1,0.5,0.1,1,0.2,1.5c0.1,0.5-0.2,1-0.1,1.5c0.1,0.5,1.3,0.9,1.3,1.4
	c0.1,0.5-1,1.1-1,1.6c0,0.5,2.9,0.8,2.9,1.3c0,0.5-0.2,1-0.1,1.5c0,0.5-0.2,1-0.2,1.5c0,0.5-0.7,1-0.7,1.6c0,0.5,1.7,1,1.7,1.5
	c0,0.5-1.9,1-1.9,1.5c0,0.5,0.1,1,0.1,1.5c0,0.5,1.1,1,1.1,1.6c0,0.5-1.4,1-1.4,1.5c0,0.5,2.3,1.1,2.2,1.6c0,0.5-1.5,0.9-1.5,1.4
	c0,0.5,0,1,0,1.5C231.8,134.9,232.9,135.5,232.9,136.1z"/>
<circle class="st6" cx="124.9" cy="125.1" r="10.1"/>
<g>
	<path class="st7" d="M49.9,80.9C49.9,80.9,49.9,80.9,49.9,80.9c0,1.6,0.9,3.2,2.4,3.7c1.5,0.5,3.2-0.5,4.3-1.6
		c1.3-1.3,2.3-2.9,3.5-4.3c1.6-1.7,3.5-3,5-4.8c1.5-1.8,2.5-4.2,1.7-6.4c-0.1-0.2-0.1-0.4-0.3-0.5c-0.2-0.2-0.6-0.2-0.9-0.2
		c-3.9,0-7.7,1.7-10.5,4.5C53,73.6,49.9,77.6,49.9,80.9z"/>
</g>
<g>
	<path class="st7" d="M63.9,64.8c0,0,9.3-10,23.1-16.2s22.7-5,25.1-5.6c2.4-0.6,0.8,2.6-8.8,3c-9.6,0.4-21.5,7.4-25.2,11.5
		C74.4,61.6,68.4,63.7,63.9,64.8z"/>
</g>
<g>
	<path class="st7" d="M160,194.1c0,0-14.4,5.9-11.7,10.4c2.7,4.5,18,7.6,27,0c9-7.7,13-16.7,16.6-17.6S182.7,181.6,160,194.1z"/>
</g>
</svg>
