<?xml version="1.0" encoding="utf-8"?>
<!-- Generator: Adobe Illustrator 23.1.0, SVG Export Plug-In . SVG Version: 6.00 Build 0)  -->
<svg version="1.1" id="Layer_1" xmlns="http://www.w3.org/2000/svg" xmlns:xlink="http://www.w3.org/1999/xlink" x="0px" y="0px"
	 viewBox="0 0 428 926" style="enable-background:new 0 0 428 926;" xml:space="preserve">
<style type="text/css">
	.st0{fill:#879AB4;}
	.st1{fill:none;stroke:#EEF5F5;stroke-width:3;stroke-linecap:round;stroke-miterlimit:10;}
	.st2{opacity:0.5;fill:#EEF5F5;enable-background:new    ;}
	.st3{fill:#EEF5F5;}
	.st4{fill:url(#SVGID_1_);}
	.st5{fill-rule:evenodd;clip-rule:evenodd;fill:url(#SVGID_2_);}
</style>
<path class="st0" d="M363.1,306.9c7.8,0,14.2-6.3,14.2-14.2s-6.3-14.2-14.2-14.2c-7.8,0-14.2,6.3-14.2,14.2S355.3,306.9,363.1,306.9
	z"/>
<path class="st1" d="M363.1,313.9v-148"/>
<path class="st2" d="M395.3,287.8c0.2-0.6,0.3-1.2,0.5-1.8v-0.1c0.5-2.2,0.8-4.5,0.8-6.7c0-17.7-15-32-33.5-32s-33.4,14.3-33.4,32
	c0,2.3,0.2,4.5,0.7,6.7l0,0v0.1c0.1,0.6,0.3,1.2,0.5,1.8c0.8,3.3,1.8,9.8-1.2,11.6h66.9C393.5,297.6,394.6,291.1,395.3,287.8z"/>
<path class="st3" d="M395.2,298.8H331c-1.5,0-2.7,1.2-2.7,2.7s1.2,2.7,2.7,2.7h64.3c1.5,0,2.7-1.2,2.7-2.7
	C397.9,300,396.7,298.8,395.2,298.8z"/>
<linearGradient id="SVGID_1_" gradientUnits="userSpaceOnUse" x1="455.1" y1="-85.8244" x2="455.1" y2="4.0354" gradientTransform="matrix(1 0 0 1 -92 399.7244)">
	<stop  offset="0" style="stop-color:#465C5C"/>
	<stop  offset="1" style="stop-color:#9BA2AA"/>
</linearGradient>
<path class="st4" d="M377.2,313.9H349V419h28.2V313.9z"/>
<linearGradient id="SVGID_2_" gradientUnits="userSpaceOnUse" x1="306.3" y1="-399.8244" x2="306.3" y2="526.1756" gradientTransform="matrix(1 0 0 1 -92 399.7244)">
	<stop  offset="0" style="stop-color:#EEF5F5"/>
	<stop  offset="1" style="stop-color:#CBD5E1"/>
</linearGradient>
<path class="st5" d="M0.3-0.1h428v926h-10V283.4v-2.5l0,0c-1.6-91.4-92.3-165-204-165s-202.3,73.6-204,165l0,0v2.5v642.5h-10
	L0.3-0.1L0.3-0.1z"/>
</svg>
